{"glyphs":{"0":{"ha":786,"x_min":0,"x_max":0,"o":"m 340 -19 b 153 72 254 -19 192 11 b 94 306 114 132 94 210 b 118 540 94 383 102 461 b 188 763 134 618 157 692 b 315 936 218 834 260 892 b 500 1003 369 981 431 1003 b 686 912 585 1003 647 972 b 744 678 725 851 744 773 b 721 444 744 600 737 522 b 651 220 705 366 682 291 b 524 47 620 149 577 92 b 340 -19 470 3 409 -19 m 497 957 b 310 860 427 957 364 925 b 187 618 255 795 214 714 b 146 314 159 522 146 420 b 155 208 146 275 149 240 b 185 117 161 176 171 145 b 247 50 200 88 220 66 b 342 26 273 34 305 26 b 529 123 412 26 475 59 b 651 364 584 187 625 268 b 692 668 678 460 692 562 b 497 957 692 861 627 957 "},"1":{"ha":786,"x_min":0,"x_max":0,"o":"m 340 0 l 503 921 l 290 771 l 265 810 l 517 983 l 565 983 l 392 0 "},"2":{"ha":786,"x_min":0,"x_max":0,"o":"m 22 0 l 33 57 l 464 460 b 623 638 540 530 593 589 b 669 786 653 686 669 735 b 613 912 669 839 651 881 b 475 958 576 943 530 958 b 328 913 419 958 370 943 b 231 789 285 883 253 842 l 183 801 b 298 949 208 864 247 914 b 476 1003 349 985 409 1003 b 652 945 547 1003 605 984 b 722 789 699 907 722 855 b 672 615 722 721 705 663 b 489 418 638 566 577 500 l 92 47 l 617 47 l 607 0 "},"3":{"ha":786,"x_min":0,"x_max":0,"o":"m 324 -19 b 153 26 259 -19 202 -4 b 51 150 104 57 70 98 l 99 171 b 185 65 116 125 145 90 b 326 26 226 39 273 26 b 525 103 410 26 476 52 b 599 288 574 154 599 215 b 531 441 599 354 576 405 b 361 494 485 477 429 494 l 326 494 l 335 539 l 368 539 b 575 608 456 539 525 562 b 650 786 625 653 650 713 b 595 910 650 836 632 877 b 461 958 559 942 514 958 b 254 851 376 958 307 923 l 214 876 b 463 1003 278 961 361 1003 b 633 942 531 1003 588 983 b 700 788 678 902 700 850 b 641 613 700 720 680 662 b 465 517 602 563 543 531 l 465 514 b 601 437 522 504 567 478 b 651 292 634 396 651 347 b 565 72 651 206 623 132 b 324 -19 508 11 427 -19 "},"4":{"ha":786,"x_min":0,"x_max":0,"o":"m 550 250 l 506 0 l 456 0 l 499 250 l 39 250 l 50 307 l 603 983 l 679 983 l 557 296 l 715 296 l 707 250 m 618 925 l 614 925 l 100 296 l 507 296 "},"5":{"ha":786,"x_min":0,"x_max":0,"o":"m 321 -19 b 159 20 259 -19 205 -6 b 54 126 113 47 78 82 l 100 153 b 187 60 119 114 147 83 b 319 26 226 38 270 26 b 535 117 409 26 481 57 b 617 340 590 178 617 252 b 553 503 617 406 596 460 b 383 567 511 545 455 567 b 189 515 313 567 248 550 l 279 983 l 722 983 l 714 938 l 319 938 l 249 579 b 393 610 294 600 342 610 b 594 535 476 610 544 585 b 671 349 645 485 671 423 b 577 87 671 245 640 158 b 321 -19 515 16 429 -19 "},"6":{"ha":786,"x_min":0,"x_max":0,"o":"m 129 244 b 190 89 129 183 149 131 b 349 25 230 46 283 25 b 556 112 434 25 503 54 b 636 321 609 170 636 239 b 578 476 636 383 617 435 b 422 539 539 518 487 539 b 213 453 339 539 269 510 b 129 244 157 395 129 326 m 76 246 b 108 384 76 293 87 339 b 210 543 128 429 163 482 l 551 983 l 615 983 l 253 525 l 256 522 b 429 582 305 562 363 582 b 615 511 505 582 567 558 b 688 325 663 464 688 402 b 592 80 688 228 656 146 b 346 -19 529 14 447 -19 b 151 54 266 -19 201 5 b 76 246 101 103 76 167 "},"7":{"ha":786,"x_min":0,"x_max":0,"o":"m 757 929 l 178 0 l 117 0 l 706 938 l 218 938 l 226 983 l 767 983 "},"8":{"ha":786,"x_min":0,"x_max":0,"o":"m 682 306 b 581 66 682 203 648 123 b 343 -19 513 9 434 -19 b 153 44 269 -19 206 2 b 75 222 101 86 75 145 b 147 420 75 299 99 365 b 335 528 195 475 258 511 l 335 531 b 233 605 289 545 255 570 b 199 722 210 640 199 679 b 282 924 199 804 226 871 b 483 1003 338 976 405 1003 b 658 944 555 1003 613 983 b 726 776 704 904 726 849 b 667 614 726 713 706 658 b 517 525 627 569 577 540 l 517 522 b 635 443 564 508 603 482 b 682 306 666 404 682 358 m 249 724 b 298 597 249 673 265 630 b 429 546 331 563 375 546 b 606 615 500 546 559 569 b 675 769 652 660 675 712 b 622 908 675 829 657 875 b 481 957 586 941 539 957 b 315 888 415 957 360 934 b 249 724 271 841 249 787 m 128 226 b 188 83 128 167 148 119 b 343 28 228 46 280 28 b 551 106 428 28 497 54 b 631 303 604 157 631 223 b 569 444 631 358 610 406 b 418 503 529 483 478 503 b 213 423 338 503 269 476 b 128 226 156 370 128 304 "},"9":{"ha":786,"x_min":0,"x_max":0,"o":"m 718 739 b 657 894 718 800 698 852 b 497 958 616 937 563 958 b 290 874 412 958 343 930 b 210 667 236 817 210 748 b 268 511 210 605 229 553 b 424 449 307 469 359 449 b 634 533 508 449 578 477 b 718 739 690 590 718 658 m 769 738 b 738 599 769 690 759 644 b 636 440 717 554 683 501 l 296 0 l 231 0 l 594 458 l 592 461 b 418 407 547 425 489 407 b 231 478 341 407 279 431 b 158 664 182 525 158 587 b 253 906 158 760 190 841 b 500 1003 317 970 399 1003 b 694 929 580 1003 644 978 b 769 738 744 880 769 816 "},"\u0000":{"ha":694,"x_min":0,"x_max":0,"o":""},"\r":{"ha":0,"x_min":0,"x_max":0,"o":""}," ":{"ha":347,"x_min":0,"x_max":0,"o":""},"!":{"ha":385,"x_min":0,"x_max":0,"o":"m 204 269 l 151 269 l 278 983 l 331 983 m 143 -8 b 113 3 131 -8 121 -4 b 100 36 104 11 100 22 b 115 72 100 50 105 62 b 149 88 124 82 136 88 b 178 76 161 88 171 84 b 190 43 186 68 190 57 b 176 7 190 29 186 17 b 143 -8 167 -3 156 -8 "},"\"":{"ha":560,"x_min":0,"x_max":0,"o":"m 207 664 l 264 983 l 311 983 l 254 664 m 407 664 l 464 983 l 511 983 l 454 664 "},"#":{"ha":767,"x_min":0,"x_max":0,"o":"m 592 622 l 511 364 l 660 364 l 653 322 l 499 322 l 401 0 l 357 0 l 454 322 l 232 322 l 135 0 l 90 0 l 189 322 l 38 322 l 44 364 l 201 364 l 282 622 l 129 622 l 136 664 l 294 664 l 393 983 l 438 983 l 339 664 l 561 664 l 660 983 l 704 983 l 606 664 l 751 664 l 744 622 m 326 622 l 246 364 l 467 364 l 547 622 "},"$":{"ha":786,"x_min":0,"x_max":0,"o":"m 431 525 b 610 426 509 495 569 462 b 671 272 650 389 671 338 b 581 66 671 190 641 121 b 335 -19 522 11 439 -18 l 318 -117 l 281 -117 l 297 -18 b 146 24 243 -14 192 0 b 43 115 100 48 65 78 l 85 144 b 172 65 103 114 132 88 b 306 26 211 43 256 30 l 386 489 b 219 577 313 514 257 543 b 161 724 180 611 161 660 b 253 922 161 806 192 872 b 476 1003 314 972 388 999 l 493 1100 l 531 1100 l 514 1003 b 663 967 570 1001 620 989 b 760 886 706 946 738 919 l 719 856 b 636 927 704 884 676 908 b 506 957 596 946 553 956 m 343 25 b 542 93 425 27 491 50 b 619 268 594 137 619 195 b 569 394 619 321 603 363 b 421 475 535 425 486 452 m 468 958 b 290 893 401 954 342 932 b 213 729 238 854 213 800 b 256 611 213 676 227 637 b 394 538 284 585 331 561 l 468 958 "},"%":{"ha":1144,"x_min":0,"x_max":0,"o":"m 336 544 b 192 597 275 544 227 562 b 139 732 156 632 139 677 b 208 917 139 804 162 866 b 388 994 255 969 314 994 b 532 942 449 994 497 977 b 585 806 567 906 585 861 b 515 621 585 733 562 672 b 336 544 469 570 409 544 m 538 801 b 497 910 538 845 524 881 b 383 954 470 940 432 954 b 242 890 326 954 279 933 b 186 736 205 847 186 795 b 226 627 186 692 199 655 b 339 585 252 599 290 585 b 482 649 397 585 445 606 b 538 801 519 691 538 742 m 975 1024 l 1010 1001 l 211 -39 l 176 -17 m 621 176 b 690 362 621 249 644 310 b 869 439 737 413 796 439 b 1013 386 931 439 978 421 b 1065 250 1048 351 1065 306 b 997 65 1065 178 1042 116 b 818 -11 951 14 891 -11 b 674 42 757 -11 709 6 b 621 176 638 77 621 122 m 1019 247 b 979 356 1019 291 1006 327 b 865 399 952 384 914 399 b 724 334 808 399 761 377 b 668 182 687 291 668 240 b 708 73 668 138 681 101 b 821 31 734 45 772 31 b 964 94 879 31 927 52 b 1019 247 1001 137 1019 188 "},"&":{"ha":978,"x_min":0,"x_max":0,"o":"m 785 0 l 658 164 b 506 24 608 101 558 54 b 333 -22 455 -7 397 -22 b 148 40 260 -22 198 -1 b 72 221 97 82 72 142 b 365 549 72 360 170 469 b 272 765 303 629 272 701 b 341 940 272 837 295 895 b 513 1008 387 986 444 1008 b 658 956 572 1008 620 991 b 714 821 695 920 714 875 b 649 660 714 759 692 705 b 436 532 605 614 534 572 l 660 242 l 851 518 l 913 518 l 689 206 l 850 0 m 661 817 b 619 924 661 860 647 896 b 513 967 592 953 556 967 b 381 914 463 967 419 949 b 322 769 342 879 322 831 b 413 565 322 712 352 644 b 601 675 498 600 560 637 b 661 817 641 713 661 760 m 390 513 b 125 222 213 444 125 347 b 186 75 125 159 145 110 b 336 22 227 40 277 22 b 629 200 443 22 540 81 "},"'":{"ha":358,"x_min":0,"x_max":0,"o":"m 207 664 l 264 983 l 311 983 l 254 664 "},"(":{"ha":417,"x_min":0,"x_max":0,"o":"m 428 994 b 214 647 344 903 272 787 b 126 210 156 507 126 362 b 215 -196 126 50 156 -86 l 174 -218 b 76 207 109 -99 76 43 b 158 636 76 350 103 493 b 389 1018 212 780 289 907 "},")":{"ha":417,"x_min":0,"x_max":0,"o":"m 6 -194 b 219 154 90 -102 161 14 b 307 590 278 294 307 439 b 218 996 307 750 277 886 l 258 1018 b 356 593 323 899 356 757 b 274 163 356 450 328 306 b 43 -218 220 20 143 -107 "},"*":{"ha":617,"x_min":0,"x_max":0,"o":"m 594 826 l 608 789 l 388 721 l 525 531 l 493 507 l 356 700 l 218 507 l 186 531 l 325 721 l 103 789 l 117 826 l 335 757 l 335 983 l 376 983 l 376 757 "},"+":{"ha":925,"x_min":0,"x_max":0,"o":"m 488 83 l 442 83 l 442 400 l 129 400 l 129 444 l 442 444 l 442 761 l 488 761 l 488 444 l 796 444 l 796 400 l 488 400 "},",":{"ha":342,"x_min":0,"x_max":0,"o":"m 33 -193 l -8 -193 l 132 128 l 186 128 "},"-":{"ha":425,"x_min":0,"x_max":0,"o":"m 74 326 l 82 369 l 351 369 l 343 326 "},".":{"ha":342,"x_min":0,"x_max":0,"o":"m 111 -8 b 81 3 99 -8 89 -4 b 68 36 72 11 68 22 b 82 72 68 50 73 62 b 115 88 91 82 102 88 b 146 76 127 88 138 84 b 158 43 154 68 158 57 b 144 7 158 29 154 17 b 111 -8 135 -3 124 -8 "},"/":{"ha":514,"x_min":0,"x_max":0,"o":"m 1 -22 l -39 -7 l 567 1011 l 606 996 "},":":{"ha":397,"x_min":0,"x_max":0,"o":"m 142 -8 b 111 3 130 -8 119 -4 b 99 36 103 11 99 22 b 113 72 99 50 103 62 b 147 88 123 82 134 88 b 177 76 159 88 169 84 b 189 43 185 68 189 57 b 175 7 189 29 184 17 b 142 -8 166 -3 155 -8 m 231 550 b 200 562 219 550 208 554 b 188 594 192 570 188 581 b 202 629 188 607 192 619 b 235 644 212 639 223 644 b 265 633 247 644 257 641 b 278 601 274 625 278 614 b 264 565 278 588 273 575 b 231 550 255 555 244 550 "},";":{"ha":397,"x_min":0,"x_max":0,"o":"m 50 -193 l 7 -193 l 147 128 l 201 128 m 231 550 b 200 562 219 550 208 554 b 188 594 192 570 188 581 b 202 629 188 607 192 619 b 235 644 212 639 223 644 b 265 633 247 644 257 641 b 278 601 274 625 278 614 b 264 565 278 588 273 575 b 231 550 255 555 244 550 "},"<":{"ha":925,"x_min":0,"x_max":0,"o":"m 129 400 l 129 442 l 796 760 l 796 714 l 176 421 l 796 128 l 796 82 "},"=":{"ha":925,"x_min":0,"x_max":0,"o":"m 129 514 l 129 558 l 796 558 l 796 514 m 129 286 l 129 329 l 796 329 l 796 286 "},">":{"ha":925,"x_min":0,"x_max":0,"o":"m 129 128 l 749 421 l 129 714 l 129 760 l 796 442 l 796 400 l 129 82 "},"?":{"ha":660,"x_min":0,"x_max":0,"o":"m 338 275 l 288 275 l 301 351 b 433 549 312 424 356 489 l 485 588 b 611 790 569 650 611 718 b 563 915 611 844 595 885 b 436 958 530 944 488 958 b 285 908 376 958 326 942 b 199 775 245 875 216 831 l 151 786 b 259 947 173 855 209 908 b 436 1006 309 986 369 1006 b 599 951 502 1006 556 987 b 663 793 641 914 663 862 b 619 653 663 738 648 692 b 499 540 590 615 550 577 b 389 443 446 502 409 470 b 347 333 369 416 355 380 m 285 -8 b 242 36 256 -8 242 6 b 256 72 242 50 246 62 b 289 88 265 82 276 88 b 319 76 301 88 311 84 b 332 43 328 68 332 57 b 318 7 332 29 327 17 b 285 -8 309 -3 298 -8 "},"@":{"ha":1111,"x_min":0,"x_max":0,"o":"m 781 222 b 704 246 750 222 725 230 b 674 311 684 262 674 283 b 679 344 674 322 675 333 l 676 344 b 596 261 659 315 632 287 b 475 222 560 235 519 222 b 363 265 424 222 387 237 b 326 375 338 294 326 331 b 366 540 326 426 340 481 b 485 698 392 600 432 652 b 661 767 539 744 597 767 b 752 735 698 767 728 756 b 790 653 776 715 788 687 l 796 653 l 835 743 l 882 743 l 746 435 b 715 325 725 388 715 352 b 790 265 715 285 740 265 b 976 372 862 265 923 301 b 1054 633 1028 442 1054 530 b 947 872 1054 731 1019 810 b 675 965 876 934 785 965 b 396 887 573 965 480 939 b 200 682 312 834 246 766 b 131 413 154 598 131 508 b 247 126 131 295 169 200 b 549 17 324 53 425 17 b 949 181 701 17 835 71 l 976 149 b 544 -26 852 32 708 -26 b 208 94 406 -26 293 14 b 79 407 122 175 79 279 b 252 833 79 574 137 716 b 676 1010 367 951 509 1010 b 983 907 800 1010 903 975 b 1103 638 1063 838 1103 749 b 1011 342 1103 520 1072 421 b 781 222 950 262 873 222 m 758 611 b 656 721 758 684 724 721 b 463 604 582 721 518 682 b 379 378 407 526 379 451 b 483 267 379 304 414 267 b 621 332 531 267 576 288 b 723 476 665 375 699 424 b 758 611 747 529 758 574 "},"A":{"ha":906,"x_min":0,"x_max":0,"o":"m 768 0 l 717 275 l 178 275 l 4 0 l -57 0 l 575 983 l 636 983 l 821 0 m 597 935 l 207 321 l 708 321 "},"B":{"ha":847,"x_min":0,"x_max":0,"o":"m 81 0 l 254 983 l 515 983 b 711 930 592 983 657 966 b 792 771 765 894 792 841 b 731 606 792 704 771 649 b 557 518 690 562 632 533 l 557 515 b 695 447 610 508 656 485 b 754 296 734 408 754 358 b 648 75 754 199 719 125 b 372 0 577 25 485 0 m 739 763 b 672 894 739 820 717 864 b 503 939 628 924 571 939 l 297 939 l 226 538 l 444 538 b 656 595 530 538 600 557 b 739 763 711 634 739 689 m 703 294 b 633 442 703 357 680 406 b 464 494 587 477 531 494 l 219 494 l 140 44 l 368 44 b 613 109 471 44 552 66 b 703 294 673 152 703 214 "},"C":{"ha":1004,"x_min":0,"x_max":0,"o":"m 901 117 b 550 -26 804 21 687 -26 b 226 91 410 -26 302 13 b 111 399 149 169 111 272 b 186 701 111 507 136 608 b 396 925 236 794 306 869 b 692 1010 486 981 584 1010 b 874 974 757 1010 818 998 b 1004 872 930 950 974 916 l 964 840 b 689 964 900 923 808 964 b 317 796 542 964 418 908 b 165 406 216 684 165 554 b 264 128 165 293 198 200 b 551 19 330 56 425 19 b 869 150 675 19 781 63 "},"D":{"ha":1068,"x_min":0,"x_max":0,"o":"m 81 0 l 254 983 l 525 983 b 858 876 658 983 769 947 b 992 574 947 804 992 703 b 906 254 992 449 963 342 b 681 61 848 166 773 102 b 365 0 588 20 483 0 m 299 938 l 142 46 l 367 46 b 778 183 535 46 672 92 b 938 569 884 275 938 404 b 823 839 938 683 899 773 b 514 938 747 905 644 938 "},"E":{"ha":801,"x_min":0,"x_max":0,"o":"m 81 0 l 254 983 l 814 983 l 806 938 l 296 938 l 225 533 l 714 533 l 706 488 l 217 488 l 140 46 l 689 46 l 681 0 "},"F":{"ha":754,"x_min":0,"x_max":0,"o":"m 297 938 l 225 532 l 689 532 l 682 488 l 218 488 l 132 0 l 81 0 l 254 983 l 799 983 l 790 938 "},"G":{"ha":1069,"x_min":0,"x_max":0,"o":"m 547 -26 b 224 90 407 -26 300 13 b 111 399 149 168 111 271 b 186 700 111 506 136 606 b 394 925 236 794 306 869 b 688 1010 483 981 581 1010 b 875 974 755 1010 818 998 b 1007 874 932 951 976 917 l 964 840 b 849 931 938 878 900 908 b 685 964 798 953 743 964 b 316 795 539 964 416 908 b 165 406 216 683 165 553 b 263 128 165 293 198 200 b 549 19 327 56 423 19 b 849 90 668 19 768 43 l 911 450 l 664 450 l 672 494 l 971 494 l 893 61 b 547 -26 799 3 683 -26 "},"H":{"ha":994,"x_min":0,"x_max":0,"o":"m 739 0 l 825 486 l 218 486 l 132 0 l 81 0 l 254 983 l 306 983 l 225 532 l 832 532 l 913 983 l 964 983 l 790 0 "},"I":{"ha":336,"x_min":0,"x_max":0,"o":"m 81 0 l 254 983 l 306 983 l 132 0 "},"J":{"ha":668,"x_min":0,"x_max":0,"o":"m 518 272 b 226 -25 483 74 386 -25 b 76 22 166 -25 116 -9 b 1 140 37 54 12 93 l 47 158 b 111 58 58 117 80 83 b 226 21 143 33 181 21 b 390 89 298 21 352 44 b 468 278 427 134 453 197 l 592 983 l 643 983 "},"K":{"ha":758,"x_min":0,"x_max":0,"o":"m 228 538 l 761 983 l 836 983 l 288 529 l 710 0 l 643 0 l 226 528 l 132 0 l 81 0 l 254 983 l 306 983 l 226 538 "},"L":{"ha":697,"x_min":0,"x_max":0,"o":"m 81 0 l 254 983 l 306 983 l 140 46 l 619 46 l 613 0 "},"M":{"ha":1244,"x_min":0,"x_max":0,"o":"m 989 0 l 1150 918 l 1146 918 l 576 0 l 543 0 l 297 918 l 293 918 l 132 0 l 81 0 l 254 983 l 333 983 l 574 83 l 1128 983 l 1214 983 l 1040 0 "},"N":{"ha":1040,"x_min":0,"x_max":0,"o":"m 768 0 l 297 919 l 294 919 l 132 0 l 81 0 l 254 983 l 321 983 l 793 68 l 796 68 l 957 983 l 1008 983 l 835 0 "},"O":{"ha":1194,"x_min":0,"x_max":0,"o":"m 1064 574 b 964 854 1064 687 1031 781 b 676 964 897 927 801 964 b 409 884 577 964 488 937 b 228 678 330 831 269 762 b 165 408 186 595 165 505 b 265 128 165 294 199 201 b 554 19 332 56 428 19 b 821 98 653 19 742 46 b 1001 302 900 150 960 218 b 1064 574 1043 386 1064 476 m 111 406 b 272 832 111 571 165 713 b 678 1010 378 950 514 1010 b 1001 890 816 1010 924 970 b 1118 576 1079 809 1118 705 b 1048 278 1118 469 1095 369 b 847 57 1001 186 934 113 b 553 -26 760 1 662 -26 b 228 93 414 -26 306 13 b 111 406 150 173 111 277 "},"P":{"ha":786,"x_min":0,"x_max":0,"o":"m 215 475 l 132 0 l 81 0 l 254 983 l 507 983 b 706 928 588 983 654 965 b 783 760 757 891 783 835 b 693 554 783 675 753 607 b 436 475 633 501 547 475 m 732 757 b 668 894 732 819 711 865 b 510 939 625 924 573 939 l 297 939 l 224 518 l 443 518 b 656 582 535 518 606 539 b 732 757 707 625 732 683 "},"Q":{"ha":1206,"x_min":0,"x_max":0,"o":"m 556 0 b 229 110 416 0 307 37 b 113 413 151 184 113 285 b 182 707 113 518 136 616 b 383 926 228 798 295 871 b 676 1010 470 982 568 1010 b 1000 890 814 1010 922 970 b 1117 579 1078 809 1117 706 b 1018 249 1117 458 1084 348 b 754 49 952 151 864 84 l 754 46 l 1103 46 l 1094 0 l 556 0 m 558 46 b 919 202 703 46 823 98 b 1064 572 1016 306 1064 430 b 963 853 1064 685 1030 779 b 675 964 896 927 800 964 b 408 885 576 964 487 938 b 227 681 328 832 268 764 b 165 418 186 598 165 511 b 266 147 165 304 199 214 b 558 46 333 79 431 46 "},"R":{"ha":828,"x_min":0,"x_max":0,"o":"m 650 0 l 431 485 l 218 485 l 132 0 l 81 0 l 254 983 l 494 983 b 700 931 576 983 644 966 b 783 767 756 895 783 841 b 765 656 783 725 777 688 b 717 577 752 623 736 597 b 647 528 697 557 674 541 b 566 500 619 515 592 506 b 483 489 540 494 512 491 l 707 0 m 731 761 b 661 896 731 822 707 867 b 482 939 615 925 555 939 l 297 939 l 225 529 l 433 529 b 731 761 631 529 731 606 "},"S":{"ha":789,"x_min":0,"x_max":0,"o":"m 724 860 b 493 964 671 929 594 964 b 298 901 421 964 356 943 b 211 732 240 860 211 803 b 260 608 211 676 227 635 b 415 531 292 580 344 555 b 608 431 500 503 564 470 b 674 271 652 393 674 339 b 582 58 674 185 643 114 b 329 -26 521 2 437 -26 b 40 108 198 -26 101 19 l 81 139 b 336 19 140 59 225 19 b 542 88 420 19 489 42 b 621 265 594 134 621 193 b 560 403 621 325 601 372 b 379 490 520 435 460 464 b 210 582 301 515 245 546 b 157 726 175 618 157 666 b 256 933 157 813 190 882 b 497 1010 322 984 403 1010 b 660 977 560 1010 615 999 b 763 892 706 955 740 927 "},"T":{"ha":729,"x_min":0,"x_max":0,"o":"m 492 938 l 326 0 l 275 0 l 439 938 l 103 938 l 111 983 l 829 983 l 821 938 "},"U":{"ha":992,"x_min":0,"x_max":0,"o":"m 867 371 b 826 221 856 314 843 264 b 755 97 809 177 785 136 b 634 6 725 57 684 27 b 457 -26 584 -16 525 -26 b 211 56 349 -26 267 1 b 128 283 156 110 128 186 b 138 388 128 318 131 352 l 243 983 l 294 983 l 189 382 b 181 290 183 351 181 321 b 248 94 181 210 203 144 b 457 19 293 44 363 19 b 619 51 520 19 574 30 b 726 139 665 72 700 101 b 785 251 752 177 772 214 b 817 378 798 287 808 330 l 924 983 l 975 983 "},"V":{"ha":822,"x_min":0,"x_max":0,"o":"m 356 0 l 292 0 l 131 983 l 185 983 l 332 60 l 335 60 l 881 983 l 939 983 "},"W":{"ha":1317,"x_min":0,"x_max":0,"o":"m 919 0 l 850 0 l 771 919 l 768 919 l 304 0 l 235 0 l 147 983 l 201 983 l 279 63 l 283 63 l 744 983 l 814 983 l 894 63 l 899 63 l 1361 983 l 1418 983 "},"X":{"ha":813,"x_min":0,"x_max":0,"o":"m 658 0 l 428 474 l 24 0 l -46 0 l 401 515 l 169 983 l 229 983 l 438 554 l 804 983 l 871 983 l 464 513 l 719 0 "},"Y":{"ha":732,"x_min":0,"x_max":0,"o":"m 392 428 l 317 0 l 265 0 l 340 428 l 108 983 l 167 983 l 374 475 l 788 983 l 851 983 "},"Z":{"ha":815,"x_min":0,"x_max":0,"o":"m 3 0 l 11 51 l 793 938 l 188 938 l 196 983 l 861 983 l 851 929 l 71 46 l 708 46 l 700 0 "},"[":{"ha":417,"x_min":0,"x_max":0,"o":"m 1 -217 l 219 1017 l 424 1017 l 417 975 l 263 975 l 58 -175 l 214 -175 l 206 -217 "},"\\":{"ha":514,"x_min":0,"x_max":0,"o":"m 67 1011 l 492 -7 l 449 -22 l 24 996 "},"]":{"ha":417,"x_min":0,"x_max":0,"o":"m 19 -175 l 174 -175 l 376 975 l 222 975 l 229 1017 l 432 1017 l 214 -217 l 11 -217 "},"^":{"ha":925,"x_min":0,"x_max":0,"o":"m 440 983 l 485 983 l 797 350 l 751 350 l 463 940 l 174 350 l 128 350 "},"_":{"ha":694,"x_min":0,"x_max":0,"o":"m 0 -162 l 0 -122 l 694 -122 l 694 -162 "},"`":{"ha":333,"x_min":0,"x_max":0,"o":"m 160 983 l 304 783 l 261 783 l 96 983 "},"a":{"ha":721,"x_min":0,"x_max":0,"o":"m 557 144 b 543 0 548 91 543 43 l 497 0 b 513 138 497 37 502 83 l 508 138 b 256 -17 452 35 368 -17 b 116 23 204 -17 157 -3 b 54 149 75 49 54 91 b 93 268 54 196 67 236 b 207 340 119 300 157 325 b 363 373 257 356 309 367 b 553 382 416 379 480 382 b 563 463 559 414 563 441 b 390 618 563 566 505 618 b 190 546 325 618 258 594 l 165 578 b 394 661 234 633 310 661 b 553 612 461 661 514 645 b 611 471 592 579 611 532 b 604 401 611 455 609 432 m 546 342 l 511 342 b 104 156 240 342 104 280 b 151 56 104 109 120 76 b 265 25 183 35 221 25 b 444 103 338 25 398 51 b 536 293 491 156 521 219 "},"b":{"ha":868,"x_min":0,"x_max":0,"o":"m 217 496 b 328 615 241 544 278 584 b 493 661 378 646 433 661 b 704 583 584 661 654 635 b 779 378 754 530 779 462 b 677 98 779 269 745 175 b 414 -18 609 21 521 -18 b 250 30 352 -18 297 -2 b 157 157 203 62 172 104 l 153 157 l 126 0 l 76 0 l 261 1050 l 311 1050 l 213 496 m 485 618 b 266 511 400 618 327 582 b 175 264 205 440 175 357 b 240 92 175 195 197 138 b 410 24 284 47 340 24 b 639 127 503 24 580 58 b 728 375 698 196 728 279 b 665 550 728 446 707 505 b 485 618 622 595 563 618 "},"c":{"ha":664,"x_min":0,"x_max":0,"o":"m 597 74 b 360 -22 531 10 451 -22 b 147 56 267 -22 196 4 b 72 258 97 107 72 175 b 181 542 72 368 108 462 b 451 661 253 621 343 661 b 665 569 550 661 622 631 l 628 539 b 555 597 611 564 587 583 b 453 618 523 611 489 618 b 218 512 359 618 281 583 b 124 263 155 441 124 358 b 186 90 124 192 144 134 b 364 22 228 45 287 22 b 568 104 447 22 515 50 l 597 74 "},"d":{"ha":860,"x_min":0,"x_max":0,"o":"m 360 -18 b 147 60 268 -18 197 8 b 71 265 96 113 71 181 b 174 544 71 374 105 467 b 440 661 243 622 332 661 b 599 613 500 661 553 645 b 692 486 645 581 676 539 l 696 486 l 793 1050 l 843 1050 l 658 0 l 608 0 l 636 146 l 633 146 b 523 28 608 98 572 58 b 360 -18 474 -3 420 -18 m 364 24 b 583 131 449 24 522 59 b 674 378 643 202 674 284 b 609 549 674 446 652 503 b 439 618 566 595 509 618 b 210 515 345 618 269 584 b 121 268 150 447 121 364 b 184 93 121 198 142 139 b 364 24 226 47 286 24 "},"e":{"ha":774,"x_min":0,"x_max":0,"o":"m 124 318 b 121 275 122 298 121 283 b 188 92 121 197 143 136 b 368 25 232 47 292 25 b 604 138 462 25 540 63 l 636 111 b 365 -18 566 25 475 -18 b 150 60 275 -18 203 8 b 71 271 97 113 71 183 b 176 545 71 376 106 468 b 439 661 246 622 333 661 b 631 591 523 661 587 638 b 696 408 674 544 696 483 b 686 318 696 378 693 348 m 643 358 b 647 413 646 377 647 395 b 592 562 647 475 629 524 b 438 618 555 599 503 618 b 232 538 355 618 287 591 b 131 358 177 485 144 425 l 643 358 "},"f":{"ha":397,"x_min":0,"x_max":0,"o":"m 511 1017 b 453 1024 493 1021 473 1024 b 301 853 371 1024 321 967 l 264 642 l 432 642 l 425 600 l 258 600 l 151 0 l 103 0 l 208 600 l 72 600 l 81 642 l 214 642 l 251 856 b 324 1015 263 927 288 980 b 456 1067 360 1049 404 1067 b 522 1058 481 1067 503 1064 "},"g":{"ha":861,"x_min":0,"x_max":0,"o":"m 640 153 b 527 31 613 102 576 61 b 364 -14 478 1 424 -14 b 152 66 273 -14 203 13 b 76 271 102 119 76 188 b 180 547 76 378 111 470 b 444 661 249 623 337 661 b 605 613 506 661 559 645 b 696 485 651 580 681 538 l 700 485 l 728 642 l 776 642 l 668 26 b 632 -110 659 -25 647 -71 b 570 -226 617 -150 597 -188 b 463 -312 544 -263 508 -292 b 304 -343 418 -333 365 -343 b 25 -219 183 -343 90 -302 l 58 -189 b 304 -299 122 -262 204 -299 b 438 -273 355 -299 400 -290 b 531 -199 477 -256 507 -231 b 585 -97 554 -166 572 -132 b 619 28 599 -61 610 -19 l 643 153 m 371 29 b 590 135 457 29 530 64 b 679 379 649 205 679 287 b 615 549 679 447 658 503 b 444 618 572 595 515 618 b 215 517 351 618 275 584 b 126 272 156 450 126 369 b 190 98 126 202 148 144 b 371 29 233 52 293 29 "},"h":{"ha":790,"x_min":0,"x_max":0,"o":"m 217 500 b 322 619 244 552 279 592 b 464 661 366 647 413 661 b 617 602 531 661 581 641 b 669 443 652 563 669 510 b 663 365 669 421 667 395 l 597 0 l 547 0 l 614 374 b 619 439 618 392 619 414 b 580 567 619 491 606 534 b 454 618 553 601 512 618 b 281 535 390 618 333 590 b 178 297 230 479 195 400 l 125 0 l 75 0 l 260 1050 l 310 1050 l 214 500 "},"i":{"ha":324,"x_min":0,"x_max":0,"o":"m 75 0 l 189 642 l 239 642 l 125 0 m 251 865 b 211 907 225 865 211 879 b 224 940 211 920 216 931 b 256 954 233 950 244 954 b 283 943 267 954 276 950 b 294 914 291 936 294 926 b 282 880 294 901 290 890 b 251 865 274 870 263 865 "},"j":{"ha":325,"x_min":0,"x_max":0,"o":"m 103 -133 b 44 -281 91 -196 71 -246 b -87 -335 16 -317 -27 -335 b -139 -328 -105 -335 -122 -332 l -131 -286 b -89 -292 -112 -290 -98 -292 b 12 -249 -42 -292 -8 -278 b 54 -131 32 -221 46 -181 l 189 642 l 239 642 l 103 -133 m 251 865 b 211 907 225 865 211 879 b 224 940 211 920 216 931 b 256 954 233 950 244 954 b 283 943 267 954 276 950 b 294 914 291 936 294 926 b 282 880 294 901 290 890 b 251 865 274 870 263 865 "},"k":{"ha":628,"x_min":0,"x_max":0,"o":"m 190 349 l 554 642 l 626 642 l 247 343 l 557 0 l 489 0 l 189 339 l 186 339 l 126 0 l 76 0 l 261 1050 l 310 1050 l 188 349 "},"l":{"ha":325,"x_min":0,"x_max":0,"o":"m 76 0 l 261 1050 l 311 1050 l 126 0 "},"m":{"ha":1228,"x_min":0,"x_max":0,"o":"m 161 486 b 182 642 171 545 178 597 l 231 642 b 210 492 228 609 221 559 l 213 492 b 453 661 267 605 347 661 b 590 613 509 661 555 645 b 646 483 624 580 643 537 l 649 483 b 754 615 675 541 710 585 b 900 661 799 646 847 661 b 1053 601 967 661 1018 641 b 1106 442 1088 562 1106 508 b 1099 368 1106 422 1103 398 l 1033 0 l 983 0 l 1050 374 b 1056 436 1054 392 1056 413 b 1016 567 1056 489 1042 532 b 892 618 990 601 948 618 b 725 540 825 618 769 592 b 635 328 681 487 650 417 l 576 0 l 526 0 l 594 382 b 600 443 598 408 600 428 b 562 569 600 494 587 536 b 442 618 536 602 496 618 b 275 531 380 618 324 589 b 172 271 226 472 192 386 l 125 0 l 75 0 "},"n":{"ha":790,"x_min":0,"x_max":0,"o":"m 464 661 b 617 602 531 661 581 641 b 669 443 652 563 669 510 b 663 365 669 421 667 395 l 597 0 l 547 0 l 614 374 b 619 440 618 392 619 414 b 580 568 619 492 606 535 b 454 618 553 601 512 618 b 281 535 390 618 333 590 b 178 297 230 479 195 400 l 125 0 l 75 0 l 161 486 b 182 642 171 545 178 597 l 231 642 b 210 492 228 609 221 559 l 213 492 b 319 617 239 545 275 587 b 464 661 364 646 412 661 "},"o":{"ha":829,"x_min":0,"x_max":0,"o":"m 690 374 b 626 548 690 444 669 502 b 442 617 583 594 521 617 b 212 514 348 617 272 582 b 122 269 152 445 122 364 b 186 94 122 198 144 140 b 369 25 229 48 290 25 b 600 128 463 25 540 59 b 690 374 660 196 690 278 m 71 267 b 176 544 71 374 106 467 b 444 661 246 622 335 661 b 663 581 537 661 610 634 b 742 376 715 528 742 460 b 638 97 742 267 707 174 b 368 -18 568 20 478 -18 b 149 61 275 -18 202 8 b 71 267 97 114 71 182 "},"p":{"ha":868,"x_min":0,"x_max":0,"o":"m 67 -333 l 18 -333 l 190 642 l 239 642 l 213 496 l 217 496 b 328 615 242 544 279 584 b 493 661 378 646 433 661 b 704 583 584 661 654 635 b 779 378 754 530 779 462 b 677 98 779 269 745 175 b 414 -18 609 21 521 -18 b 251 30 352 -18 297 -2 b 157 157 204 62 173 104 l 153 157 m 485 618 b 267 512 400 618 327 583 b 176 264 206 441 176 358 b 241 92 176 195 198 138 b 410 24 284 47 340 24 b 639 127 503 24 580 58 b 728 375 698 196 728 279 b 665 550 728 446 707 505 b 485 618 622 595 563 618 "},"q":{"ha":858,"x_min":0,"x_max":0,"o":"m 722 642 l 772 642 l 601 -333 l 551 -333 l 636 146 l 633 146 b 523 28 609 98 572 58 b 358 -18 473 -3 419 -18 b 146 60 267 -18 196 8 b 71 265 96 113 71 181 b 174 545 71 375 105 468 b 439 661 242 622 331 661 b 599 613 500 661 553 645 b 692 486 645 581 676 539 l 696 486 m 364 24 b 583 132 449 24 522 60 b 674 379 643 204 674 287 b 609 550 674 448 652 505 b 439 618 566 595 509 618 b 210 515 345 618 269 584 b 121 268 150 447 121 364 b 184 93 121 198 142 139 b 364 24 226 47 286 24 "},"r":{"ha":446,"x_min":0,"x_max":0,"o":"m 213 492 b 449 661 268 605 347 661 b 485 658 462 661 474 660 l 475 613 b 442 615 464 614 453 615 b 271 530 373 615 316 587 b 179 306 225 473 195 398 l 125 0 l 75 0 l 161 486 b 182 642 171 545 178 597 l 231 642 b 210 492 228 609 221 559 l 213 492 "},"s":{"ha":575,"x_min":0,"x_max":0,"o":"m 58 111 b 238 26 104 55 163 26 b 368 68 290 26 334 40 b 419 175 402 96 419 131 b 383 260 419 210 407 239 b 258 317 358 282 317 301 b 104 472 156 344 104 396 b 172 611 104 531 127 578 b 333 661 218 644 271 661 b 451 638 378 661 417 653 b 526 575 486 622 511 601 l 490 549 b 333 618 455 595 403 618 b 206 581 282 618 240 606 b 154 476 171 557 154 522 b 186 401 154 443 165 418 b 289 356 207 384 242 369 b 427 287 353 338 399 315 b 469 179 455 259 469 223 b 403 37 469 120 447 72 b 239 -17 359 1 305 -17 b 21 81 143 -17 70 16 "},"t":{"ha":413,"x_min":0,"x_max":0,"o":"m 236 -14 b 144 15 197 -14 166 -4 b 110 100 121 34 110 62 b 115 156 110 117 112 135 l 194 600 l 51 600 l 58 642 l 200 642 l 233 829 l 283 829 l 250 642 l 426 642 l 419 600 l 243 600 l 165 161 b 161 110 163 146 161 129 b 253 29 161 56 192 29 b 325 43 278 29 302 34 l 322 3 b 236 -14 295 -8 267 -14 "},"u":{"ha":790,"x_min":0,"x_max":0,"o":"m 304 -18 b 151 41 238 -18 187 2 b 99 199 116 80 99 133 b 106 272 99 218 101 243 l 171 642 l 221 642 l 154 268 b 147 203 150 243 147 221 b 187 74 147 150 160 107 b 314 24 213 40 256 24 b 488 106 380 24 438 51 b 592 346 539 161 573 241 l 643 642 l 693 642 l 607 156 b 586 0 596 95 589 44 l 538 0 b 558 150 540 35 547 85 l 556 150 b 448 26 528 96 492 55 b 304 -18 404 -3 356 -18 "},"v":{"ha":617,"x_min":0,"x_max":0,"o":"m 257 0 l 199 0 l 75 642 l 126 642 l 235 51 l 238 51 l 583 642 l 639 642 "},"w":{"ha":979,"x_min":0,"x_max":0,"o":"m 668 0 l 610 0 l 531 581 l 528 581 l 213 0 l 154 0 l 96 642 l 147 642 l 193 58 l 196 58 l 513 642 l 569 642 l 647 58 l 650 58 l 940 642 l 994 642 "},"x":{"ha":621,"x_min":0,"x_max":0,"o":"m 294 304 l 15 0 l -49 0 l 271 340 l 106 642 l 161 642 l 306 369 l 553 642 l 617 642 l 331 335 l 522 0 l 464 0 "},"y":{"ha":618,"x_min":0,"x_max":0,"o":"m -18 -335 b -81 -326 -43 -335 -64 -332 l -72 -281 b -19 -290 -57 -287 -40 -290 b 67 -259 16 -290 44 -280 b 132 -169 89 -238 111 -208 l 219 -12 l 85 642 l 136 642 l 254 43 l 585 642 l 642 642 l 167 -197 b 85 -301 141 -244 114 -278 b -18 -335 57 -323 23 -335 "},"z":{"ha":603,"x_min":0,"x_max":0,"o":"m -6 0 l 0 40 l 510 600 l 122 600 l 129 642 l 581 642 l 572 600 l 65 43 l 489 43 l 482 0 "},"{":{"ha":417,"x_min":0,"x_max":0,"o":"m 156 -217 b 35 -97 75 -217 35 -177 b 38 -58 35 -81 36 -68 b 62 88 38 -57 46 -9 b 86 236 78 185 86 234 b 89 282 88 247 89 263 b 4 379 89 347 61 379 l 13 421 b 149 579 85 421 130 474 l 194 843 b 374 1017 214 959 274 1017 l 446 1017 l 439 975 l 374 975 b 243 838 302 975 259 929 l 197 574 b 145 450 188 518 171 477 b 64 401 120 423 93 407 l 64 399 b 140 281 115 389 140 350 b 138 240 140 272 139 259 b 113 94 138 238 129 190 b 89 -51 97 -2 89 -50 b 86 -89 87 -61 86 -73 b 169 -175 86 -146 114 -175 l 236 -175 l 228 -217 l 156 -217 "},"|":{"ha":308,"x_min":0,"x_max":0,"o":"m 176 1042 l 176 -347 l 129 -347 l 129 1042 "},"}":{"ha":417,"x_min":0,"x_max":0,"o":"m 421 379 b 286 221 350 379 305 326 l 240 -43 b 60 -217 221 -159 161 -217 l -12 -217 l -4 -175 l 63 -175 b 192 -37 133 -175 176 -129 l 238 226 b 289 351 247 282 264 323 b 371 399 314 378 341 394 l 371 401 b 294 519 320 411 294 450 b 297 560 294 526 295 539 b 322 706 297 561 306 609 b 347 851 339 802 347 850 b 350 886 349 868 350 880 b 265 975 350 945 322 975 l 200 975 l 206 1017 l 278 1017 b 400 897 359 1017 400 977 b 397 858 400 890 399 877 b 373 711 397 856 389 807 b 349 564 357 615 349 566 b 344 517 346 545 344 530 b 429 421 344 453 373 421 l 421 379 "},"~":{"ha":925,"x_min":0,"x_max":0,"o":"m 128 372 b 313 501 181 458 242 501 b 456 453 361 501 408 485 b 614 388 519 409 571 388 b 767 500 669 388 719 425 l 800 468 b 615 342 746 384 685 342 b 471 390 569 342 521 358 b 382 442 432 416 402 434 b 315 456 362 451 339 456 b 161 342 254 456 203 418 l 128 372 "}," ":{"ha":347,"x_min":0,"x_max":0,"o":""},"¡":{"ha":385,"x_min":0,"x_max":0,"o":"m 167 403 l 218 403 l 92 -311 l 40 -311 m 226 681 b 269 636 255 681 269 666 b 256 601 269 623 265 612 b 222 586 246 591 235 586 b 192 598 210 586 200 590 b 179 629 183 606 179 616 b 193 665 179 643 184 655 b 226 681 202 675 213 681 "},"¢":{"ha":786,"x_min":0,"x_max":0,"o":"m 488 750 l 529 750 l 513 660 b 703 569 601 653 665 623 l 664 539 b 506 618 631 587 579 613 l 401 21 b 604 104 483 23 550 50 l 633 74 b 394 -22 568 10 488 -22 l 379 -100 l 338 -100 l 351 -19 b 171 69 273 -11 213 18 b 108 258 129 119 108 182 b 211 535 108 364 143 456 b 471 661 280 615 366 656 m 465 618 b 247 505 378 613 306 575 b 160 263 189 435 160 354 b 211 101 160 199 177 145 b 361 25 245 58 295 32 l 465 618 "},"£":{"ha":786,"x_min":0,"x_max":0,"o":"m 567 533 l 558 490 l 322 490 l 246 44 l 604 44 l 596 0 l 38 0 l 46 44 l 194 44 l 271 490 l 136 490 l 144 533 l 278 533 l 308 704 b 599 1008 344 907 440 1008 b 771 946 672 1008 729 988 l 739 908 b 599 964 705 945 658 964 b 358 699 469 964 389 875 l 329 533 "},"€":{"ha":786,"x_min":0,"x_max":0,"o":"m 789 924 b 617 964 742 950 684 964 b 383 869 531 964 453 932 b 224 628 313 805 260 725 l 669 628 l 649 586 l 210 586 b 175 397 188 517 176 454 l 564 397 l 543 356 l 174 356 b 253 113 174 256 200 175 b 472 19 307 50 380 19 b 674 75 543 19 610 38 l 693 39 b 465 -26 627 -5 551 -26 b 211 84 355 -26 270 10 b 122 356 152 158 122 248 l 21 356 l 44 397 l 124 397 b 157 586 124 450 135 513 l 58 586 l 79 628 l 171 628 b 352 904 211 742 271 834 b 619 1010 433 975 522 1010 b 813 965 699 1010 763 995 "},"¥":{"ha":786,"x_min":0,"x_max":0,"o":"m 138 482 l 146 522 l 388 522 l 160 983 l 218 983 l 428 538 l 800 983 l 865 983 l 468 522 l 701 522 l 694 482 l 440 482 l 410 310 l 664 310 l 658 269 l 404 269 l 356 0 l 307 0 l 354 269 l 101 269 l 107 310 l 361 310 l 392 482 "},"Š":{"ha":789,"x_min":0,"x_max":0,"o":"m 724 860 b 493 964 671 929 594 964 b 298 901 421 964 356 943 b 211 732 240 860 211 803 b 260 608 211 676 227 635 b 415 531 292 580 344 555 b 608 431 500 503 564 470 b 674 271 652 393 674 339 b 582 58 674 185 643 114 b 329 -26 521 2 437 -26 b 40 108 198 -26 101 19 l 81 139 b 336 19 140 59 225 19 b 542 88 420 19 489 42 b 621 265 594 134 621 193 b 560 403 621 325 601 372 b 379 490 520 435 460 464 b 210 582 301 515 245 546 b 157 726 175 618 157 666 b 256 933 157 813 190 882 b 497 1010 322 984 403 1010 b 660 977 560 1010 615 999 b 763 892 706 955 740 927 m 474 1061 l 368 1261 l 415 1261 l 507 1088 l 667 1261 l 719 1261 l 536 1061 "},"§":{"ha":786,"x_min":0,"x_max":0,"o":"m 443 200 b 544 40 511 162 544 109 b 469 -130 544 -35 519 -91 b 276 -187 418 -168 354 -187 b 42 -79 176 -187 98 -151 l 85 -46 b 279 -143 130 -111 195 -143 b 431 -100 339 -143 390 -129 b 493 31 472 -71 493 -28 b 457 131 493 73 481 107 b 342 200 433 156 394 179 b 181 289 264 231 210 260 b 138 407 152 318 138 357 b 196 546 138 464 157 511 b 343 618 235 581 284 605 b 265 683 308 638 282 659 b 240 775 249 706 240 737 b 314 941 240 841 265 896 b 499 1008 363 986 425 1008 b 710 917 597 1008 667 978 l 669 886 b 497 964 631 938 574 964 b 353 911 442 964 394 946 b 293 779 313 876 293 832 b 328 683 293 738 305 705 b 439 618 351 660 388 638 b 601 526 518 586 572 555 b 646 403 631 497 646 456 b 586 268 646 348 626 303 b 443 200 546 233 499 210 m 399 229 b 535 281 450 234 495 251 b 594 399 575 311 594 350 b 558 498 594 440 582 473 b 451 564 534 522 499 544 l 389 590 b 253 536 340 585 294 567 b 190 414 211 506 190 465 b 225 317 190 371 202 339 b 333 256 248 296 284 275 l 399 229 "},"š":{"ha":575,"x_min":0,"x_max":0,"o":"m 58 111 b 238 26 104 55 163 26 b 368 68 290 26 334 40 b 419 175 402 96 419 131 b 383 260 419 210 407 239 b 258 317 358 282 317 301 b 104 472 156 344 104 396 b 172 611 104 531 127 578 b 333 661 218 644 271 661 b 451 638 378 661 417 653 b 526 575 486 622 511 601 l 490 549 b 333 618 455 595 403 618 b 206 581 282 618 240 606 b 154 476 171 557 154 522 b 186 401 154 443 165 418 b 289 356 207 384 242 369 b 427 287 353 338 399 315 b 469 179 455 259 469 223 b 403 37 469 120 447 72 b 239 -17 359 1 305 -17 b 21 81 143 -17 70 16 m 325 783 l 219 983 l 267 983 l 358 810 l 518 983 l 571 983 l 388 783 "},"©":{"ha":1111,"x_min":0,"x_max":0,"o":"m 28 490 b 183 861 28 636 79 759 b 557 1014 286 963 411 1014 b 929 861 702 1014 826 963 b 1083 490 1032 759 1083 636 b 929 122 1083 346 1032 223 b 557 -31 826 20 702 -31 b 183 122 411 -31 286 20 b 28 490 79 223 28 346 m 75 490 b 216 154 75 359 122 247 b 557 15 310 62 424 15 b 896 154 689 15 802 62 b 1036 490 989 247 1036 359 b 896 828 1036 623 989 735 b 557 968 802 922 689 968 b 216 828 424 968 310 922 b 75 490 122 735 75 623 m 739 685 b 576 760 695 735 641 760 b 393 681 501 760 440 733 b 322 490 346 628 322 564 b 392 301 322 416 346 353 b 576 224 439 250 500 224 b 747 297 647 224 704 248 l 783 269 b 576 178 731 208 662 178 b 358 266 488 178 416 207 b 272 490 301 325 272 400 b 358 715 272 581 301 656 b 576 804 416 775 488 804 b 689 781 615 804 653 796 b 778 715 725 765 755 743 "},"ª":{"ha":486,"x_min":0,"x_max":0,"o":"m 451 688 b 443 599 446 647 443 617 l 408 599 b 417 683 408 627 411 656 l 414 683 b 263 589 383 620 333 589 b 176 615 231 589 202 597 b 138 693 150 632 138 658 b 161 767 138 723 145 747 b 231 810 177 786 200 800 b 324 829 261 819 292 825 b 439 835 356 833 394 835 b 444 879 443 850 444 864 b 417 943 444 908 435 929 b 343 964 398 957 374 964 b 222 919 300 964 259 949 l 204 950 b 347 1000 246 983 294 1000 b 447 970 388 1000 421 990 b 485 886 472 950 485 922 b 481 842 485 879 483 864 l 451 688 m 433 804 l 413 804 b 181 696 258 804 181 768 b 275 624 181 648 212 624 b 376 666 317 624 350 638 b 426 768 401 694 418 728 "},"«":{"ha":675,"x_min":0,"x_max":0,"o":"m 326 610 l 357 583 l 153 328 l 268 78 l 229 54 l 100 332 m 564 610 l 594 583 l 390 328 l 506 78 l 467 54 l 338 332 "},"¬":{"ha":925,"x_min":0,"x_max":0,"o":"m 756 185 l 756 514 l 124 514 l 124 558 l 803 558 l 803 185 "},"­":{"ha":425,"x_min":0,"x_max":0,"o":"m 74 326 l 82 369 l 351 369 l 343 326 "},"®":{"ha":833,"x_min":0,"x_max":0,"o":"m 565 513 l 468 665 l 401 665 l 401 513 l 361 513 l 361 864 l 481 864 b 567 838 517 864 546 855 b 600 764 589 821 600 796 b 574 699 600 737 591 715 b 510 669 556 682 535 672 l 614 513 m 560 765 b 479 829 560 808 533 829 l 401 829 l 401 697 l 463 697 b 560 765 527 697 560 720 m 156 686 b 249 908 156 773 187 847 b 474 1000 311 969 386 1000 b 697 908 561 1000 635 969 b 789 686 758 847 789 773 b 697 465 789 599 758 525 b 474 374 635 404 561 374 b 249 465 386 374 311 404 b 156 686 187 525 156 599 m 192 686 b 274 488 192 609 219 543 b 474 406 329 433 396 406 b 671 488 550 406 616 433 b 753 686 725 543 753 609 b 671 883 753 763 725 829 b 474 965 616 938 550 965 b 274 883 396 965 329 938 b 192 686 219 829 192 763 "},"¯":{"ha":333,"x_min":0,"x_max":0,"o":"m 86 854 l 93 896 l 432 896 l 425 854 "},"°":{"ha":556,"x_min":0,"x_max":0,"o":"m 558 793 b 500 649 558 737 539 689 b 356 590 461 610 413 590 b 211 649 298 590 250 610 b 153 793 172 689 153 737 b 211 937 153 850 172 897 b 356 996 250 976 298 996 b 500 937 413 996 461 976 b 558 793 539 897 558 850 m 519 793 b 472 909 519 838 503 877 b 356 957 440 941 401 957 b 240 909 310 957 272 941 b 193 793 209 877 193 838 b 240 677 193 748 209 709 b 356 629 272 645 310 629 b 472 677 401 629 440 645 b 519 793 503 709 519 748 "},"±":{"ha":925,"x_min":0,"x_max":0,"o":"m 483 478 l 483 228 l 438 228 l 438 478 l 124 478 l 124 522 l 436 522 l 436 778 l 483 778 l 483 522 l 803 522 l 803 478 m 128 67 l 128 111 l 799 111 l 799 67 "},"²":{"ha":494,"x_min":0,"x_max":0,"o":"m 447 669 l 440 629 l 78 629 l 85 674 l 339 901 b 433 1002 384 942 416 976 b 460 1081 451 1028 460 1055 b 429 1160 460 1116 450 1142 b 349 1186 409 1177 382 1186 b 206 1085 282 1186 234 1152 l 164 1097 b 239 1194 181 1140 206 1172 b 350 1226 272 1216 309 1226 b 464 1190 400 1226 438 1214 b 503 1086 490 1165 503 1131 b 472 987 503 1049 493 1016 b 358 868 452 958 414 918 l 138 669 "},"³":{"ha":494,"x_min":0,"x_max":0,"o":"m 256 615 b 146 644 213 615 176 625 b 81 722 115 663 94 689 l 124 736 b 256 656 145 682 189 656 b 365 693 302 656 338 668 b 404 792 391 718 404 751 b 365 885 404 833 391 864 b 264 915 338 905 305 915 l 239 915 l 246 954 l 271 954 b 390 990 321 954 360 966 b 433 1085 419 1013 433 1045 b 403 1162 433 1119 423 1145 b 329 1188 384 1179 359 1188 b 210 1125 282 1188 242 1167 l 178 1150 b 333 1226 218 1201 269 1226 b 437 1191 376 1226 410 1215 b 476 1090 463 1167 476 1134 b 436 984 476 1045 463 1009 b 335 935 409 959 375 942 l 335 933 b 417 885 369 926 396 910 b 447 793 437 861 447 830 b 392 663 447 738 429 694 b 256 615 356 631 310 615 "},"Ž":{"ha":815,"x_min":0,"x_max":0,"o":"m 3 0 l 11 51 l 793 938 l 188 938 l 196 983 l 861 983 l 851 929 l 71 46 l 708 46 l 700 0 m 494 1061 l 389 1261 l 436 1261 l 528 1088 l 688 1261 l 740 1261 l 557 1061 "},"µ":{"ha":772,"x_min":0,"x_max":0,"o":"m 171 642 l 171 267 b 364 25 171 106 235 25 b 533 104 431 25 488 51 b 600 318 578 157 600 228 l 600 642 l 649 642 l 649 156 l 654 0 l 601 0 l 601 149 l 599 149 b 501 27 579 98 547 57 b 356 -18 456 -3 407 -18 b 171 76 270 -18 209 13 l 171 -317 l 121 -317 l 121 642 "},"¶":{"ha":833,"x_min":0,"x_max":0,"o":"m 529 -175 l 726 944 l 524 944 l 326 -175 l 278 -175 l 389 463 b 203 522 311 463 249 482 b 135 671 158 561 135 611 b 234 895 135 762 168 836 b 497 983 300 954 388 983 l 782 983 l 578 -175 "},"·":{"ha":342,"x_min":0,"x_max":0,"o":"m 179 332 b 136 376 150 332 136 347 b 150 411 136 389 141 401 b 183 426 159 421 170 426 b 214 415 195 426 206 422 b 226 383 222 407 226 396 b 213 347 226 369 222 357 b 179 332 203 337 192 332 "},"ž":{"ha":603,"x_min":0,"x_max":0,"o":"m -6 0 l 0 40 l 510 600 l 122 600 l 129 642 l 581 642 l 572 600 l 65 43 l 489 43 l 482 0 m 338 783 l 232 983 l 279 983 l 371 810 l 531 983 l 583 983 l 400 783 "},"¹":{"ha":494,"x_min":0,"x_max":0,"o":"m 244 629 l 338 1160 l 203 1074 l 181 1107 l 353 1214 l 394 1214 l 292 629 "},"º":{"ha":486,"x_min":0,"x_max":0,"o":"m 478 825 b 441 925 478 865 466 898 b 336 965 416 952 381 965 b 206 906 283 965 240 945 b 156 764 172 866 156 819 b 191 663 156 723 167 690 b 294 624 215 637 249 624 b 426 683 348 624 392 643 b 478 825 461 722 478 769 m 111 761 b 176 931 111 827 133 883 b 340 1001 219 978 274 1001 b 473 953 397 1001 441 985 b 521 828 505 920 521 879 b 457 658 521 762 500 706 b 292 588 414 611 359 588 b 159 636 235 588 191 604 b 111 761 127 669 111 710 "},"»":{"ha":675,"x_min":0,"x_max":0,"o":"m 343 54 l 313 81 l 517 336 l 401 588 l 440 611 l 569 332 m 106 54 l 74 81 l 278 336 l 164 588 l 201 611 l 332 332 "},"Œ":{"ha":1339,"x_min":0,"x_max":0,"o":"m 578 0 b 244 106 444 0 333 35 b 111 407 156 177 111 277 b 288 834 111 592 170 734 b 738 983 406 934 556 983 l 1350 983 l 1342 938 l 869 938 l 799 533 l 1250 533 l 1243 488 l 792 488 l 714 46 l 1225 46 l 1217 0 l 578 0 m 663 46 l 819 938 l 736 938 b 324 800 568 938 430 892 b 165 414 218 708 165 580 b 280 144 165 300 203 210 b 589 46 356 79 459 46 "},"œ":{"ha":1385,"x_min":0,"x_max":0,"o":"m 690 374 b 626 549 690 444 669 502 b 442 618 583 595 521 618 b 212 515 348 618 272 584 b 122 269 152 447 122 365 b 186 93 122 198 144 139 b 369 24 229 47 290 24 b 600 127 463 24 540 58 b 690 374 660 196 690 278 m 978 24 b 1217 142 1073 24 1153 63 l 1246 111 b 975 -18 1177 25 1087 -18 b 789 38 899 -18 837 0 b 694 188 741 75 709 125 b 566 38 665 125 622 76 b 368 -18 510 1 444 -18 b 149 61 275 -18 202 8 b 71 267 97 114 71 182 b 176 544 71 374 106 467 b 444 661 246 622 335 661 b 633 604 520 661 583 642 b 729 454 682 566 714 516 b 858 604 758 516 801 566 b 1050 661 915 642 979 661 b 1241 590 1133 661 1197 638 b 1307 408 1285 543 1307 482 b 1296 318 1307 377 1303 347 l 735 318 b 731 275 732 302 731 288 b 798 91 731 197 753 136 b 978 24 843 46 903 24 m 1254 358 b 1258 413 1257 377 1258 395 b 1202 562 1258 475 1240 524 b 1049 618 1165 599 1113 618 b 843 538 966 618 898 591 b 742 358 788 485 755 425 l 1254 358 "},"Ÿ":{"ha":732,"x_min":0,"x_max":0,"o":"m 392 428 l 317 0 l 265 0 l 340 428 l 108 983 l 167 983 l 374 475 l 788 983 l 851 983 m 389 1142 b 360 1153 378 1142 368 1145 b 349 1185 353 1160 349 1171 b 363 1219 349 1198 353 1209 b 394 1233 372 1228 382 1233 b 422 1222 406 1233 415 1230 b 433 1192 430 1215 433 1205 b 420 1157 433 1179 429 1167 b 389 1142 411 1147 401 1142 m 618 1142 b 578 1185 591 1142 578 1156 b 591 1219 578 1198 582 1209 b 622 1233 600 1228 610 1233 b 651 1222 633 1233 643 1230 b 663 1192 659 1215 663 1205 b 649 1157 663 1179 658 1167 b 618 1142 641 1147 630 1142 "},"¿":{"ha":660,"x_min":0,"x_max":0,"o":"m 313 399 l 363 399 l 349 321 b 215 125 338 250 294 185 l 163 85 b 71 -7 123 54 92 24 b 39 -118 50 -37 39 -75 b 88 -242 39 -172 55 -213 b 214 -286 121 -272 163 -286 b 364 -235 273 -286 323 -269 b 451 -103 405 -202 434 -157 l 499 -114 b 391 -275 477 -182 441 -236 b 213 -333 341 -314 281 -333 b 51 -278 148 -333 94 -315 b -12 -121 9 -242 -12 -189 b 31 19 -12 -67 2 -21 b 151 132 60 58 100 96 b 261 229 204 170 241 202 b 303 339 281 256 295 293 m 367 681 b 408 636 394 681 408 666 b 394 601 408 623 404 612 b 361 586 385 591 374 586 b 331 597 349 586 339 590 b 319 629 323 605 319 615 b 333 665 319 643 324 655 b 367 681 343 675 354 681 "},"À":{"ha":906,"x_min":0,"x_max":0,"o":"m 768 0 l 717 275 l 178 275 l 4 0 l -57 0 l 575 983 l 636 983 l 821 0 m 597 935 l 207 321 l 708 321 m 493 1261 l 638 1061 l 594 1061 l 429 1261 "},"Á":{"ha":906,"x_min":0,"x_max":0,"o":"m 768 0 l 717 275 l 178 275 l 4 0 l -57 0 l 575 983 l 636 983 l 821 0 m 597 935 l 207 321 l 708 321 m 622 1061 l 579 1061 l 756 1261 l 819 1261 "},"Â":{"ha":906,"x_min":0,"x_max":0,"o":"m 768 0 l 717 275 l 178 275 l 4 0 l -57 0 l 575 983 l 636 983 l 821 0 m 597 935 l 207 321 l 708 321 m 683 1261 l 789 1061 l 743 1061 l 650 1235 l 492 1061 l 439 1061 l 622 1261 "},"Ã":{"ha":906,"x_min":0,"x_max":0,"o":"m 768 0 l 717 275 l 178 275 l 4 0 l -57 0 l 575 983 l 636 983 l 821 0 m 597 935 l 207 321 l 708 321 m 639 1172 b 719 1139 673 1150 700 1139 b 792 1207 752 1139 776 1162 l 826 1207 b 781 1126 816 1173 801 1146 b 713 1097 761 1107 738 1097 b 624 1131 695 1097 665 1108 b 546 1164 582 1153 556 1164 b 474 1093 514 1164 490 1140 l 439 1093 b 485 1176 450 1128 466 1156 b 553 1206 505 1196 528 1206 b 639 1172 576 1206 605 1194 "},"Ä":{"ha":906,"x_min":0,"x_max":0,"o":"m 768 0 l 717 275 l 178 275 l 4 0 l -57 0 l 575 983 l 636 983 l 821 0 m 597 935 l 207 321 l 708 321 m 521 1142 b 492 1153 509 1142 499 1145 b 481 1185 484 1160 481 1171 b 494 1219 481 1198 485 1209 b 526 1233 504 1228 514 1233 b 554 1222 538 1233 547 1230 b 565 1192 562 1215 565 1205 b 552 1157 565 1179 561 1167 b 521 1142 543 1147 533 1142 m 750 1142 b 710 1185 723 1142 710 1156 b 723 1219 710 1198 714 1209 b 754 1233 732 1228 742 1233 b 783 1222 765 1233 775 1230 b 794 1192 791 1215 794 1205 b 781 1157 794 1179 790 1167 b 750 1142 772 1147 762 1142 "},"Å":{"ha":906,"x_min":0,"x_max":0,"o":"m 768 0 l 717 275 l 178 275 l 4 0 l -57 0 l 575 983 l 636 983 l 821 0 m 597 935 l 207 321 l 708 321 m 736 1200 b 714 1260 736 1224 729 1244 b 651 1285 699 1277 678 1285 b 571 1249 618 1285 591 1273 b 540 1161 550 1225 540 1195 b 562 1101 540 1137 547 1117 b 625 1078 576 1086 597 1078 b 705 1114 657 1078 684 1090 b 736 1200 726 1138 736 1167 m 508 1158 b 549 1267 508 1201 522 1237 b 653 1313 575 1297 610 1313 b 738 1282 689 1313 717 1302 b 768 1203 758 1262 768 1235 b 728 1094 768 1160 755 1124 b 624 1049 701 1064 666 1049 b 539 1079 588 1049 559 1059 b 508 1158 519 1100 508 1126 "},"Æ":{"ha":1322,"x_min":0,"x_max":0,"o":"m 1321 938 l 849 938 l 778 533 l 1229 533 l 1221 488 l 769 488 l 692 46 l 1204 46 l 1196 0 l 632 0 l 682 283 l 257 283 l 22 0 l -42 0 l 772 983 l 1329 983 m 797 938 l 792 938 l 293 329 l 690 329 "},"Ç":{"ha":1004,"x_min":0,"x_max":0,"o":"m 901 117 b 565 -26 809 25 697 -23 l 490 -115 b 553 -106 510 -109 531 -106 b 628 -126 581 -106 607 -112 b 661 -193 650 -140 661 -162 b 614 -285 661 -234 645 -264 b 494 -315 582 -305 543 -315 b 364 -287 444 -315 401 -306 l 379 -256 b 493 -279 411 -271 449 -279 b 584 -257 533 -279 563 -272 b 615 -197 605 -242 615 -222 b 592 -151 615 -177 608 -162 b 536 -136 577 -141 558 -136 b 446 -154 500 -136 470 -142 l 431 -139 l 526 -26 b 219 97 394 -22 292 19 b 111 399 147 175 111 275 b 186 701 111 507 136 608 b 396 925 236 794 306 869 b 692 1010 486 981 584 1010 b 874 974 757 1010 818 998 b 1004 872 930 950 974 916 l 964 840 b 689 964 900 923 808 964 b 317 796 542 964 418 908 b 165 406 216 684 165 554 b 264 128 165 293 198 200 b 551 19 330 56 425 19 b 869 150 675 19 781 63 "},"È":{"ha":801,"x_min":0,"x_max":0,"o":"m 81 0 l 254 983 l 814 983 l 806 938 l 296 938 l 225 533 l 714 533 l 706 488 l 217 488 l 140 46 l 689 46 l 681 0 m 454 1261 l 599 1061 l 556 1061 l 390 1261 "},"É":{"ha":801,"x_min":0,"x_max":0,"o":"m 81 0 l 254 983 l 814 983 l 806 938 l 296 938 l 225 533 l 714 533 l 706 488 l 217 488 l 140 46 l 689 46 l 681 0 m 550 1061 l 507 1061 l 683 1261 l 747 1261 "},"Ê":{"ha":801,"x_min":0,"x_max":0,"o":"m 81 0 l 254 983 l 814 983 l 806 938 l 296 938 l 225 533 l 714 533 l 706 488 l 217 488 l 140 46 l 689 46 l 681 0 m 615 1261 l 721 1061 l 675 1061 l 582 1235 l 424 1061 l 371 1061 l 554 1261 "},"Ë":{"ha":801,"x_min":0,"x_max":0,"o":"m 81 0 l 254 983 l 814 983 l 806 938 l 296 938 l 225 533 l 714 533 l 706 488 l 217 488 l 140 46 l 689 46 l 681 0 m 447 1142 b 419 1153 436 1142 427 1145 b 407 1185 411 1160 407 1171 b 421 1219 407 1198 412 1209 b 453 1233 430 1228 441 1233 b 481 1222 464 1233 473 1230 b 492 1192 488 1215 492 1205 b 478 1157 492 1179 487 1167 b 447 1142 470 1147 459 1142 m 676 1142 b 636 1185 650 1142 636 1156 b 649 1219 636 1198 641 1209 b 681 1233 658 1228 669 1233 b 709 1222 692 1233 701 1230 b 721 1192 717 1215 721 1205 b 708 1157 721 1179 716 1167 b 676 1142 699 1147 688 1142 "},"Ì":{"ha":336,"x_min":0,"x_max":0,"o":"m 81 0 l 254 983 l 306 983 l 132 0 m 169 1261 l 314 1061 l 271 1061 l 106 1261 "},"Í":{"ha":336,"x_min":0,"x_max":0,"o":"m 81 0 l 254 983 l 306 983 l 132 0 m 307 1061 l 264 1061 l 440 1261 l 504 1261 "},"Î":{"ha":336,"x_min":0,"x_max":0,"o":"m 81 0 l 254 983 l 306 983 l 132 0 m 357 1261 l 463 1061 l 417 1061 l 324 1235 l 165 1061 l 113 1061 l 296 1261 "},"Ï":{"ha":336,"x_min":0,"x_max":0,"o":"m 81 0 l 254 983 l 306 983 l 132 0 m 192 1142 b 163 1153 181 1142 171 1145 b 151 1185 155 1160 151 1171 b 165 1219 151 1198 156 1209 b 197 1233 175 1228 185 1233 b 225 1222 208 1233 218 1230 b 236 1192 232 1215 236 1205 b 223 1157 236 1179 232 1167 b 192 1142 214 1147 204 1142 m 421 1142 b 381 1185 394 1142 381 1156 b 394 1219 381 1198 385 1209 b 425 1233 403 1228 413 1233 b 453 1222 436 1233 446 1230 b 465 1192 461 1215 465 1205 b 452 1157 465 1179 461 1167 b 421 1142 443 1147 433 1142 "},"Ð":{"ha":1068,"x_min":0,"x_max":0,"o":"m 63 493 l 71 535 l 175 535 l 254 983 l 525 983 b 858 877 658 983 769 948 b 992 576 947 806 992 706 b 815 149 992 391 933 249 b 365 0 697 50 547 0 l 81 0 l 167 493 m 590 535 l 583 493 l 219 493 l 142 46 l 367 46 b 778 183 535 46 672 92 b 938 569 884 275 938 404 b 823 839 938 683 899 773 b 514 938 747 905 644 938 l 299 938 l 228 535 "},"Ñ":{"ha":1040,"x_min":0,"x_max":0,"o":"m 768 0 l 297 919 l 294 919 l 132 0 l 81 0 l 254 983 l 321 983 l 793 68 l 796 68 l 957 983 l 1008 983 l 835 0 m 663 1172 b 743 1139 697 1150 724 1139 b 815 1207 775 1139 800 1162 l 850 1207 b 805 1126 840 1173 825 1146 b 736 1097 785 1107 762 1097 b 647 1131 719 1097 689 1108 b 569 1164 606 1153 580 1164 b 497 1093 538 1164 514 1140 l 463 1093 b 509 1176 474 1128 489 1156 b 576 1206 529 1196 551 1206 b 663 1172 600 1206 628 1194 "},"Ò":{"ha":1194,"x_min":0,"x_max":0,"o":"m 1064 574 b 964 854 1064 687 1031 781 b 676 964 897 927 801 964 b 409 884 577 964 488 937 b 228 678 330 831 269 762 b 165 408 186 595 165 505 b 265 128 165 294 199 201 b 554 19 332 56 428 19 b 821 98 653 19 742 46 b 1001 302 900 150 960 218 b 1064 574 1043 386 1064 476 m 111 406 b 272 832 111 571 165 713 b 678 1010 378 950 514 1010 b 1001 890 816 1010 924 970 b 1118 576 1079 809 1118 705 b 1048 278 1118 469 1095 369 b 847 57 1001 186 934 113 b 553 -26 760 1 662 -26 b 228 93 414 -26 306 13 b 111 406 150 173 111 277 m 613 1261 l 757 1061 l 714 1061 l 549 1261 "},"Ó":{"ha":1194,"x_min":0,"x_max":0,"o":"m 1064 574 b 964 854 1064 687 1031 781 b 676 964 897 927 801 964 b 409 884 577 964 488 937 b 228 678 330 831 269 762 b 165 408 186 595 165 505 b 265 128 165 294 199 201 b 554 19 332 56 428 19 b 821 98 653 19 742 46 b 1001 302 900 150 960 218 b 1064 574 1043 386 1064 476 m 111 406 b 272 832 111 571 165 713 b 678 1010 378 950 514 1010 b 1001 890 816 1010 924 970 b 1118 576 1079 809 1118 705 b 1048 278 1118 469 1095 369 b 847 57 1001 186 934 113 b 553 -26 760 1 662 -26 b 228 93 414 -26 306 13 b 111 406 150 173 111 277 m 699 1061 l 656 1061 l 832 1261 l 896 1261 "},"Ô":{"ha":1194,"x_min":0,"x_max":0,"o":"m 1064 574 b 964 854 1064 687 1031 781 b 676 964 897 927 801 964 b 409 884 577 964 488 937 b 228 678 330 831 269 762 b 165 408 186 595 165 505 b 265 128 165 294 199 201 b 554 19 332 56 428 19 b 821 98 653 19 742 46 b 1001 302 900 150 960 218 b 1064 574 1043 386 1064 476 m 111 406 b 272 832 111 571 165 713 b 678 1010 378 950 514 1010 b 1001 890 816 1010 924 970 b 1118 576 1079 809 1118 705 b 1048 278 1118 469 1095 369 b 847 57 1001 186 934 113 b 553 -26 760 1 662 -26 b 228 93 414 -26 306 13 b 111 406 150 173 111 277 m 786 1261 l 892 1061 l 846 1061 l 753 1235 l 594 1061 l 542 1061 l 725 1261 "},"Õ":{"ha":1194,"x_min":0,"x_max":0,"o":"m 1064 574 b 964 854 1064 687 1031 781 b 676 964 897 927 801 964 b 409 884 577 964 488 937 b 228 678 330 831 269 762 b 165 408 186 595 165 505 b 265 128 165 294 199 201 b 554 19 332 56 428 19 b 821 98 653 19 742 46 b 1001 302 900 150 960 218 b 1064 574 1043 386 1064 476 m 111 406 b 272 832 111 571 165 713 b 678 1010 378 950 514 1010 b 1001 890 816 1010 924 970 b 1118 576 1079 809 1118 705 b 1048 278 1118 469 1095 369 b 847 57 1001 186 934 113 b 553 -26 760 1 662 -26 b 228 93 414 -26 306 13 b 111 406 150 173 111 277 m 735 1172 b 815 1139 769 1150 796 1139 b 888 1207 848 1139 872 1162 l 922 1207 b 877 1126 912 1173 897 1146 b 808 1097 857 1107 834 1097 b 719 1131 791 1097 761 1108 b 642 1164 678 1153 652 1164 b 569 1093 610 1164 586 1140 l 535 1093 b 581 1176 546 1128 561 1156 b 649 1206 601 1196 624 1206 b 735 1172 672 1206 700 1194 "},"Ö":{"ha":1194,"x_min":0,"x_max":0,"o":"m 1064 574 b 964 854 1064 687 1031 781 b 676 964 897 927 801 964 b 409 884 577 964 488 937 b 228 678 330 831 269 762 b 165 408 186 595 165 505 b 265 128 165 294 199 201 b 554 19 332 56 428 19 b 821 98 653 19 742 46 b 1001 302 900 150 960 218 b 1064 574 1043 386 1064 476 m 111 406 b 272 832 111 571 165 713 b 678 1010 378 950 514 1010 b 1001 890 816 1010 924 970 b 1118 576 1079 809 1118 705 b 1048 278 1118 469 1095 369 b 847 57 1001 186 934 113 b 553 -26 760 1 662 -26 b 228 93 414 -26 306 13 b 111 406 150 173 111 277 m 617 1142 b 588 1153 606 1142 596 1145 b 576 1185 580 1160 576 1171 b 590 1219 576 1198 581 1209 b 622 1233 600 1228 610 1233 b 650 1222 633 1233 643 1230 b 661 1192 657 1215 661 1205 b 648 1157 661 1179 657 1167 b 617 1142 639 1147 629 1142 m 846 1142 b 806 1185 819 1142 806 1156 b 819 1219 806 1198 810 1209 b 850 1233 828 1228 838 1233 b 878 1222 861 1233 871 1230 b 890 1192 886 1215 890 1205 b 877 1157 890 1179 886 1167 b 846 1142 868 1147 858 1142 "},"×":{"ha":925,"x_min":0,"x_max":0,"o":"m 735 185 l 703 154 l 464 393 l 224 154 l 192 185 l 433 425 l 192 667 l 222 697 l 464 457 l 704 697 l 735 667 l 494 425 "},"Ø":{"ha":1194,"x_min":0,"x_max":0,"o":"m 554 19 b 922 185 702 19 825 75 b 1067 574 1018 295 1067 425 b 985 832 1067 677 1039 763 l 260 135 b 554 19 326 58 425 19 m 961 860 b 679 964 894 929 800 964 b 411 885 580 964 491 938 b 228 679 331 832 271 763 b 165 408 186 595 165 505 b 238 163 165 312 189 230 m 75 10 l 197 128 b 111 406 140 201 111 294 b 183 704 111 513 135 613 b 385 926 230 796 298 870 b 681 1010 473 982 571 1010 b 1000 896 813 1010 919 972 l 1114 1006 l 1138 978 l 1024 868 b 1121 576 1088 793 1121 696 b 1050 278 1121 469 1097 369 b 848 57 1003 186 935 113 b 553 -26 760 1 662 -26 b 222 100 409 -26 299 16 l 100 -18 "},"Ù":{"ha":992,"x_min":0,"x_max":0,"o":"m 867 371 b 826 221 856 314 843 264 b 755 97 809 177 785 136 b 634 6 725 57 684 27 b 457 -26 584 -16 525 -26 b 211 56 349 -26 267 1 b 128 283 156 110 128 186 b 138 388 128 318 131 352 l 243 983 l 294 983 l 189 382 b 181 290 183 351 181 321 b 248 94 181 210 203 144 b 457 19 293 44 363 19 b 619 51 520 19 574 30 b 726 139 665 72 700 101 b 785 251 752 177 772 214 b 817 378 798 287 808 330 l 924 983 l 975 983 m 508 1261 l 653 1061 l 610 1061 l 444 1261 "},"Ú":{"ha":992,"x_min":0,"x_max":0,"o":"m 867 371 b 826 221 856 314 843 264 b 755 97 809 177 785 136 b 634 6 725 57 684 27 b 457 -26 584 -16 525 -26 b 211 56 349 -26 267 1 b 128 283 156 110 128 186 b 138 388 128 318 131 352 l 243 983 l 294 983 l 189 382 b 181 290 183 351 181 321 b 248 94 181 210 203 144 b 457 19 293 44 363 19 b 619 51 520 19 574 30 b 726 139 665 72 700 101 b 785 251 752 177 772 214 b 817 378 798 287 808 330 l 924 983 l 975 983 m 603 1061 l 560 1061 l 736 1261 l 800 1261 "},"Û":{"ha":992,"x_min":0,"x_max":0,"o":"m 867 371 b 826 221 856 314 843 264 b 755 97 809 177 785 136 b 634 6 725 57 684 27 b 457 -26 584 -16 525 -26 b 211 56 349 -26 267 1 b 128 283 156 110 128 186 b 138 388 128 318 131 352 l 243 983 l 294 983 l 189 382 b 181 290 183 351 181 321 b 248 94 181 210 203 144 b 457 19 293 44 363 19 b 619 51 520 19 574 30 b 726 139 665 72 700 101 b 785 251 752 177 772 214 b 817 378 798 287 808 330 l 924 983 l 975 983 m 688 1261 l 793 1061 l 747 1061 l 654 1235 l 496 1061 l 443 1061 l 626 1261 "},"Ü":{"ha":992,"x_min":0,"x_max":0,"o":"m 867 371 b 826 221 856 314 843 264 b 755 97 809 177 785 136 b 634 6 725 57 684 27 b 457 -26 584 -16 525 -26 b 211 56 349 -26 267 1 b 128 283 156 110 128 186 b 138 388 128 318 131 352 l 243 983 l 294 983 l 189 382 b 181 290 183 351 181 321 b 248 94 181 210 203 144 b 457 19 293 44 363 19 b 619 51 520 19 574 30 b 726 139 665 72 700 101 b 785 251 752 177 772 214 b 817 378 798 287 808 330 l 924 983 l 975 983 m 521 1142 b 492 1153 509 1142 499 1145 b 481 1185 484 1160 481 1171 b 494 1219 481 1198 485 1209 b 526 1233 504 1228 514 1233 b 554 1222 538 1233 547 1230 b 565 1192 562 1215 565 1205 b 552 1157 565 1179 561 1167 b 521 1142 543 1147 533 1142 m 750 1142 b 710 1185 723 1142 710 1156 b 723 1219 710 1198 714 1209 b 754 1233 732 1228 742 1233 b 783 1222 765 1233 775 1230 b 794 1192 791 1215 794 1205 b 781 1157 794 1179 790 1167 b 750 1142 772 1147 762 1142 "},"Ý":{"ha":732,"x_min":0,"x_max":0,"o":"m 392 428 l 317 0 l 265 0 l 340 428 l 108 983 l 167 983 l 374 475 l 788 983 l 851 983 m 489 1061 l 446 1061 l 622 1261 l 686 1261 "},"Þ":{"ha":786,"x_min":0,"x_max":0,"o":"m 178 257 l 132 0 l 81 0 l 254 983 l 306 983 l 268 767 l 469 767 b 669 711 550 767 616 748 b 747 543 721 674 747 618 b 656 337 747 459 717 390 b 399 257 596 284 510 257 m 694 540 b 631 678 694 602 673 648 b 472 722 589 707 536 722 l 260 722 l 186 301 l 407 301 b 619 365 498 301 568 323 b 694 540 669 408 694 466 "},"ß":{"ha":808,"x_min":0,"x_max":0,"o":"m 356 -15 b 283 -10 335 -15 311 -13 l 290 35 b 358 29 313 31 335 29 b 585 113 450 29 525 57 b 674 331 644 169 674 242 b 611 502 674 399 653 456 b 436 571 569 548 511 571 l 417 571 l 425 617 l 444 617 b 624 674 513 617 573 636 b 700 839 675 713 700 768 b 647 975 700 898 682 944 b 510 1022 611 1006 565 1022 b 253 746 371 1022 285 930 l 122 0 l 72 0 l 204 750 b 510 1067 241 961 343 1067 b 683 1008 580 1067 638 1047 b 751 846 729 969 751 915 b 688 678 751 776 730 721 b 531 596 645 636 593 609 l 529 593 b 669 509 585 582 631 554 b 725 335 706 464 725 406 b 625 85 725 236 692 153 b 356 -15 558 18 469 -15 "},"à":{"ha":721,"x_min":0,"x_max":0,"o":"m 557 144 b 543 0 548 91 543 43 l 497 0 b 513 138 497 37 502 83 l 508 138 b 256 -17 452 35 368 -17 b 116 23 204 -17 157 -3 b 54 149 75 49 54 91 b 93 268 54 196 67 236 b 207 340 119 300 157 325 b 363 373 257 356 309 367 b 553 382 416 379 480 382 b 563 463 559 414 563 441 b 390 618 563 566 505 618 b 190 546 325 618 258 594 l 165 578 b 394 661 234 633 310 661 b 553 612 461 661 514 645 b 611 471 592 579 611 532 b 604 401 611 455 609 432 m 546 342 l 511 342 b 104 156 240 342 104 280 b 151 56 104 109 120 76 b 265 25 183 35 221 25 b 444 103 338 25 398 51 b 536 293 491 156 521 219 m 324 983 l 468 783 l 425 783 l 260 983 "},"á":{"ha":721,"x_min":0,"x_max":0,"o":"m 557 144 b 543 0 548 91 543 43 l 497 0 b 513 138 497 37 502 83 l 508 138 b 256 -17 452 35 368 -17 b 116 23 204 -17 157 -3 b 54 149 75 49 54 91 b 93 268 54 196 67 236 b 207 340 119 300 157 325 b 363 373 257 356 309 367 b 553 382 416 379 480 382 b 563 463 559 414 563 441 b 390 618 563 566 505 618 b 190 546 325 618 258 594 l 165 578 b 394 661 234 633 310 661 b 553 612 461 661 514 645 b 611 471 592 579 611 532 b 604 401 611 455 609 432 m 546 342 l 511 342 b 104 156 240 342 104 280 b 151 56 104 109 120 76 b 265 25 183 35 221 25 b 444 103 338 25 398 51 b 536 293 491 156 521 219 m 422 783 l 379 783 l 556 983 l 619 983 "},"â":{"ha":721,"x_min":0,"x_max":0,"o":"m 557 144 b 543 0 548 91 543 43 l 497 0 b 513 138 497 37 502 83 l 508 138 b 256 -17 452 35 368 -17 b 116 23 204 -17 157 -3 b 54 149 75 49 54 91 b 93 268 54 196 67 236 b 207 340 119 300 157 325 b 363 373 257 356 309 367 b 553 382 416 379 480 382 b 563 463 559 414 563 441 b 390 618 563 566 505 618 b 190 546 325 618 258 594 l 165 578 b 394 661 234 633 310 661 b 553 612 461 661 514 645 b 611 471 592 579 611 532 b 604 401 611 455 609 432 m 546 342 l 511 342 b 104 156 240 342 104 280 b 151 56 104 109 120 76 b 265 25 183 35 221 25 b 444 103 338 25 398 51 b 536 293 491 156 521 219 m 504 983 l 610 783 l 564 783 l 471 957 l 313 783 l 260 783 l 443 983 "},"ã":{"ha":721,"x_min":0,"x_max":0,"o":"m 557 144 b 543 0 548 91 543 43 l 497 0 b 513 138 497 37 502 83 l 508 138 b 256 -17 452 35 368 -17 b 116 23 204 -17 157 -3 b 54 149 75 49 54 91 b 93 268 54 196 67 236 b 207 340 119 300 157 325 b 363 373 257 356 309 367 b 553 382 416 379 480 382 b 563 463 559 414 563 441 b 390 618 563 566 505 618 b 190 546 325 618 258 594 l 165 578 b 394 661 234 633 310 661 b 553 612 461 661 514 645 b 611 471 592 579 611 532 b 604 401 611 455 609 432 m 546 342 l 511 342 b 104 156 240 342 104 280 b 151 56 104 109 120 76 b 265 25 183 35 221 25 b 444 103 338 25 398 51 b 536 293 491 156 521 219 m 450 894 b 531 861 484 872 511 861 b 603 929 563 861 587 884 l 638 929 b 592 849 627 895 612 868 b 524 819 572 829 550 819 b 435 853 506 819 476 831 b 357 886 393 875 367 886 b 285 815 325 886 301 863 l 250 815 b 297 898 261 850 277 878 b 364 928 316 918 339 928 b 450 894 386 928 415 917 "},"ä":{"ha":721,"x_min":0,"x_max":0,"o":"m 557 144 b 543 0 548 91 543 43 l 497 0 b 513 138 497 37 502 83 l 508 138 b 256 -17 452 35 368 -17 b 116 23 204 -17 157 -3 b 54 149 75 49 54 91 b 93 268 54 196 67 236 b 207 340 119 300 157 325 b 363 373 257 356 309 367 b 553 382 416 379 480 382 b 563 463 559 414 563 441 b 390 618 563 566 505 618 b 190 546 325 618 258 594 l 165 578 b 394 661 234 633 310 661 b 553 612 461 661 514 645 b 611 471 592 579 611 532 b 604 401 611 455 609 432 m 546 342 l 511 342 b 104 156 240 342 104 280 b 151 56 104 109 120 76 b 265 25 183 35 221 25 b 444 103 338 25 398 51 b 536 293 491 156 521 219 m 332 864 b 303 875 320 864 310 868 b 292 907 295 882 292 893 b 306 941 292 920 296 931 b 338 956 315 951 325 956 b 365 944 349 956 358 952 b 376 914 373 937 376 927 b 363 879 376 901 372 889 b 332 864 354 869 344 864 m 561 864 b 521 907 534 864 521 878 b 534 941 521 920 525 931 b 565 956 543 951 553 956 b 594 944 576 956 586 952 b 606 914 602 937 606 927 b 592 879 606 901 601 889 b 561 864 584 869 573 864 "},"å":{"ha":721,"x_min":0,"x_max":0,"o":"m 557 144 b 543 0 548 91 543 43 l 497 0 b 513 138 497 37 502 83 l 508 138 b 256 -17 452 35 368 -17 b 116 23 204 -17 157 -3 b 54 149 75 49 54 91 b 93 268 54 196 67 236 b 207 340 119 300 157 325 b 363 373 257 356 309 367 b 553 382 416 379 480 382 b 563 463 559 414 563 441 b 390 618 563 566 505 618 b 190 546 325 618 258 594 l 165 578 b 394 661 234 633 310 661 b 553 612 461 661 514 645 b 611 471 592 579 611 532 b 604 401 611 455 609 432 m 546 342 l 511 342 b 104 156 240 342 104 280 b 151 56 104 109 120 76 b 265 25 183 35 221 25 b 444 103 338 25 398 51 b 536 293 491 156 521 219 m 549 922 b 526 983 549 946 541 966 b 464 1007 512 999 491 1007 b 383 971 431 1007 404 995 b 353 883 363 947 353 918 b 374 824 353 859 360 839 b 438 800 389 808 410 800 b 517 836 470 800 497 812 b 549 922 538 860 549 889 m 321 881 b 361 990 321 923 334 959 b 465 1035 388 1020 423 1035 b 550 1004 501 1035 530 1025 b 581 925 570 984 581 957 b 540 816 581 882 567 846 b 436 771 513 786 479 771 b 351 801 400 771 372 781 b 321 881 331 822 321 848 "},"æ":{"ha":1221,"x_min":0,"x_max":0,"o":"m 815 24 b 1054 142 911 24 990 63 l 1083 111 b 813 -18 1013 25 923 -18 b 631 44 738 -18 677 3 b 549 203 584 85 557 138 b 444 47 527 141 492 89 b 261 -17 395 4 334 -17 b 117 22 207 -17 159 -4 b 53 144 74 48 53 89 b 80 238 53 181 62 212 b 150 299 98 263 121 284 b 260 336 179 315 216 327 b 394 354 305 345 350 351 b 547 358 438 357 489 358 b 563 461 557 404 563 438 b 390 618 563 566 505 618 b 190 542 321 618 254 593 l 165 578 b 394 661 234 633 310 661 b 541 618 455 661 503 647 b 606 494 578 589 600 548 b 722 615 633 544 672 584 b 886 661 772 646 827 661 b 1078 591 970 661 1034 638 b 1144 408 1122 544 1144 483 b 1133 318 1144 377 1141 347 l 588 318 b 583 275 585 302 583 288 b 644 92 583 199 603 138 b 815 24 684 47 741 24 m 540 318 l 504 318 b 104 151 238 318 104 263 b 153 54 104 107 121 75 b 268 24 186 34 225 24 b 444 101 340 24 399 49 b 533 283 490 152 519 213 m 1092 358 b 1094 413 1094 382 1094 400 b 1039 562 1094 475 1076 524 b 886 618 1002 599 951 618 b 691 539 807 618 742 592 b 594 358 640 486 607 426 l 1092 358 "},"ç":{"ha":664,"x_min":0,"x_max":0,"o":"m 597 74 b 368 -22 533 13 457 -19 l 290 -115 b 353 -106 310 -109 331 -106 b 428 -126 381 -106 407 -112 b 461 -193 450 -140 461 -162 b 414 -285 461 -234 445 -264 b 294 -315 382 -305 343 -315 b 164 -287 244 -315 201 -306 l 179 -256 b 293 -279 211 -271 249 -279 b 384 -257 333 -279 363 -272 b 415 -197 405 -242 415 -222 b 392 -151 415 -177 408 -162 b 336 -136 377 -141 358 -136 b 246 -154 300 -136 270 -142 l 231 -139 l 331 -21 b 139 64 247 -15 183 13 b 72 258 94 115 72 180 b 181 542 72 368 108 462 b 451 661 253 621 343 661 b 665 569 550 661 622 631 l 628 539 b 555 597 611 564 587 583 b 453 618 523 611 489 618 b 218 512 359 618 281 583 b 124 263 155 441 124 358 b 186 90 124 192 144 134 b 364 22 228 45 287 22 b 568 104 447 22 515 50 l 597 74 "},"è":{"ha":774,"x_min":0,"x_max":0,"o":"m 124 318 b 121 275 122 298 121 283 b 188 92 121 197 143 136 b 368 25 232 47 292 25 b 604 138 462 25 540 63 l 636 111 b 365 -18 566 25 475 -18 b 150 60 275 -18 203 8 b 71 271 97 113 71 183 b 176 545 71 376 106 468 b 439 661 246 622 333 661 b 631 591 523 661 587 638 b 696 408 674 544 696 483 b 686 318 696 378 693 348 m 643 358 b 647 413 646 377 647 395 b 592 562 647 475 629 524 b 438 618 555 599 503 618 b 232 538 355 618 287 591 b 131 358 177 485 144 425 l 643 358 m 374 983 l 518 783 l 475 783 l 310 983 "},"é":{"ha":774,"x_min":0,"x_max":0,"o":"m 124 318 b 121 275 122 298 121 283 b 188 92 121 197 143 136 b 368 25 232 47 292 25 b 604 138 462 25 540 63 l 636 111 b 365 -18 566 25 475 -18 b 150 60 275 -18 203 8 b 71 271 97 113 71 183 b 176 545 71 376 106 468 b 439 661 246 622 333 661 b 631 591 523 661 587 638 b 696 408 674 544 696 483 b 686 318 696 378 693 348 m 643 358 b 647 413 646 377 647 395 b 592 562 647 475 629 524 b 438 618 555 599 503 618 b 232 538 355 618 287 591 b 131 358 177 485 144 425 l 643 358 m 443 783 l 400 783 l 576 983 l 640 983 "},"ê":{"ha":774,"x_min":0,"x_max":0,"o":"m 124 318 b 121 275 122 298 121 283 b 188 92 121 197 143 136 b 368 25 232 47 292 25 b 604 138 462 25 540 63 l 636 111 b 365 -18 566 25 475 -18 b 150 60 275 -18 203 8 b 71 271 97 113 71 183 b 176 545 71 376 106 468 b 439 661 246 622 333 661 b 631 591 523 661 587 638 b 696 408 674 544 696 483 b 686 318 696 378 693 348 m 643 358 b 647 413 646 377 647 395 b 592 562 647 475 629 524 b 438 618 555 599 503 618 b 232 538 355 618 287 591 b 131 358 177 485 144 425 l 643 358 m 549 983 l 654 783 l 608 783 l 515 957 l 357 783 l 304 783 l 488 983 "},"ë":{"ha":774,"x_min":0,"x_max":0,"o":"m 124 318 b 121 275 122 298 121 283 b 188 92 121 197 143 136 b 368 25 232 47 292 25 b 604 138 462 25 540 63 l 636 111 b 365 -18 566 25 475 -18 b 150 60 275 -18 203 8 b 71 271 97 113 71 183 b 176 545 71 376 106 468 b 439 661 246 622 333 661 b 631 591 523 661 587 638 b 696 408 674 544 696 483 b 686 318 696 378 693 348 m 643 358 b 647 413 646 377 647 395 b 592 562 647 475 629 524 b 438 618 555 599 503 618 b 232 538 355 618 287 591 b 131 358 177 485 144 425 l 643 358 m 376 864 b 347 875 364 864 355 868 b 336 907 340 882 336 893 b 350 941 336 920 341 931 b 382 956 359 951 370 956 b 410 944 393 956 402 952 b 421 914 417 937 421 927 b 408 879 421 901 416 889 b 376 864 399 869 388 864 m 606 864 b 565 907 579 864 565 878 b 578 941 565 920 570 931 b 610 956 587 951 598 956 b 638 944 621 956 630 952 b 650 914 646 937 650 927 b 637 879 650 901 646 889 b 606 864 628 869 618 864 "},"ì":{"ha":324,"x_min":0,"x_max":0,"o":"m 75 0 l 189 642 l 239 642 l 125 0 m 128 983 l 272 783 l 229 783 l 64 983 "},"í":{"ha":324,"x_min":0,"x_max":0,"o":"m 75 0 l 189 642 l 239 642 l 125 0 m 244 783 l 201 783 l 378 983 l 442 983 "},"î":{"ha":324,"x_min":0,"x_max":0,"o":"m 75 0 l 189 642 l 239 642 l 125 0 m 310 983 l 415 783 l 369 783 l 276 957 l 118 783 l 65 783 l 249 983 "},"ï":{"ha":324,"x_min":0,"x_max":0,"o":"m 75 0 l 189 642 l 239 642 l 125 0 m 138 864 b 108 875 125 864 116 868 b 97 907 101 882 97 893 b 111 941 97 920 102 931 b 143 956 120 951 131 956 b 171 944 154 956 163 952 b 182 914 178 937 182 927 b 169 879 182 901 178 889 b 138 864 160 869 150 864 m 367 864 b 326 907 340 864 326 878 b 340 941 326 920 331 931 b 371 956 348 951 359 956 b 399 944 382 956 391 952 b 411 914 407 937 411 927 b 398 879 411 901 407 889 b 367 864 389 869 379 864 "},"ð":{"ha":829,"x_min":0,"x_max":0,"o":"m 708 374 b 644 549 708 444 687 502 b 460 618 601 595 539 618 b 230 515 366 618 290 584 b 140 269 170 447 140 365 b 204 93 140 198 162 139 b 388 24 247 47 308 24 b 618 127 481 24 558 58 b 708 374 678 196 708 278 m 463 661 b 688 560 563 661 638 627 l 694 563 b 626 749 681 625 658 687 b 526 900 595 811 562 861 l 356 817 l 333 846 l 501 929 b 385 1039 466 971 427 1007 l 428 1065 b 544 951 471 1032 510 994 l 704 1032 l 733 1004 l 572 922 b 706 686 624 859 669 781 b 761 397 743 592 761 495 b 661 104 761 283 728 186 b 386 -18 594 23 503 -18 b 168 61 294 -18 221 8 b 89 267 115 114 89 182 b 193 544 89 374 124 467 b 463 661 263 622 352 661 "},"ñ":{"ha":790,"x_min":0,"x_max":0,"o":"m 464 661 b 617 602 531 661 581 641 b 669 443 652 563 669 510 b 663 365 669 421 667 395 l 597 0 l 547 0 l 614 374 b 619 440 618 392 619 414 b 580 568 619 492 606 535 b 454 618 553 601 512 618 b 281 535 390 618 333 590 b 178 297 230 479 195 400 l 125 0 l 75 0 l 161 486 b 182 642 171 545 178 597 l 231 642 b 210 492 228 609 221 559 l 213 492 b 319 617 239 545 275 587 b 464 661 364 646 412 661 m 488 894 b 568 861 522 872 549 861 b 640 929 600 861 625 884 l 675 929 b 630 849 665 895 650 868 b 561 819 610 829 587 819 b 472 853 544 819 514 831 b 394 886 431 875 405 886 b 322 815 363 886 339 863 l 288 815 b 334 898 299 850 314 878 b 401 928 354 918 376 928 b 488 894 425 928 453 917 "},"ò":{"ha":829,"x_min":0,"x_max":0,"o":"m 690 374 b 626 548 690 444 669 502 b 442 617 583 594 521 617 b 212 514 348 617 272 582 b 122 269 152 445 122 364 b 186 94 122 198 144 140 b 369 25 229 48 290 25 b 600 128 463 25 540 59 b 690 374 660 196 690 278 m 71 267 b 176 544 71 374 106 467 b 444 661 246 622 335 661 b 663 581 537 661 610 634 b 742 376 715 528 742 460 b 638 97 742 267 707 174 b 368 -18 568 20 478 -18 b 149 61 275 -18 202 8 b 71 267 97 114 71 182 m 375 983 l 519 783 l 476 783 l 311 983 "},"ó":{"ha":829,"x_min":0,"x_max":0,"o":"m 690 374 b 626 548 690 444 669 502 b 442 617 583 594 521 617 b 212 514 348 617 272 582 b 122 269 152 445 122 364 b 186 94 122 198 144 140 b 369 25 229 48 290 25 b 600 128 463 25 540 59 b 690 374 660 196 690 278 m 71 267 b 176 544 71 374 106 467 b 444 661 246 622 335 661 b 663 581 537 661 610 634 b 742 376 715 528 742 460 b 638 97 742 267 707 174 b 368 -18 568 20 478 -18 b 149 61 275 -18 202 8 b 71 267 97 114 71 182 m 471 783 l 428 783 l 604 983 l 668 983 "},"ô":{"ha":829,"x_min":0,"x_max":0,"o":"m 690 374 b 626 548 690 444 669 502 b 442 617 583 594 521 617 b 212 514 348 617 272 582 b 122 269 152 445 122 364 b 186 94 122 198 144 140 b 369 25 229 48 290 25 b 600 128 463 25 540 59 b 690 374 660 196 690 278 m 71 267 b 176 544 71 374 106 467 b 444 661 246 622 335 661 b 663 581 537 661 610 634 b 742 376 715 528 742 460 b 638 97 742 267 707 174 b 368 -18 568 20 478 -18 b 149 61 275 -18 202 8 b 71 267 97 114 71 182 m 560 983 l 665 783 l 619 783 l 526 957 l 368 783 l 315 783 l 499 983 "},"õ":{"ha":829,"x_min":0,"x_max":0,"o":"m 690 374 b 626 548 690 444 669 502 b 442 617 583 594 521 617 b 212 514 348 617 272 582 b 122 269 152 445 122 364 b 186 94 122 198 144 140 b 369 25 229 48 290 25 b 600 128 463 25 540 59 b 690 374 660 196 690 278 m 71 267 b 176 544 71 374 106 467 b 444 661 246 622 335 661 b 663 581 537 661 610 634 b 742 376 715 528 742 460 b 638 97 742 267 707 174 b 368 -18 568 20 478 -18 b 149 61 275 -18 202 8 b 71 267 97 114 71 182 m 503 894 b 583 861 537 872 564 861 b 656 929 616 861 640 884 l 690 929 b 645 849 680 895 665 868 b 576 819 625 829 602 819 b 488 853 559 819 529 831 b 410 886 446 875 420 886 b 338 815 378 886 354 863 l 303 815 b 349 898 314 850 329 878 b 417 928 369 918 392 928 b 503 894 439 928 468 917 "},"ö":{"ha":829,"x_min":0,"x_max":0,"o":"m 690 374 b 626 548 690 444 669 502 b 442 617 583 594 521 617 b 212 514 348 617 272 582 b 122 269 152 445 122 364 b 186 94 122 198 144 140 b 369 25 229 48 290 25 b 600 128 463 25 540 59 b 690 374 660 196 690 278 m 71 267 b 176 544 71 374 106 467 b 444 661 246 622 335 661 b 663 581 537 661 610 634 b 742 376 715 528 742 460 b 638 97 742 267 707 174 b 368 -18 568 20 478 -18 b 149 61 275 -18 202 8 b 71 267 97 114 71 182 m 386 864 b 358 875 375 864 366 868 b 346 907 350 882 346 893 b 360 941 346 920 350 931 b 392 956 369 951 380 956 b 419 944 403 956 412 952 b 431 914 427 937 431 927 b 417 879 431 901 426 889 b 386 864 409 869 398 864 m 615 864 b 575 907 588 864 575 878 b 588 941 575 920 579 931 b 619 956 597 951 607 956 b 648 944 631 956 640 952 b 660 914 656 937 660 927 b 647 879 660 901 655 889 b 615 864 638 869 627 864 "},"÷":{"ha":925,"x_min":0,"x_max":0,"o":"m 521 650 b 503 609 521 634 515 621 b 463 592 492 597 478 592 b 422 609 447 592 433 597 b 406 650 411 621 406 634 b 422 692 406 667 411 681 b 463 710 433 704 447 710 b 503 692 478 710 492 704 b 521 650 515 681 521 667 m 124 399 l 124 443 l 803 443 l 803 399 m 521 192 b 503 149 521 175 515 161 b 463 132 492 138 478 132 b 422 149 447 132 433 138 b 406 192 411 161 406 175 b 422 233 406 208 411 222 b 463 250 432 244 446 250 b 503 233 478 250 492 244 b 521 192 515 221 521 207 "},"ø":{"ha":829,"x_min":0,"x_max":0,"o":"m 369 24 b 600 127 463 24 540 58 b 690 374 660 196 690 278 b 649 518 690 430 676 478 l 178 103 b 369 24 223 50 287 24 m 628 546 b 442 618 584 594 522 618 b 212 515 348 618 272 584 b 122 269 152 447 122 365 b 158 131 122 214 134 168 m 18 6 l 121 96 b 71 267 88 141 71 198 b 176 544 71 374 106 467 b 444 661 246 622 335 661 b 664 579 538 661 611 634 l 764 667 l 785 640 l 686 553 b 742 376 723 506 742 448 b 638 97 742 267 707 174 b 368 -18 568 20 478 -18 b 142 69 270 -18 194 11 l 40 -19 "},"ù":{"ha":790,"x_min":0,"x_max":0,"o":"m 304 -18 b 151 41 238 -18 187 2 b 99 199 116 80 99 133 b 106 272 99 218 101 243 l 171 642 l 221 642 l 154 268 b 147 203 150 243 147 221 b 187 74 147 150 160 107 b 314 24 213 40 256 24 b 488 106 380 24 438 51 b 592 346 539 161 573 241 l 643 642 l 693 642 l 607 156 b 586 0 596 95 589 44 l 538 0 b 558 150 540 35 547 85 l 556 150 b 448 26 528 96 492 55 b 304 -18 404 -3 356 -18 m 333 983 l 478 783 l 435 783 l 269 983 "},"ú":{"ha":790,"x_min":0,"x_max":0,"o":"m 304 -18 b 151 41 238 -18 187 2 b 99 199 116 80 99 133 b 106 272 99 218 101 243 l 171 642 l 221 642 l 154 268 b 147 203 150 243 147 221 b 187 74 147 150 160 107 b 314 24 213 40 256 24 b 488 106 380 24 438 51 b 592 346 539 161 573 241 l 643 642 l 693 642 l 607 156 b 586 0 596 95 589 44 l 538 0 b 558 150 540 35 547 85 l 556 150 b 448 26 528 96 492 55 b 304 -18 404 -3 356 -18 m 446 783 l 403 783 l 579 983 l 643 983 "},"û":{"ha":790,"x_min":0,"x_max":0,"o":"m 304 -18 b 151 41 238 -18 187 2 b 99 199 116 80 99 133 b 106 272 99 218 101 243 l 171 642 l 221 642 l 154 268 b 147 203 150 243 147 221 b 187 74 147 150 160 107 b 314 24 213 40 256 24 b 488 106 380 24 438 51 b 592 346 539 161 573 241 l 643 642 l 693 642 l 607 156 b 586 0 596 95 589 44 l 538 0 b 558 150 540 35 547 85 l 556 150 b 448 26 528 96 492 55 b 304 -18 404 -3 356 -18 m 526 983 l 632 783 l 586 783 l 493 957 l 335 783 l 282 783 l 465 983 "},"ü":{"ha":790,"x_min":0,"x_max":0,"o":"m 304 -18 b 151 41 238 -18 187 2 b 99 199 116 80 99 133 b 106 272 99 218 101 243 l 171 642 l 221 642 l 154 268 b 147 203 150 243 147 221 b 187 74 147 150 160 107 b 314 24 213 40 256 24 b 488 106 380 24 438 51 b 592 346 539 161 573 241 l 643 642 l 693 642 l 607 156 b 586 0 596 95 589 44 l 538 0 b 558 150 540 35 547 85 l 556 150 b 448 26 528 96 492 55 b 304 -18 404 -3 356 -18 m 356 864 b 327 875 344 864 335 868 b 315 907 319 882 315 893 b 329 941 315 920 320 931 b 361 956 338 951 349 956 b 389 944 372 956 381 952 b 400 914 396 937 400 927 b 387 879 400 901 396 889 b 356 864 378 869 368 864 m 585 864 b 544 907 558 864 544 878 b 558 941 544 920 549 931 b 589 956 566 951 577 956 b 617 944 600 956 609 952 b 629 914 625 937 629 927 b 616 879 629 901 625 889 b 585 864 607 869 597 864 "},"ý":{"ha":618,"x_min":0,"x_max":0,"o":"m -18 -335 b -81 -326 -43 -335 -64 -332 l -72 -281 b -19 -290 -57 -287 -40 -290 b 67 -259 16 -290 44 -280 b 132 -169 89 -238 111 -208 l 219 -12 l 85 642 l 136 642 l 254 43 l 585 642 l 642 642 l 167 -197 b 85 -301 141 -244 114 -278 b -18 -335 57 -323 23 -335 m 385 783 l 342 783 l 518 983 l 582 983 "},"þ":{"ha":868,"x_min":0,"x_max":0,"o":"m 217 496 b 327 615 242 544 278 584 b 489 661 376 646 430 661 b 703 583 581 661 652 635 b 779 378 754 530 779 462 b 675 98 779 269 744 175 b 410 -18 606 21 517 -18 b 249 30 349 -18 295 -2 b 157 157 203 62 173 104 l 153 157 l 67 -333 l 17 -333 l 261 1050 l 310 1050 l 213 496 m 485 618 b 263 512 398 618 324 583 b 172 264 203 441 172 358 b 238 92 172 195 194 138 b 410 24 281 47 338 24 b 639 127 503 24 580 58 b 728 375 698 196 728 279 b 665 550 728 446 707 505 b 485 618 622 595 563 618 "},"ÿ":{"ha":618,"x_min":0,"x_max":0,"o":"m -18 -335 b -81 -326 -43 -335 -64 -332 l -72 -281 b -19 -290 -57 -287 -40 -290 b 67 -259 16 -290 44 -280 b 132 -169 89 -238 111 -208 l 219 -12 l 85 642 l 136 642 l 254 43 l 585 642 l 642 642 l 167 -197 b 85 -301 141 -244 114 -278 b -18 -335 57 -323 23 -335 m 288 864 b 258 875 275 864 266 868 b 247 907 251 882 247 893 b 261 941 247 920 252 931 b 293 956 270 951 281 956 b 321 944 304 956 313 952 b 332 914 328 937 332 927 b 319 879 332 901 328 889 b 288 864 310 869 300 864 m 517 864 b 476 907 490 864 476 878 b 490 941 476 920 481 931 b 521 956 498 951 509 956 b 549 944 532 956 541 952 b 561 914 557 937 561 927 b 548 879 561 901 557 889 b 517 864 539 869 529 864 "},"¤":{"ha":1138,"x_min":0,"x_max":0,"o":"m 794 164 b 569 85 733 111 658 85 b 344 167 481 85 406 112 l 210 32 b 176 67 198 47 187 58 l 310 200 b 231 431 257 262 231 339 b 306 654 231 518 256 592 b 241 718 301 659 279 680 b 176 781 203 756 181 777 b 211 814 181 784 193 795 l 338 688 b 569 772 401 744 479 772 b 800 689 662 772 739 744 l 925 814 l 942 797 b 960 781 951 788 957 782 l 835 656 b 911 431 886 594 911 519 b 829 197 911 339 884 261 b 960 67 871 152 914 108 b 942 49 957 65 951 59 b 926 32 932 38 927 33 l 794 164 m 858 431 b 779 640 858 514 832 584 b 569 725 726 697 656 725 b 361 640 483 725 414 697 b 282 431 308 584 282 514 b 361 218 282 346 308 275 b 569 132 414 161 483 132 b 779 218 656 132 726 161 b 858 431 832 275 858 346 "},"¦":{"ha":308,"x_min":0,"x_max":0,"o":"m 133 469 l 133 938 l 175 938 l 175 469 m 133 -243 l 133 225 l 175 225 l 175 -243 "},"¨":{"ha":333,"x_min":0,"x_max":0,"o":"m 147 864 b 119 875 136 864 127 868 b 107 907 111 882 107 893 b 121 941 107 920 112 931 b 153 956 130 951 141 956 b 181 944 164 956 173 952 b 192 914 188 937 192 927 b 178 879 192 901 187 889 b 147 864 170 869 159 864 m 376 864 b 336 907 350 864 336 878 b 349 941 336 920 341 931 b 381 956 358 951 369 956 b 409 944 392 956 401 952 b 421 914 417 937 421 927 b 408 879 421 901 416 889 b 376 864 399 869 388 864 "},"´":{"ha":333,"x_min":0,"x_max":0,"o":"m 207 783 l 164 783 l 340 983 l 404 983 "},"¸":{"ha":333,"x_min":0,"x_max":0,"o":"m 44 -315 b -86 -287 -6 -315 -49 -306 l -71 -256 b 43 -279 -39 -271 -1 -279 b 134 -257 83 -279 113 -272 b 165 -197 155 -242 165 -222 b 142 -151 165 -177 158 -162 b 86 -136 127 -141 108 -136 b -4 -154 50 -136 20 -142 l -19 -139 l 99 0 l 138 0 l 40 -115 b 103 -106 60 -109 81 -106 b 178 -126 131 -106 157 -112 b 211 -193 200 -140 211 -162 b 164 -285 211 -234 195 -264 b 44 -315 132 -305 93 -315 "},"¼":{"ha":1128,"x_min":0,"x_max":0,"o":"m 607 144 l 614 188 l 938 589 l 996 589 l 925 185 l 1018 185 l 1011 144 l 919 144 l 894 0 l 851 0 l 876 144 m 882 185 l 944 532 l 940 532 l 660 185 m 189 -39 l 156 -17 l 956 1024 l 988 1001 m 244 399 l 338 929 l 203 843 l 181 876 l 353 983 l 394 983 l 292 399 "},"½":{"ha":1128,"x_min":0,"x_max":0,"o":"m 189 -39 l 156 -17 l 956 1024 l 988 1001 m 244 399 l 338 929 l 203 843 l 181 876 l 353 983 l 394 983 l 292 399 m 990 40 l 982 0 l 619 0 l 628 44 l 882 272 b 976 372 926 312 958 345 b 1003 451 994 399 1003 425 b 972 531 1003 487 992 513 b 890 558 951 549 924 558 b 747 456 825 558 778 524 l 706 468 b 782 565 723 511 749 543 b 893 597 815 586 852 597 b 1008 560 944 597 982 585 b 1046 457 1033 536 1046 501 b 1017 356 1046 420 1036 386 b 906 239 997 326 960 287 l 685 40 "},"¾":{"ha":1128,"x_min":0,"x_max":0,"o":"m 447 567 b 392 436 447 511 429 468 b 256 389 356 405 310 389 b 146 417 213 389 176 398 b 81 496 115 436 94 463 l 124 510 b 256 429 145 456 189 429 b 365 467 302 429 338 442 b 404 565 391 492 404 525 b 365 658 404 607 391 638 b 264 689 338 679 305 689 l 239 689 l 246 728 l 271 728 b 390 763 321 728 360 740 b 433 858 419 787 433 819 b 403 935 433 893 423 918 b 329 961 384 953 359 961 b 210 899 282 961 242 940 l 178 924 b 333 1000 218 975 269 1000 b 437 965 376 1000 410 988 b 476 864 463 941 476 907 b 335 707 476 780 429 727 b 417 659 369 700 396 684 b 447 567 437 634 447 604 m 607 144 l 614 188 l 938 589 l 996 589 l 925 185 l 1018 185 l 1011 144 l 919 144 l 894 0 l 851 0 l 876 144 m 189 -39 l 156 -17 l 956 1024 l 988 1001 m 882 185 l 944 532 l 940 532 l 660 185 "},"Ā":{"ha":906,"x_min":0,"x_max":0,"o":"m 768 0 l 717 275 l 178 275 l 4 0 l -57 0 l 575 983 l 636 983 l 821 0 m 597 935 l 207 321 l 708 321 m 457 1132 l 464 1174 l 803 1174 l 796 1132 "},"ā":{"ha":721,"x_min":0,"x_max":0,"o":"m 557 144 b 543 0 548 91 543 43 l 497 0 b 513 138 497 37 502 83 l 508 138 b 256 -17 452 35 368 -17 b 116 23 204 -17 157 -3 b 54 149 75 49 54 91 b 93 268 54 196 67 236 b 207 340 119 300 157 325 b 363 373 257 356 309 367 b 553 382 416 379 480 382 b 563 463 559 414 563 441 b 390 618 563 566 505 618 b 190 546 325 618 258 594 l 165 578 b 394 661 234 633 310 661 b 553 612 461 661 514 645 b 611 471 592 579 611 532 b 604 401 611 455 609 432 m 546 342 l 511 342 b 104 156 240 342 104 280 b 151 56 104 109 120 76 b 265 25 183 35 221 25 b 444 103 338 25 398 51 b 536 293 491 156 521 219 m 268 854 l 275 896 l 614 896 l 607 854 "},"Ă":{"ha":906,"x_min":0,"x_max":0,"o":"m 768 0 l 717 275 l 178 275 l 4 0 l -57 0 l 575 983 l 636 983 l 821 0 m 597 935 l 207 321 l 708 321 m 818 1251 b 744 1121 806 1196 781 1152 b 611 1074 707 1089 663 1074 b 494 1120 562 1074 523 1089 b 451 1251 466 1151 451 1195 l 488 1251 b 522 1151 488 1207 499 1173 b 613 1117 544 1128 575 1117 b 785 1251 702 1117 760 1162 l 818 1251 "},"ă":{"ha":721,"x_min":0,"x_max":0,"o":"m 557 144 b 543 0 548 91 543 43 l 497 0 b 513 138 497 37 502 83 l 508 138 b 256 -17 452 35 368 -17 b 116 23 204 -17 157 -3 b 54 149 75 49 54 91 b 93 268 54 196 67 236 b 207 340 119 300 157 325 b 363 373 257 356 309 367 b 553 382 416 379 480 382 b 563 463 559 414 563 441 b 390 618 563 566 505 618 b 190 546 325 618 258 594 l 165 578 b 394 661 234 633 310 661 b 553 612 461 661 514 645 b 611 471 592 579 611 532 b 604 401 611 455 609 432 m 546 342 l 511 342 b 104 156 240 342 104 280 b 151 56 104 109 120 76 b 265 25 183 35 221 25 b 444 103 338 25 398 51 b 536 293 491 156 521 219 m 626 974 b 553 843 614 918 590 875 b 419 796 516 812 471 796 b 303 842 370 796 331 811 b 260 974 274 873 260 917 l 296 974 b 330 873 296 929 307 896 b 421 839 353 850 383 839 b 593 974 511 839 568 884 l 626 974 "},"Ą":{"ha":906,"x_min":0,"x_max":0,"o":"m 575 983 l 636 983 l 821 0 l 810 0 b 687 -121 750 -52 709 -92 b 653 -207 664 -150 653 -178 b 724 -269 653 -249 676 -269 b 819 -232 760 -269 792 -257 l 831 -264 b 713 -310 793 -294 753 -310 b 635 -286 682 -310 656 -302 b 604 -219 615 -270 604 -248 b 644 -116 604 -183 617 -149 b 768 0 670 -83 712 -44 l 717 275 l 178 275 l 4 0 l -57 0 m 708 321 l 597 935 l 207 321 "},"ą":{"ha":721,"x_min":0,"x_max":0,"o":"m 439 -310 b 363 -286 408 -310 383 -302 b 332 -219 342 -270 332 -248 b 371 -116 332 -183 345 -149 b 494 0 397 -83 438 -44 b 513 138 494 30 500 75 l 508 138 b 256 -17 452 35 368 -17 b 115 23 204 -17 157 -3 b 53 149 74 49 53 91 b 92 268 53 196 66 236 b 206 340 119 300 157 325 b 362 373 256 356 308 367 b 553 382 416 379 480 382 b 563 463 559 414 563 441 b 390 618 563 566 505 618 b 190 542 321 618 254 593 l 165 578 b 394 661 234 633 310 661 b 553 612 461 661 514 645 b 611 471 592 579 611 532 b 604 401 611 455 609 432 l 557 144 b 543 0 548 98 543 50 l 538 0 b 413 -120 477 -51 436 -91 b 379 -207 391 -149 379 -178 b 399 -253 379 -227 386 -243 b 451 -269 413 -264 430 -269 b 546 -232 487 -269 518 -257 l 557 -264 b 439 -310 519 -294 480 -310 m 268 24 b 446 101 341 24 400 49 b 535 283 491 152 521 213 l 546 342 l 511 342 b 104 156 240 342 104 280 b 153 55 104 109 120 76 b 268 24 185 34 224 24 "},"Ć":{"ha":1004,"x_min":0,"x_max":0,"o":"m 901 117 b 550 -26 804 21 687 -26 b 226 91 410 -26 302 13 b 111 399 149 169 111 272 b 186 701 111 507 136 608 b 396 925 236 794 306 869 b 692 1010 486 981 584 1010 b 874 974 757 1010 818 998 b 1004 872 930 950 974 916 l 964 840 b 689 964 900 923 808 964 b 317 796 542 964 418 908 b 165 406 216 684 165 554 b 264 128 165 293 198 200 b 551 19 330 56 425 19 b 869 150 675 19 781 63 m 675 1061 l 632 1061 l 808 1261 l 872 1261 "},"ć":{"ha":664,"x_min":0,"x_max":0,"o":"m 597 74 b 360 -22 531 10 451 -22 b 147 56 267 -22 196 4 b 72 258 97 107 72 175 b 181 542 72 368 108 462 b 451 661 253 621 343 661 b 665 569 550 661 622 631 l 628 539 b 555 597 611 564 587 583 b 453 618 523 611 489 618 b 218 512 359 618 281 583 b 124 263 155 441 124 358 b 186 90 124 192 144 134 b 364 22 228 45 287 22 b 568 104 447 22 515 50 l 597 74 m 464 783 l 421 783 l 597 983 l 661 983 "},"Ĉ":{"ha":1004,"x_min":0,"x_max":0,"o":"m 901 117 b 550 -26 804 21 687 -26 b 226 91 410 -26 302 13 b 111 399 149 169 111 272 b 186 701 111 507 136 608 b 396 925 236 794 306 869 b 692 1010 486 981 584 1010 b 874 974 757 1010 818 998 b 1004 872 930 950 974 916 l 964 840 b 689 964 900 923 808 964 b 317 796 542 964 418 908 b 165 406 216 684 165 554 b 264 128 165 293 198 200 b 551 19 330 56 425 19 b 869 150 675 19 781 63 m 769 1261 l 875 1061 l 829 1061 l 736 1235 l 578 1061 l 525 1061 l 708 1261 "},"ĉ":{"ha":664,"x_min":0,"x_max":0,"o":"m 597 74 b 360 -22 531 10 451 -22 b 147 56 267 -22 196 4 b 72 258 97 107 72 175 b 181 542 72 368 108 462 b 451 661 253 621 343 661 b 665 569 550 661 622 631 l 628 539 b 555 597 611 564 587 583 b 453 618 523 611 489 618 b 218 512 359 618 281 583 b 124 263 155 441 124 358 b 186 90 124 192 144 134 b 364 22 228 45 287 22 b 568 104 447 22 515 50 l 597 74 m 553 983 l 658 783 l 613 783 l 519 957 l 361 783 l 308 783 l 492 983 "},"Ċ":{"ha":1004,"x_min":0,"x_max":0,"o":"m 901 117 b 550 -26 804 21 687 -26 b 226 91 410 -26 302 13 b 111 399 149 169 111 272 b 186 701 111 507 136 608 b 396 925 236 794 306 869 b 692 1010 486 981 584 1010 b 874 974 757 1010 818 998 b 1004 872 930 950 974 916 l 964 840 b 689 964 900 923 808 964 b 317 796 542 964 418 908 b 165 406 216 684 165 554 b 264 128 165 293 198 200 b 551 19 330 56 425 19 b 869 150 675 19 781 63 m 732 1143 b 692 1185 705 1143 692 1157 b 705 1218 692 1198 696 1209 b 736 1232 714 1227 724 1232 b 764 1221 747 1232 756 1228 b 775 1192 771 1213 775 1204 b 763 1158 775 1179 771 1167 b 732 1143 754 1148 744 1143 "},"ċ":{"ha":664,"x_min":0,"x_max":0,"o":"m 597 74 b 360 -22 531 10 451 -22 b 147 56 267 -22 196 4 b 72 258 97 107 72 175 b 181 542 72 368 108 462 b 451 661 253 621 343 661 b 665 569 550 661 622 631 l 628 539 b 555 597 611 564 587 583 b 453 618 523 611 489 618 b 218 512 359 618 281 583 b 124 263 155 441 124 358 b 186 90 124 192 144 134 b 364 22 228 45 287 22 b 568 104 447 22 515 50 l 597 74 m 500 865 b 460 907 473 865 460 879 b 473 940 460 920 464 931 b 504 954 482 950 492 954 b 532 943 515 954 525 950 b 543 914 539 936 543 926 b 531 880 543 901 539 890 b 500 865 522 870 512 865 "},"Č":{"ha":1004,"x_min":0,"x_max":0,"o":"m 901 117 b 550 -26 804 21 687 -26 b 226 91 410 -26 302 13 b 111 399 149 169 111 272 b 186 701 111 507 136 608 b 396 925 236 794 306 869 b 692 1010 486 981 584 1010 b 874 974 757 1010 818 998 b 1004 872 930 950 974 916 l 964 840 b 689 964 900 923 808 964 b 317 796 542 964 418 908 b 165 406 216 684 165 554 b 264 128 165 293 198 200 b 551 19 330 56 425 19 b 869 150 675 19 781 63 m 668 1061 l 563 1261 l 610 1261 l 701 1088 l 861 1261 l 914 1261 l 731 1061 "},"č":{"ha":664,"x_min":0,"x_max":0,"o":"m 597 74 b 360 -22 531 10 451 -22 b 147 56 267 -22 196 4 b 72 258 97 107 72 175 b 181 542 72 368 108 462 b 451 661 253 621 343 661 b 665 569 550 661 622 631 l 628 539 b 555 597 611 564 587 583 b 453 618 523 611 489 618 b 218 512 359 618 281 583 b 124 263 155 441 124 358 b 186 90 124 192 144 134 b 364 22 228 45 287 22 b 568 104 447 22 515 50 l 597 74 m 439 783 l 333 983 l 381 983 l 472 810 l 632 983 l 685 983 l 501 783 "},"Ď":{"ha":1068,"x_min":0,"x_max":0,"o":"m 81 0 l 254 983 l 525 983 b 858 876 658 983 769 947 b 992 574 947 804 992 703 b 906 254 992 449 963 342 b 681 61 848 166 773 102 b 365 0 588 20 483 0 m 299 938 l 142 46 l 367 46 b 778 183 535 46 672 92 b 938 569 884 275 938 404 b 823 839 938 683 899 773 b 514 938 747 905 644 938 m 538 1061 l 432 1261 l 479 1261 l 571 1088 l 731 1261 l 783 1261 l 600 1061 "},"ď":{"ha":914,"x_min":0,"x_max":0,"o":"m 360 -18 b 147 60 268 -18 197 8 b 71 265 96 113 71 181 b 174 544 71 374 105 467 b 440 661 243 622 332 661 b 599 613 500 661 553 645 b 692 486 645 581 676 539 l 696 486 l 793 1050 l 843 1050 l 658 0 l 608 0 l 636 146 l 633 146 b 523 28 608 98 572 58 b 360 -18 474 -3 420 -18 m 364 24 b 583 131 449 24 522 59 b 674 378 643 202 674 284 b 609 549 674 446 652 503 b 439 618 566 595 509 618 b 210 515 345 618 269 584 b 121 268 150 447 121 364 b 184 93 121 198 142 139 b 364 24 226 47 286 24 m 907 724 l 867 724 l 994 983 l 1047 983 "},"Đ":{"ha":1068,"x_min":0,"x_max":0,"o":"m 63 493 l 71 535 l 175 535 l 254 983 l 525 983 b 858 877 658 983 769 948 b 992 576 947 806 992 706 b 815 149 992 391 933 249 b 365 0 697 50 547 0 l 81 0 l 167 493 m 590 535 l 583 493 l 219 493 l 142 46 l 367 46 b 778 183 535 46 672 92 b 938 569 884 275 938 404 b 823 839 938 683 899 773 b 514 938 747 905 644 938 l 299 938 l 228 535 "},"đ":{"ha":860,"x_min":0,"x_max":0,"o":"m 797 792 l 658 0 l 608 0 l 636 146 l 633 146 b 523 28 608 98 572 58 b 360 -18 474 -3 420 -18 b 147 60 268 -18 197 8 b 71 265 96 113 71 181 b 174 544 71 374 105 467 b 440 661 243 622 332 661 b 599 613 500 661 553 645 b 692 486 645 581 676 539 l 696 486 l 749 792 l 468 792 l 476 831 l 756 831 l 793 1050 l 843 1050 l 804 831 l 889 831 l 882 792 m 364 24 b 585 131 450 24 524 59 b 676 378 646 202 676 284 b 611 549 676 446 655 503 b 439 618 568 595 510 618 b 210 515 345 618 269 584 b 121 268 150 447 121 364 b 184 93 121 198 142 139 b 364 24 226 47 286 24 "},"Ē":{"ha":801,"x_min":0,"x_max":0,"o":"m 81 0 l 254 983 l 814 983 l 806 938 l 296 938 l 225 533 l 714 533 l 706 488 l 217 488 l 140 46 l 689 46 l 681 0 m 392 1132 l 399 1174 l 738 1174 l 731 1132 "},"ē":{"ha":774,"x_min":0,"x_max":0,"o":"m 124 318 b 121 275 122 298 121 283 b 188 92 121 197 143 136 b 368 25 232 47 292 25 b 604 138 462 25 540 63 l 636 111 b 365 -18 566 25 475 -18 b 150 60 275 -18 203 8 b 71 271 97 113 71 183 b 176 545 71 376 106 468 b 439 661 246 622 333 661 b 631 591 523 661 587 638 b 696 408 674 544 696 483 b 686 318 696 378 693 348 m 643 358 b 647 413 646 377 647 395 b 592 562 647 475 629 524 b 438 618 555 599 503 618 b 232 538 355 618 287 591 b 131 358 177 485 144 425 l 643 358 m 313 854 l 319 896 l 658 896 l 651 854 "},"Ĕ":{"ha":801,"x_min":0,"x_max":0,"o":"m 81 0 l 254 983 l 814 983 l 806 938 l 296 938 l 225 533 l 714 533 l 706 488 l 217 488 l 140 46 l 689 46 l 681 0 m 753 1251 b 679 1121 741 1196 716 1152 b 546 1074 642 1089 598 1074 b 429 1120 497 1074 458 1089 b 386 1251 400 1151 386 1195 l 422 1251 b 456 1151 422 1207 434 1173 b 547 1117 479 1128 509 1117 b 719 1251 637 1117 694 1162 l 753 1251 "},"ĕ":{"ha":774,"x_min":0,"x_max":0,"o":"m 124 318 b 121 275 122 298 121 283 b 188 92 121 197 143 136 b 368 25 232 47 292 25 b 604 138 462 25 540 63 l 636 111 b 365 -18 566 25 475 -18 b 150 60 275 -18 203 8 b 71 271 97 113 71 183 b 176 545 71 376 106 468 b 439 661 246 622 333 661 b 631 591 523 661 587 638 b 696 408 674 544 696 483 b 686 318 696 378 693 348 m 643 358 b 647 413 646 377 647 395 b 592 562 647 475 629 524 b 438 618 555 599 503 618 b 232 538 355 618 287 591 b 131 358 177 485 144 425 l 643 358 m 678 974 b 604 843 666 918 641 875 b 471 796 567 812 523 796 b 354 842 422 796 383 811 b 311 974 325 873 311 917 l 347 974 b 381 873 347 929 359 896 b 472 839 404 850 434 839 b 644 974 562 839 619 884 l 678 974 "},"Ė":{"ha":801,"x_min":0,"x_max":0,"o":"m 81 0 l 254 983 l 814 983 l 806 938 l 296 938 l 225 533 l 714 533 l 706 488 l 217 488 l 140 46 l 689 46 l 681 0 m 569 1143 b 529 1185 543 1143 529 1157 b 542 1218 529 1198 534 1209 b 574 1232 551 1227 562 1232 b 601 1221 585 1232 594 1228 b 613 1192 609 1213 613 1204 b 600 1158 613 1179 608 1167 b 569 1143 592 1148 581 1143 "},"ė":{"ha":774,"x_min":0,"x_max":0,"o":"m 124 318 b 121 275 122 298 121 283 b 188 92 121 197 143 136 b 368 25 232 47 292 25 b 604 138 462 25 540 63 l 636 111 b 365 -18 566 25 475 -18 b 150 60 275 -18 203 8 b 71 271 97 113 71 183 b 176 545 71 376 106 468 b 439 661 246 622 333 661 b 631 591 523 661 587 638 b 696 408 674 544 696 483 b 686 318 696 378 693 348 m 643 358 b 647 413 646 377 647 395 b 592 562 647 475 629 524 b 438 618 555 599 503 618 b 232 538 355 618 287 591 b 131 358 177 485 144 425 l 643 358 m 485 865 b 444 907 458 865 444 879 b 458 940 444 920 449 931 b 489 954 466 950 477 954 b 517 943 500 954 509 950 b 528 914 524 936 528 926 b 515 880 528 901 524 890 b 485 865 507 870 497 865 "},"Ę":{"ha":810,"x_min":0,"x_max":0,"o":"m 679 -264 b 561 -310 641 -294 602 -310 b 484 -286 531 -310 505 -302 b 453 -219 463 -270 453 -248 b 492 -116 453 -183 466 -149 b 615 0 518 -83 559 -44 l 81 0 l 254 983 l 818 983 l 810 938 l 296 938 l 225 533 l 718 533 l 711 488 l 217 488 l 140 46 l 693 46 l 685 0 l 658 0 b 535 -121 599 -52 558 -92 b 501 -207 513 -150 501 -178 b 572 -269 501 -249 525 -269 b 667 -232 608 -269 640 -257 "},"ę":{"ha":774,"x_min":0,"x_max":0,"o":"m 451 -264 b 333 -310 413 -294 374 -310 b 256 -286 302 -310 276 -302 b 225 -219 235 -270 225 -248 b 258 -122 225 -185 236 -153 b 363 -18 281 -92 315 -57 b 149 60 273 -18 202 8 b 71 271 97 113 71 183 b 176 544 71 375 106 467 b 439 661 247 622 334 661 b 631 591 523 661 587 638 b 696 408 674 544 696 483 b 686 318 696 378 693 348 l 124 318 b 121 275 122 298 121 283 b 188 91 121 197 143 136 b 368 24 232 46 292 24 b 606 142 463 24 543 63 l 636 111 b 413 -15 576 39 501 -3 b 304 -124 361 -60 325 -96 b 274 -207 284 -151 274 -179 b 344 -269 274 -249 297 -269 b 439 -232 380 -269 411 -257 m 643 358 b 647 413 646 377 647 395 b 592 562 647 475 629 524 b 438 618 555 599 503 618 b 232 538 355 618 287 591 b 131 358 177 485 144 425 l 643 358 "},"Ě":{"ha":801,"x_min":0,"x_max":0,"o":"m 81 0 l 254 983 l 814 983 l 806 938 l 296 938 l 225 533 l 714 533 l 706 488 l 217 488 l 140 46 l 689 46 l 681 0 m 517 1061 l 411 1261 l 458 1261 l 550 1088 l 710 1261 l 763 1261 l 579 1061 "},"ě":{"ha":774,"x_min":0,"x_max":0,"o":"m 124 318 b 121 275 122 298 121 283 b 188 92 121 197 143 136 b 368 25 232 47 292 25 b 604 138 462 25 540 63 l 636 111 b 365 -18 566 25 475 -18 b 150 60 275 -18 203 8 b 71 271 97 113 71 183 b 176 545 71 376 106 468 b 439 661 246 622 333 661 b 631 591 523 661 587 638 b 696 408 674 544 696 483 b 686 318 696 378 693 348 m 643 358 b 647 413 646 377 647 395 b 592 562 647 475 629 524 b 438 618 555 599 503 618 b 232 538 355 618 287 591 b 131 358 177 485 144 425 l 643 358 m 435 783 l 329 983 l 376 983 l 468 810 l 628 983 l 681 983 l 497 783 "},"Ĝ":{"ha":1069,"x_min":0,"x_max":0,"o":"m 547 -26 b 224 90 407 -26 300 13 b 111 399 149 168 111 271 b 186 700 111 506 136 606 b 394 925 236 794 306 869 b 688 1010 483 981 581 1010 b 875 974 755 1010 818 998 b 1007 874 932 951 976 917 l 964 840 b 849 931 938 878 900 908 b 685 964 798 953 743 964 b 316 795 539 964 416 908 b 165 406 216 683 165 553 b 263 128 165 293 198 200 b 549 19 327 56 423 19 b 849 90 668 19 768 43 l 911 450 l 664 450 l 672 494 l 971 494 l 893 61 b 547 -26 799 3 683 -26 m 775 1261 l 881 1061 l 835 1061 l 742 1235 l 583 1061 l 531 1061 l 714 1261 "},"ĝ":{"ha":861,"x_min":0,"x_max":0,"o":"m 640 153 b 527 31 613 102 576 61 b 364 -14 478 1 424 -14 b 152 66 273 -14 203 13 b 76 271 102 119 76 188 b 180 547 76 378 111 470 b 444 661 249 623 337 661 b 605 613 506 661 559 645 b 696 485 651 580 681 538 l 700 485 l 728 642 l 776 642 l 668 26 b 632 -110 659 -25 647 -71 b 570 -226 617 -150 597 -188 b 463 -312 544 -263 508 -292 b 304 -343 418 -333 365 -343 b 25 -219 183 -343 90 -302 l 58 -189 b 304 -299 122 -262 204 -299 b 438 -273 355 -299 400 -290 b 531 -199 477 -256 507 -231 b 585 -97 554 -166 572 -132 b 619 28 599 -61 610 -19 l 643 153 m 371 29 b 590 135 457 29 530 64 b 679 379 649 205 679 287 b 615 549 679 447 658 503 b 444 618 572 595 515 618 b 215 517 351 618 275 584 b 126 272 156 450 126 369 b 190 98 126 202 148 144 b 371 29 233 52 293 29 m 571 983 l 676 783 l 631 783 l 538 957 l 379 783 l 326 783 l 510 983 "},"Ğ":{"ha":1069,"x_min":0,"x_max":0,"o":"m 547 -26 b 224 90 407 -26 300 13 b 111 399 149 168 111 271 b 186 700 111 506 136 606 b 394 925 236 794 306 869 b 688 1010 483 981 581 1010 b 875 974 755 1010 818 998 b 1007 874 932 951 976 917 l 964 840 b 849 931 938 878 900 908 b 685 964 798 953 743 964 b 316 795 539 964 416 908 b 165 406 216 683 165 553 b 263 128 165 293 198 200 b 549 19 327 56 423 19 b 849 90 668 19 768 43 l 911 450 l 664 450 l 672 494 l 971 494 l 893 61 b 547 -26 799 3 683 -26 m 914 1251 b 840 1121 902 1196 877 1152 b 707 1074 803 1089 759 1074 b 590 1120 658 1074 619 1089 b 547 1251 562 1151 547 1195 l 583 1251 b 617 1151 583 1207 595 1173 b 708 1117 640 1128 670 1117 b 881 1251 798 1117 856 1162 l 914 1251 "},"ğ":{"ha":861,"x_min":0,"x_max":0,"o":"m 640 153 b 527 31 613 102 576 61 b 364 -14 478 1 424 -14 b 152 66 273 -14 203 13 b 76 271 102 119 76 188 b 180 547 76 378 111 470 b 444 661 249 623 337 661 b 605 613 506 661 559 645 b 696 485 651 580 681 538 l 700 485 l 728 642 l 776 642 l 668 26 b 632 -110 659 -25 647 -71 b 570 -226 617 -150 597 -188 b 463 -312 544 -263 508 -292 b 304 -343 418 -333 365 -343 b 25 -219 183 -343 90 -302 l 58 -189 b 304 -299 122 -262 204 -299 b 438 -273 355 -299 400 -290 b 531 -199 477 -256 507 -231 b 585 -97 554 -166 572 -132 b 619 28 599 -61 610 -19 l 643 153 m 371 29 b 590 135 457 29 530 64 b 679 379 649 205 679 287 b 615 549 679 447 658 503 b 444 618 572 595 515 618 b 215 517 351 618 275 584 b 126 272 156 450 126 369 b 190 98 126 202 148 144 b 371 29 233 52 293 29 m 703 974 b 629 843 691 918 666 875 b 496 796 592 812 548 796 b 379 842 447 796 408 811 b 336 974 350 873 336 917 l 372 974 b 406 873 372 929 384 896 b 497 839 429 850 459 839 b 669 974 587 839 644 884 l 703 974 "},"Ġ":{"ha":1069,"x_min":0,"x_max":0,"o":"m 547 -26 b 224 90 407 -26 300 13 b 111 399 149 168 111 271 b 186 700 111 506 136 606 b 394 925 236 794 306 869 b 688 1010 483 981 581 1010 b 875 974 755 1010 818 998 b 1007 874 932 951 976 917 l 964 840 b 849 931 938 878 900 908 b 685 964 798 953 743 964 b 316 795 539 964 416 908 b 165 406 216 683 165 553 b 263 128 165 293 198 200 b 549 19 327 56 423 19 b 849 90 668 19 768 43 l 911 450 l 664 450 l 672 494 l 971 494 l 893 61 b 547 -26 799 3 683 -26 m 728 1143 b 688 1185 701 1143 688 1157 b 701 1218 688 1198 692 1209 b 732 1232 709 1227 720 1232 b 760 1221 743 1232 752 1228 b 771 1192 767 1213 771 1204 b 758 1158 771 1179 767 1167 b 728 1143 750 1148 740 1143 "},"ġ":{"ha":861,"x_min":0,"x_max":0,"o":"m 640 153 b 527 31 613 102 576 61 b 364 -14 478 1 424 -14 b 152 66 273 -14 203 13 b 76 271 102 119 76 188 b 180 547 76 378 111 470 b 444 661 249 623 337 661 b 605 613 506 661 559 645 b 696 485 651 580 681 538 l 700 485 l 728 642 l 776 642 l 668 26 b 632 -110 659 -25 647 -71 b 570 -226 617 -150 597 -188 b 463 -312 544 -263 508 -292 b 304 -343 418 -333 365 -343 b 25 -219 183 -343 90 -302 l 58 -189 b 304 -299 122 -262 204 -299 b 438 -273 355 -299 400 -290 b 531 -199 477 -256 507 -231 b 585 -97 554 -166 572 -132 b 619 28 599 -61 610 -19 l 643 153 m 371 29 b 590 135 457 29 530 64 b 679 379 649 205 679 287 b 615 549 679 447 658 503 b 444 618 572 595 515 618 b 215 517 351 618 275 584 b 126 272 156 450 126 369 b 190 98 126 202 148 144 b 371 29 233 52 293 29 m 510 865 b 469 907 483 865 469 879 b 483 940 469 920 474 931 b 514 954 491 950 502 954 b 542 943 525 954 534 950 b 553 914 549 936 553 926 b 540 880 553 901 549 890 b 510 865 532 870 522 865 "},"Ģ":{"ha":1069,"x_min":0,"x_max":0,"o":"m 547 -26 b 224 90 407 -26 300 13 b 111 399 149 168 111 271 b 186 700 111 506 136 606 b 394 925 236 794 306 869 b 688 1010 483 981 581 1010 b 875 974 755 1010 818 998 b 1007 874 932 951 976 917 l 964 840 b 849 931 938 878 900 908 b 685 964 798 953 743 964 b 316 795 539 964 416 908 b 165 406 216 683 165 553 b 263 128 165 293 198 200 b 549 19 327 56 423 19 b 849 90 668 19 768 43 l 911 450 l 664 450 l 672 494 l 971 494 l 893 61 b 547 -26 799 3 683 -26 m 446 -319 l 406 -319 l 533 -60 l 586 -60 "},"ģ":{"ha":861,"x_min":0,"x_max":0,"o":"m 640 153 b 527 31 613 102 576 61 b 364 -14 478 1 424 -14 b 152 66 273 -14 203 13 b 76 271 102 119 76 188 b 180 547 76 378 111 470 b 444 661 249 623 337 661 b 605 613 506 661 559 645 b 696 485 651 580 681 538 l 700 485 l 728 642 l 776 642 l 668 26 b 632 -110 659 -25 647 -71 b 570 -226 617 -150 597 -188 b 463 -312 544 -263 508 -292 b 304 -343 418 -333 365 -343 b 25 -219 183 -343 90 -302 l 58 -189 b 304 -299 122 -262 204 -299 b 438 -273 355 -299 400 -290 b 531 -199 477 -256 507 -231 b 585 -97 554 -166 572 -132 b 619 28 599 -61 610 -19 l 643 153 m 371 29 b 590 135 457 29 530 64 b 679 379 649 205 679 287 b 615 549 679 447 658 503 b 444 618 572 595 515 618 b 215 517 351 618 275 584 b 126 272 156 450 126 369 b 190 98 126 202 148 144 b 371 29 233 52 293 29 m 581 1043 l 621 1043 l 493 783 l 439 783 "},"Ĥ":{"ha":994,"x_min":0,"x_max":0,"o":"m 739 0 l 825 486 l 218 486 l 132 0 l 81 0 l 254 983 l 306 983 l 225 532 l 832 532 l 913 983 l 964 983 l 790 0 m 689 1261 l 794 1061 l 749 1061 l 656 1235 l 497 1061 l 444 1061 l 628 1261 "},"ĥ":{"ha":790,"x_min":0,"x_max":0,"o":"m 217 500 b 322 619 244 552 279 592 b 464 661 366 647 413 661 b 617 602 531 661 581 641 b 669 443 652 563 669 510 b 663 365 669 421 667 395 l 597 0 l 547 0 l 614 374 b 619 439 618 392 619 414 b 580 567 619 491 606 534 b 454 618 553 601 512 618 b 281 535 390 618 333 590 b 178 297 230 479 195 400 l 125 0 l 75 0 l 260 1050 l 310 1050 l 214 500 m 581 1306 l 686 1106 l 640 1106 l 547 1279 l 389 1106 l 336 1106 l 519 1306 "},"Ħ":{"ha":994,"x_min":0,"x_max":0,"o":"m 739 0 l 825 486 l 218 486 l 132 0 l 81 0 l 254 983 l 306 983 l 261 733 l 868 733 l 913 983 l 964 983 l 790 0 m 832 532 l 861 694 l 254 694 l 225 532 "},"ħ":{"ha":790,"x_min":0,"x_max":0,"o":"m 215 493 b 320 617 241 547 276 588 b 464 661 364 647 412 661 b 617 603 530 661 581 642 b 672 457 654 565 672 516 b 665 385 672 439 670 415 l 597 0 l 547 0 l 614 374 b 621 447 619 400 621 424 b 581 570 621 497 607 538 b 454 618 554 602 512 618 b 281 540 388 618 331 592 b 182 324 232 488 199 416 l 125 0 l 75 0 l 214 792 l 129 792 l 136 831 l 221 831 l 260 1050 l 310 1050 l 271 831 l 550 831 l 542 792 l 264 792 l 213 493 "},"Ĩ":{"ha":336,"x_min":0,"x_max":0,"o":"m 81 0 l 254 983 l 306 983 l 132 0 m 313 1172 b 393 1139 347 1150 374 1139 b 465 1207 425 1139 450 1162 l 500 1207 b 455 1126 490 1173 475 1146 b 386 1097 435 1107 412 1097 b 297 1131 369 1097 339 1108 b 219 1164 256 1153 230 1164 b 147 1093 188 1164 164 1140 l 113 1093 b 159 1176 124 1128 139 1156 b 226 1206 179 1196 201 1206 b 313 1172 250 1206 278 1194 "},"ĩ":{"ha":324,"x_min":0,"x_max":0,"o":"m 75 0 l 189 642 l 239 642 l 125 0 m 257 894 b 338 861 291 872 318 861 b 410 929 370 861 394 884 l 444 929 b 399 849 434 895 419 868 b 331 819 379 829 356 819 b 242 853 313 819 283 831 b 164 886 200 875 174 886 b 92 815 132 886 108 863 l 57 815 b 103 898 68 850 84 878 b 171 928 123 918 146 928 b 257 894 194 928 223 917 "},"Ī":{"ha":336,"x_min":0,"x_max":0,"o":"m 81 0 l 254 983 l 306 983 l 132 0 m 131 1132 l 138 1174 l 476 1174 l 469 1132 "},"ī":{"ha":324,"x_min":0,"x_max":0,"o":"m 75 0 l 189 642 l 239 642 l 125 0 m 76 854 l 83 896 l 422 896 l 415 854 "},"Ĭ":{"ha":336,"x_min":0,"x_max":0,"o":"m 81 0 l 254 983 l 306 983 l 132 0 m 508 1251 b 435 1121 496 1196 472 1152 b 301 1074 398 1089 353 1074 b 185 1120 252 1074 213 1089 b 142 1251 156 1151 142 1195 l 178 1251 b 212 1151 178 1207 189 1173 b 303 1117 234 1128 265 1117 b 475 1251 393 1117 450 1162 l 508 1251 "},"ĭ":{"ha":324,"x_min":0,"x_max":0,"o":"m 75 0 l 189 642 l 239 642 l 125 0 m 453 974 b 379 843 441 918 416 875 b 246 796 342 812 298 796 b 129 842 197 796 158 811 b 86 974 100 873 86 917 l 122 974 b 156 873 122 929 134 896 b 247 839 179 850 209 839 b 419 974 337 839 394 884 l 453 974 "},"Į":{"ha":336,"x_min":0,"x_max":0,"o":"m 35 -310 b -43 -286 3 -310 -23 -302 b -74 -219 -63 -270 -74 -248 b -34 -115 -74 -183 -60 -149 b 89 1 -8 -82 33 -43 l 81 1 l 254 983 l 306 983 l 131 0 b 9 -120 72 -51 32 -91 b -25 -207 -14 -149 -25 -178 b 46 -269 -25 -249 -1 -269 b 140 -232 81 -269 113 -257 l 153 -264 b 35 -310 115 -294 75 -310 "},"į":{"ha":324,"x_min":0,"x_max":0,"o":"m 144 -264 b 26 -310 106 -294 67 -310 b -51 -286 -5 -310 -31 -302 b -82 -219 -72 -270 -82 -248 b -43 -116 -82 -183 -69 -149 b 81 0 -17 -83 24 -44 l 75 0 l 189 642 l 239 642 l 124 0 b 1 -121 64 -52 23 -92 b -33 -207 -22 -150 -33 -178 b 38 -269 -33 -249 -10 -269 b 132 -232 73 -269 104 -257 m 251 865 b 211 907 225 865 211 879 b 224 940 211 920 216 931 b 256 954 233 950 244 954 b 283 943 267 954 276 950 b 294 914 291 936 294 926 b 282 880 294 901 290 890 b 251 865 274 870 263 865 "},"İ":{"ha":336,"x_min":0,"x_max":0,"o":"m 81 0 l 254 983 l 306 983 l 132 0 m 308 1143 b 268 1185 281 1143 268 1157 b 281 1218 268 1198 272 1209 b 313 1232 290 1227 300 1232 b 340 1221 324 1232 333 1228 b 351 1192 348 1213 351 1204 b 339 1158 351 1179 347 1167 b 308 1143 331 1148 320 1143 "},"ı":{"ha":324,"x_min":0,"x_max":0,"o":"m 75 0 l 189 642 l 239 642 l 125 0 "},"Ĳ":{"ha":1007,"x_min":0,"x_max":0,"o":"m 81 0 l 254 983 l 306 983 l 132 0 m 858 272 b 565 -25 823 74 725 -25 b 417 22 506 -25 456 -9 b 342 140 377 54 352 93 l 388 158 b 451 58 399 117 420 83 b 565 21 483 33 521 21 b 729 88 638 21 692 43 b 807 278 766 133 792 196 l 932 983 l 983 983 l 858 272 "},"ĳ":{"ha":654,"x_min":0,"x_max":0,"o":"m 75 0 l 189 642 l 239 642 l 125 0 m 251 865 b 211 907 225 865 211 879 b 224 940 211 920 216 931 b 256 954 233 950 244 954 b 283 943 267 954 276 950 b 294 914 291 936 294 926 b 282 880 294 901 290 890 b 251 865 274 870 263 865 m 432 -133 b 374 -281 421 -195 402 -244 b 243 -335 347 -317 303 -335 b 192 -328 225 -335 207 -332 l 200 -286 b 242 -292 217 -290 231 -292 b 305 -279 267 -292 288 -287 b 346 -241 322 -271 336 -258 b 369 -192 356 -224 364 -207 b 383 -131 374 -176 379 -156 l 519 642 l 569 642 l 432 -133 m 581 865 b 542 907 555 865 542 879 b 555 940 542 920 546 931 b 586 954 564 950 574 954 b 614 943 597 954 606 950 b 625 914 621 936 625 926 b 612 880 625 901 621 890 b 581 865 603 870 593 865 "},"Ĵ":{"ha":668,"x_min":0,"x_max":0,"o":"m 518 272 b 226 -25 483 74 386 -25 b 76 22 166 -25 116 -9 b 1 140 37 54 12 93 l 47 158 b 111 58 58 117 80 83 b 226 21 143 33 181 21 b 390 89 298 21 352 44 b 468 278 427 134 453 197 l 592 983 l 643 983 m 697 1261 l 803 1061 l 757 1061 l 664 1235 l 506 1061 l 453 1061 l 636 1261 "},"ĵ":{"ha":325,"x_min":0,"x_max":0,"o":"m 103 -133 b 44 -281 91 -196 71 -246 b -87 -335 16 -317 -27 -335 b -139 -328 -105 -335 -122 -332 l -131 -286 b -89 -292 -112 -290 -98 -292 b 12 -249 -42 -292 -8 -278 b 54 -131 32 -221 46 -181 l 189 642 l 239 642 l 103 -133 m 299 983 l 404 783 l 358 783 l 265 957 l 107 783 l 54 783 l 238 983 "},"Ķ":{"ha":758,"x_min":0,"x_max":0,"o":"m 228 538 l 761 983 l 836 983 l 288 529 l 710 0 l 643 0 l 226 528 l 132 0 l 81 0 l 254 983 l 306 983 l 226 538 m 265 -322 l 225 -322 l 353 -62 l 406 -62 "},"ķ":{"ha":628,"x_min":0,"x_max":0,"o":"m 190 349 l 554 642 l 626 642 l 247 343 l 557 0 l 489 0 l 189 339 l 186 339 l 126 0 l 76 0 l 261 1050 l 310 1050 l 188 349 m 197 -321 l 157 -321 l 285 -61 l 338 -61 "},"ĸ":{"ha":628,"x_min":0,"x_max":0,"o":"m 188 349 l 190 349 l 554 642 l 626 642 l 247 343 l 557 0 l 489 0 l 189 339 l 185 339 l 126 0 l 76 0 l 189 642 l 239 642 "},"Ĺ":{"ha":697,"x_min":0,"x_max":0,"o":"m 81 0 l 254 983 l 306 983 l 140 46 l 619 46 l 613 0 m 308 1061 l 265 1061 l 442 1261 l 506 1261 "},"ĺ":{"ha":325,"x_min":0,"x_max":0,"o":"m 76 0 l 261 1050 l 311 1050 l 126 0 m 308 1100 l 265 1100 l 442 1300 l 506 1300 "},"Ļ":{"ha":697,"x_min":0,"x_max":0,"o":"m 81 0 l 254 983 l 306 983 l 140 46 l 619 46 l 613 0 m 246 -322 l 204 -322 l 332 -62 l 386 -62 "},"ļ":{"ha":325,"x_min":0,"x_max":0,"o":"m 76 0 l 261 1050 l 311 1050 l 126 0 m 14 -324 l -26 -324 l 101 -64 l 154 -64 "},"Ľ":{"ha":697,"x_min":0,"x_max":0,"o":"m 254 983 l 306 983 l 140 46 l 619 46 l 613 0 l 81 0 m 540 983 l 593 983 l 453 724 l 413 724 "},"ľ":{"ha":369,"x_min":0,"x_max":0,"o":"m 76 0 l 261 1050 l 311 1050 l 126 0 m 390 724 l 350 724 l 478 983 l 531 983 "},"Ŀ":{"ha":697,"x_min":0,"x_max":0,"o":"m 81 0 l 254 983 l 306 983 l 140 46 l 619 46 l 613 0 m 442 560 b 401 601 415 560 401 574 b 415 635 401 614 406 625 b 447 649 425 644 435 649 b 475 638 458 649 468 645 b 486 608 482 630 486 620 b 473 574 486 595 482 584 b 442 560 464 565 454 560 "},"ŀ":{"ha":376,"x_min":0,"x_max":0,"o":"m 76 0 l 261 1050 l 311 1050 l 126 0 m 365 601 b 325 643 338 601 325 615 b 338 676 325 656 329 667 b 369 690 347 686 357 690 b 397 679 381 690 390 687 b 408 650 405 672 408 662 b 396 616 408 637 404 626 b 365 601 388 606 377 601 "},"Ł":{"ha":697,"x_min":0,"x_max":0,"o":"m 29 264 l 40 319 l 153 407 l 254 983 l 306 983 l 211 446 l 549 704 l 539 650 l 200 389 l 142 47 l 621 47 l 613 0 l 81 0 l 142 351 "},"ł":{"ha":325,"x_min":0,"x_max":0,"o":"m 53 396 l 63 454 l 176 546 l 264 1050 l 314 1050 l 233 586 l 354 683 l 344 628 l 222 529 l 129 0 l 79 0 l 165 489 "},"Ń":{"ha":1040,"x_min":0,"x_max":0,"o":"m 768 0 l 297 919 l 294 919 l 132 0 l 81 0 l 254 983 l 321 983 l 793 68 l 796 68 l 957 983 l 1008 983 l 835 0 m 631 1061 l 588 1061 l 764 1261 l 828 1261 "},"ń":{"ha":790,"x_min":0,"x_max":0,"o":"m 464 661 b 617 602 531 661 581 641 b 669 443 652 563 669 510 b 663 365 669 421 667 395 l 597 0 l 547 0 l 614 374 b 619 440 618 392 619 414 b 580 568 619 492 606 535 b 454 618 553 601 512 618 b 281 535 390 618 333 590 b 178 297 230 479 195 400 l 125 0 l 75 0 l 161 486 b 182 642 171 545 178 597 l 231 642 b 210 492 228 609 221 559 l 213 492 b 319 617 239 545 275 587 b 464 661 364 646 412 661 m 447 783 l 404 783 l 581 983 l 644 983 "},"Ņ":{"ha":1040,"x_min":0,"x_max":0,"o":"m 768 0 l 297 919 l 294 919 l 132 0 l 81 0 l 254 983 l 322 983 l 794 68 l 797 68 l 958 983 l 1010 983 l 836 0 m 357 -322 l 315 -322 l 443 -62 l 497 -62 "},"ņ":{"ha":790,"x_min":0,"x_max":0,"o":"m 464 661 b 617 602 531 661 581 641 b 669 443 652 563 669 510 b 663 365 669 421 667 395 l 597 0 l 547 0 l 614 374 b 619 440 618 392 619 414 b 580 568 619 492 606 535 b 454 618 553 601 512 618 b 281 535 390 618 333 590 b 178 297 230 479 195 400 l 125 0 l 75 0 l 161 486 b 182 642 171 545 178 597 l 231 642 b 210 492 228 609 221 559 l 213 492 b 319 617 239 545 275 587 b 464 661 364 646 412 661 m 242 -321 l 201 -321 l 329 -61 l 382 -61 "},"Ň":{"ha":1040,"x_min":0,"x_max":0,"o":"m 768 0 l 297 919 l 294 919 l 132 0 l 81 0 l 254 983 l 321 983 l 793 68 l 796 68 l 957 983 l 1008 983 l 835 0 m 607 1061 l 501 1261 l 549 1261 l 640 1088 l 800 1261 l 853 1261 l 669 1061 "},"ň":{"ha":790,"x_min":0,"x_max":0,"o":"m 464 661 b 617 602 531 661 581 641 b 669 443 652 563 669 510 b 663 365 669 421 667 395 l 597 0 l 547 0 l 614 374 b 619 440 618 392 619 414 b 580 568 619 492 606 535 b 454 618 553 601 512 618 b 281 535 390 618 333 590 b 178 297 230 479 195 400 l 125 0 l 75 0 l 161 486 b 182 642 171 545 178 597 l 231 642 b 210 492 228 609 221 559 l 213 492 b 319 617 239 545 275 587 b 464 661 364 646 412 661 m 422 783 l 317 983 l 364 983 l 456 810 l 615 983 l 668 983 l 485 783 "},"ŉ":{"ha":790,"x_min":0,"x_max":0,"o":"m 464 661 b 617 602 531 661 581 641 b 669 443 652 563 669 510 b 663 365 669 421 667 395 l 597 0 l 547 0 l 614 374 b 619 440 618 392 619 414 b 580 568 619 492 606 535 b 454 618 553 601 512 618 b 281 535 390 618 333 590 b 178 297 230 479 195 400 l 125 0 l 75 0 l 161 486 b 182 642 171 545 178 597 l 231 642 b 210 492 228 609 221 559 l 213 492 b 319 617 239 545 275 587 b 464 661 364 646 412 661 m 183 724 l 143 724 l 271 983 l 324 983 "},"Ŋ":{"ha":1040,"x_min":0,"x_max":0,"o":"m 254 983 l 322 983 l 797 78 l 800 78 l 958 983 l 1010 983 l 813 -133 b 755 -281 801 -195 782 -244 b 624 -335 728 -317 684 -335 b 572 -328 605 -335 588 -332 l 579 -286 b 622 -292 598 -290 612 -292 b 722 -250 669 -292 703 -278 b 764 -131 741 -222 755 -182 l 785 -14 l 297 919 l 294 919 l 132 0 l 81 0 "},"ŋ":{"ha":790,"x_min":0,"x_max":0,"o":"m 340 -286 b 382 -292 359 -290 373 -292 b 482 -250 429 -292 463 -278 b 525 -131 501 -222 516 -182 l 614 374 b 621 447 619 400 621 424 b 581 570 621 497 607 538 b 454 618 554 602 512 618 b 281 540 388 618 331 592 b 182 324 232 488 199 416 l 125 0 l 75 0 l 161 486 b 182 642 171 545 178 597 l 231 642 b 210 492 228 609 221 559 l 213 492 b 319 617 239 545 275 587 b 464 661 364 646 412 661 b 617 603 530 661 581 642 b 672 457 654 565 672 516 b 665 385 672 439 670 415 l 574 -133 b 515 -281 563 -195 543 -244 b 385 -335 488 -317 444 -335 b 332 -328 366 -335 349 -332 "},"Ō":{"ha":1194,"x_min":0,"x_max":0,"o":"m 1064 574 b 964 854 1064 687 1031 781 b 676 964 897 927 801 964 b 409 884 577 964 488 937 b 228 678 330 831 269 762 b 165 408 186 595 165 505 b 265 128 165 294 199 201 b 554 19 332 56 428 19 b 821 98 653 19 742 46 b 1001 302 900 150 960 218 b 1064 574 1043 386 1064 476 m 111 406 b 272 832 111 571 165 713 b 678 1010 378 950 514 1010 b 1001 890 816 1010 924 970 b 1118 576 1079 809 1118 705 b 1048 278 1118 469 1095 369 b 847 57 1001 186 934 113 b 553 -26 760 1 662 -26 b 228 93 414 -26 306 13 b 111 406 150 173 111 277 m 556 1132 l 563 1174 l 901 1174 l 894 1132 "},"ō":{"ha":829,"x_min":0,"x_max":0,"o":"m 690 374 b 626 548 690 444 669 502 b 442 617 583 594 521 617 b 212 514 348 617 272 582 b 122 269 152 445 122 364 b 186 94 122 198 144 140 b 369 25 229 48 290 25 b 600 128 463 25 540 59 b 690 374 660 196 690 278 m 71 267 b 176 544 71 374 106 467 b 444 661 246 622 335 661 b 663 581 537 661 610 634 b 742 376 715 528 742 460 b 638 97 742 267 707 174 b 368 -18 568 20 478 -18 b 149 61 275 -18 202 8 b 71 267 97 114 71 182 m 324 854 l 331 896 l 669 896 l 663 854 "},"Ŏ":{"ha":1194,"x_min":0,"x_max":0,"o":"m 1064 574 b 964 854 1064 687 1031 781 b 676 964 897 927 801 964 b 409 884 577 964 488 937 b 228 678 330 831 269 762 b 165 408 186 595 165 505 b 265 128 165 294 199 201 b 554 19 332 56 428 19 b 821 98 653 19 742 46 b 1001 302 900 150 960 218 b 1064 574 1043 386 1064 476 m 111 406 b 272 832 111 571 165 713 b 678 1010 378 950 514 1010 b 1001 890 816 1010 924 970 b 1118 576 1079 809 1118 705 b 1048 278 1118 469 1095 369 b 847 57 1001 186 934 113 b 553 -26 760 1 662 -26 b 228 93 414 -26 306 13 b 111 406 150 173 111 277 m 915 1251 b 842 1121 903 1196 879 1152 b 708 1074 805 1089 760 1074 b 592 1120 659 1074 620 1089 b 549 1251 563 1151 549 1195 l 585 1251 b 619 1151 585 1207 596 1173 b 710 1117 641 1128 672 1117 b 882 1251 800 1117 857 1162 l 915 1251 "},"ŏ":{"ha":829,"x_min":0,"x_max":0,"o":"m 690 374 b 626 548 690 444 669 502 b 442 617 583 594 521 617 b 212 514 348 617 272 582 b 122 269 152 445 122 364 b 186 94 122 198 144 140 b 369 25 229 48 290 25 b 600 128 463 25 540 59 b 690 374 660 196 690 278 m 71 267 b 176 544 71 374 106 467 b 444 661 246 622 335 661 b 663 581 537 661 610 634 b 742 376 715 528 742 460 b 638 97 742 267 707 174 b 368 -18 568 20 478 -18 b 149 61 275 -18 202 8 b 71 267 97 114 71 182 m 681 974 b 607 843 669 918 644 875 b 474 796 570 812 525 796 b 357 842 425 796 386 811 b 314 974 328 873 314 917 l 350 974 b 384 873 350 929 361 896 b 475 839 407 850 437 839 b 647 974 565 839 622 884 l 681 974 "},"Ő":{"ha":1194,"x_min":0,"x_max":0,"o":"m 1064 574 b 964 854 1064 687 1031 781 b 676 964 897 927 801 964 b 409 884 577 964 488 937 b 228 678 330 831 269 762 b 165 408 186 595 165 505 b 265 128 165 294 199 201 b 554 19 332 56 428 19 b 821 98 653 19 742 46 b 1001 302 900 150 960 218 b 1064 574 1043 386 1064 476 m 111 406 b 272 832 111 571 165 713 b 678 1010 378 950 514 1010 b 1001 890 816 1010 924 970 b 1118 576 1079 809 1118 705 b 1048 278 1118 469 1095 369 b 847 57 1001 186 934 113 b 553 -26 760 1 662 -26 b 228 93 414 -26 306 13 b 111 406 150 173 111 277 m 758 1261 l 824 1261 l 626 1061 l 582 1061 m 947 1261 l 1014 1261 l 815 1061 l 771 1061 "},"ő":{"ha":829,"x_min":0,"x_max":0,"o":"m 690 374 b 626 548 690 444 669 502 b 442 617 583 594 521 617 b 212 514 348 617 272 582 b 122 269 152 445 122 364 b 186 94 122 198 144 140 b 369 25 229 48 290 25 b 600 128 463 25 540 59 b 690 374 660 196 690 278 m 71 267 b 176 544 71 374 106 467 b 444 661 246 622 335 661 b 663 581 537 661 610 634 b 742 376 715 528 742 460 b 638 97 742 267 707 174 b 368 -18 568 20 478 -18 b 149 61 275 -18 202 8 b 71 267 97 114 71 182 m 531 983 l 596 983 l 399 783 l 354 783 m 719 983 l 786 983 l 588 783 l 543 783 "},"Ŕ":{"ha":828,"x_min":0,"x_max":0,"o":"m 650 0 l 431 485 l 218 485 l 132 0 l 81 0 l 254 983 l 494 983 b 700 931 576 983 644 966 b 783 767 756 895 783 841 b 765 656 783 725 777 688 b 717 577 752 623 736 597 b 647 528 697 557 674 541 b 566 500 619 515 592 506 b 483 489 540 494 512 491 l 707 0 m 731 761 b 661 896 731 822 707 867 b 482 939 615 925 555 939 l 297 939 l 225 529 l 433 529 b 731 761 631 529 731 606 m 499 1061 l 456 1061 l 632 1261 l 696 1261 "},"ŕ":{"ha":446,"x_min":0,"x_max":0,"o":"m 213 492 b 449 661 268 605 347 661 b 485 658 462 661 474 660 l 475 613 b 442 615 464 614 453 615 b 271 530 373 615 316 587 b 179 306 225 473 195 398 l 125 0 l 75 0 l 161 486 b 182 642 171 545 178 597 l 231 642 b 210 492 228 609 221 559 l 213 492 m 272 783 l 229 783 l 406 983 l 469 983 "},"Ŗ":{"ha":828,"x_min":0,"x_max":0,"o":"m 650 0 l 431 485 l 218 485 l 132 0 l 81 0 l 254 983 l 494 983 b 700 931 576 983 644 966 b 783 767 756 895 783 841 b 765 656 783 725 777 688 b 717 577 752 623 736 597 b 647 528 697 557 674 541 b 566 500 619 515 592 506 b 483 489 540 494 512 491 l 707 0 m 731 761 b 661 896 731 822 707 867 b 482 939 615 925 555 939 l 297 939 l 225 529 l 433 529 b 731 761 631 529 731 606 m 251 -322 l 211 -322 l 339 -62 l 392 -62 "},"ŗ":{"ha":446,"x_min":0,"x_max":0,"o":"m 213 492 b 449 661 268 605 347 661 b 485 658 462 661 474 660 l 475 613 b 442 615 464 614 453 615 b 271 530 373 615 316 587 b 179 306 225 473 195 398 l 125 0 l 75 0 l 161 486 b 182 642 171 545 178 597 l 231 642 b 210 492 228 609 221 559 l 213 492 m 10 -324 l -31 -324 l 97 -64 l 150 -64 "},"Ř":{"ha":828,"x_min":0,"x_max":0,"o":"m 650 0 l 431 485 l 218 485 l 132 0 l 81 0 l 254 983 l 494 983 b 700 931 576 983 644 966 b 783 767 756 895 783 841 b 765 656 783 725 777 688 b 717 577 752 623 736 597 b 647 528 697 557 674 541 b 566 500 619 515 592 506 b 483 489 540 494 512 491 l 707 0 m 731 761 b 661 896 731 822 707 867 b 482 939 615 925 555 939 l 297 939 l 225 529 l 433 529 b 731 761 631 529 731 606 m 474 1061 l 368 1261 l 415 1261 l 507 1088 l 667 1261 l 719 1261 l 536 1061 "},"ř":{"ha":446,"x_min":0,"x_max":0,"o":"m 213 492 b 449 661 268 605 347 661 b 485 658 462 661 474 660 l 475 613 b 442 615 464 614 453 615 b 271 530 373 615 316 587 b 179 306 225 473 195 398 l 125 0 l 75 0 l 161 486 b 182 642 171 545 178 597 l 231 642 b 210 492 228 609 221 559 l 213 492 m 307 783 l 201 983 l 249 983 l 340 810 l 500 983 l 553 983 l 369 783 "},"Ś":{"ha":789,"x_min":0,"x_max":0,"o":"m 724 860 b 493 964 671 929 594 964 b 298 901 421 964 356 943 b 211 732 240 860 211 803 b 260 608 211 676 227 635 b 415 531 292 580 344 555 b 608 431 500 503 564 470 b 674 271 652 393 674 339 b 582 58 674 185 643 114 b 329 -26 521 2 437 -26 b 40 108 198 -26 101 19 l 81 139 b 336 19 140 59 225 19 b 542 88 420 19 489 42 b 621 265 594 134 621 193 b 560 403 621 325 601 372 b 379 490 520 435 460 464 b 210 582 301 515 245 546 b 157 726 175 618 157 666 b 256 933 157 813 190 882 b 497 1010 322 984 403 1010 b 660 977 560 1010 615 999 b 763 892 706 955 740 927 m 489 1061 l 446 1061 l 622 1261 l 686 1261 "},"ś":{"ha":575,"x_min":0,"x_max":0,"o":"m 58 111 b 238 26 104 55 163 26 b 368 68 290 26 334 40 b 419 175 402 96 419 131 b 383 260 419 210 407 239 b 258 317 358 282 317 301 b 104 472 156 344 104 396 b 172 611 104 531 127 578 b 333 661 218 644 271 661 b 451 638 378 661 417 653 b 526 575 486 622 511 601 l 490 549 b 333 618 455 595 403 618 b 206 581 282 618 240 606 b 154 476 171 557 154 522 b 186 401 154 443 165 418 b 289 356 207 384 242 369 b 427 287 353 338 399 315 b 469 179 455 259 469 223 b 403 37 469 120 447 72 b 239 -17 359 1 305 -17 b 21 81 143 -17 70 16 m 347 783 l 304 783 l 481 983 l 544 983 "},"Ŝ":{"ha":789,"x_min":0,"x_max":0,"o":"m 724 860 b 493 964 671 929 594 964 b 298 901 421 964 356 943 b 211 732 240 860 211 803 b 260 608 211 676 227 635 b 415 531 292 580 344 555 b 608 431 500 503 564 470 b 674 271 652 393 674 339 b 582 58 674 185 643 114 b 329 -26 521 2 437 -26 b 40 108 198 -26 101 19 l 81 139 b 336 19 140 59 225 19 b 542 88 420 19 489 42 b 621 265 594 134 621 193 b 560 403 621 325 601 372 b 379 490 520 435 460 464 b 210 582 301 515 245 546 b 157 726 175 618 157 666 b 256 933 157 813 190 882 b 497 1010 322 984 403 1010 b 660 977 560 1010 615 999 b 763 892 706 955 740 927 m 592 1261 l 697 1061 l 651 1061 l 558 1235 l 400 1061 l 347 1061 l 531 1261 "},"ŝ":{"ha":575,"x_min":0,"x_max":0,"o":"m 58 111 b 238 26 104 55 163 26 b 368 68 290 26 334 40 b 419 175 402 96 419 131 b 383 260 419 210 407 239 b 258 317 358 282 317 301 b 104 472 156 344 104 396 b 172 611 104 531 127 578 b 333 661 218 644 271 661 b 451 638 378 661 417 653 b 526 575 486 622 511 601 l 490 549 b 333 618 455 595 403 618 b 206 581 282 618 240 606 b 154 476 171 557 154 522 b 186 401 154 443 165 418 b 289 356 207 384 242 369 b 427 287 353 338 399 315 b 469 179 455 259 469 223 b 403 37 469 120 447 72 b 239 -17 359 1 305 -17 b 21 81 143 -17 70 16 m 439 983 l 544 783 l 499 783 l 406 957 l 247 783 l 194 783 l 378 983 "},"Ş":{"ha":789,"x_min":0,"x_max":0,"o":"m 724 860 b 493 964 671 929 594 964 b 298 901 421 964 356 943 b 211 732 240 860 211 803 b 260 608 211 676 227 635 b 415 531 292 580 344 555 b 608 431 500 503 564 470 b 674 271 652 393 674 339 b 589 64 674 187 645 119 b 354 -25 532 9 454 -20 l 279 -115 b 342 -106 299 -109 319 -106 b 417 -126 370 -106 396 -112 b 450 -193 439 -140 450 -162 b 403 -285 450 -234 434 -264 b 283 -315 371 -305 331 -315 b 153 -287 233 -315 190 -306 l 168 -256 b 282 -279 200 -271 238 -279 b 373 -257 322 -279 352 -272 b 404 -197 394 -242 404 -222 b 381 -151 404 -177 397 -162 b 325 -136 366 -141 347 -136 b 235 -154 289 -136 259 -142 l 219 -139 l 315 -26 b 40 108 188 -22 97 23 l 81 139 b 336 19 140 59 225 19 b 542 88 420 19 489 42 b 621 265 594 134 621 193 b 560 403 621 325 601 372 b 379 490 520 435 460 464 b 210 582 301 515 245 546 b 157 726 175 618 157 666 b 256 933 157 813 190 882 b 497 1010 322 984 403 1010 b 660 977 560 1010 615 999 b 763 892 706 955 740 927 "},"ş":{"ha":575,"x_min":0,"x_max":0,"o":"m 58 111 b 238 26 104 55 163 26 b 368 68 290 26 334 40 b 419 175 402 96 419 131 b 383 260 419 210 407 239 b 258 317 358 282 317 301 b 104 472 156 344 104 396 b 172 611 104 531 127 578 b 333 661 218 644 271 661 b 451 638 378 661 417 653 b 526 575 486 622 511 601 l 490 549 b 333 618 455 595 403 618 b 206 581 282 618 240 606 b 154 476 171 557 154 522 b 186 401 154 443 165 418 b 289 356 207 384 242 369 b 427 287 353 338 399 315 b 469 179 455 259 469 223 b 413 45 469 125 450 80 b 267 -15 375 10 326 -10 l 183 -115 b 246 -106 203 -109 224 -106 b 322 -126 275 -106 300 -112 b 354 -193 343 -140 354 -162 b 307 -285 354 -234 338 -264 b 188 -315 275 -305 236 -315 b 57 -287 138 -315 94 -306 l 72 -256 b 186 -279 104 -271 142 -279 b 277 -257 226 -279 256 -272 b 308 -197 298 -242 308 -222 b 285 -151 308 -177 301 -162 b 229 -136 270 -141 251 -136 b 139 -154 193 -136 163 -142 l 124 -139 l 228 -17 b 21 81 136 -14 67 19 "},"Ţ":{"ha":729,"x_min":0,"x_max":0,"o":"m 326 0 l 275 0 l 439 938 l 103 938 l 111 983 l 829 983 l 821 938 l 492 938 m 208 -322 l 168 -322 l 296 -62 l 350 -62 "},"ţ":{"ha":413,"x_min":0,"x_max":0,"o":"m 419 600 l 243 600 l 165 161 b 161 110 163 146 161 129 b 253 29 161 56 192 29 b 325 43 278 29 302 34 l 322 3 b 236 -14 295 -8 267 -14 b 144 15 197 -14 166 -4 b 110 100 121 34 110 62 b 115 156 110 117 112 135 l 194 600 l 51 600 l 58 642 l 200 642 l 233 829 l 283 829 l 250 642 l 426 642 m 113 -322 l 72 -322 l 200 -62 l 253 -62 "},"Ť":{"ha":729,"x_min":0,"x_max":0,"o":"m 492 938 l 326 0 l 275 0 l 439 938 l 103 938 l 111 983 l 829 983 l 821 938 m 453 1061 l 347 1261 l 394 1261 l 486 1088 l 646 1261 l 699 1261 l 515 1061 "},"ť":{"ha":426,"x_min":0,"x_max":0,"o":"m 236 -14 b 144 15 197 -14 166 -4 b 110 100 121 34 110 62 b 115 156 110 117 112 135 l 194 600 l 51 600 l 58 642 l 200 642 l 233 829 l 283 829 l 250 642 l 426 642 l 419 600 l 243 600 l 165 161 b 161 110 163 146 161 129 b 253 29 161 56 192 29 b 325 43 278 29 302 34 l 322 3 b 236 -14 295 -8 267 -14 m 419 756 l 379 756 l 507 1015 l 560 1015 "},"Ŧ":{"ha":758,"x_min":0,"x_max":0,"o":"m 467 717 l 340 0 l 289 0 l 415 717 l 150 717 l 157 756 l 421 756 l 454 938 l 117 938 l 126 983 l 844 983 l 835 938 l 506 938 l 474 756 l 738 756 l 731 717 "},"ŧ":{"ha":413,"x_min":0,"x_max":0,"o":"m 236 -14 b 144 15 197 -14 166 -4 b 110 100 121 34 110 62 b 115 156 110 117 112 135 l 151 363 l 28 363 l 36 400 l 158 400 l 194 600 l 51 600 l 58 642 l 200 642 l 233 829 l 283 829 l 250 642 l 426 642 l 419 600 l 243 600 l 208 400 l 369 400 l 363 363 l 201 363 l 165 161 b 161 110 163 146 161 129 b 253 29 161 56 192 29 b 325 43 278 29 302 34 l 322 3 b 236 -14 295 -8 267 -14 "},"Ũ":{"ha":992,"x_min":0,"x_max":0,"o":"m 867 371 b 826 221 856 314 843 264 b 755 97 809 177 785 136 b 634 6 725 57 684 27 b 457 -26 584 -16 525 -26 b 211 56 349 -26 267 1 b 128 283 156 110 128 186 b 138 388 128 318 131 352 l 243 983 l 294 983 l 189 382 b 181 290 183 351 181 321 b 248 94 181 210 203 144 b 457 19 293 44 363 19 b 619 51 520 19 574 30 b 726 139 665 72 700 101 b 785 251 752 177 772 214 b 817 378 798 287 808 330 l 924 983 l 975 983 m 636 1172 b 717 1139 670 1150 697 1139 b 789 1207 749 1139 773 1162 l 824 1207 b 778 1126 813 1173 798 1146 b 710 1097 759 1107 736 1097 b 621 1131 692 1097 663 1108 b 543 1164 579 1153 553 1164 b 471 1093 512 1164 488 1140 l 436 1093 b 483 1176 447 1128 463 1156 b 550 1206 503 1196 525 1206 b 636 1172 572 1206 601 1194 "},"ũ":{"ha":790,"x_min":0,"x_max":0,"o":"m 304 -18 b 151 41 238 -18 187 2 b 99 199 116 80 99 133 b 106 272 99 218 101 243 l 171 642 l 221 642 l 154 268 b 147 203 150 243 147 221 b 187 74 147 150 160 107 b 314 24 213 40 256 24 b 488 106 380 24 438 51 b 592 346 539 161 573 241 l 643 642 l 693 642 l 607 156 b 586 0 596 95 589 44 l 538 0 b 558 150 540 35 547 85 l 556 150 b 448 26 528 96 492 55 b 304 -18 404 -3 356 -18 m 474 894 b 554 861 508 872 535 861 b 626 929 587 861 611 884 l 661 929 b 616 849 651 895 636 868 b 547 819 596 829 573 819 b 458 853 530 819 500 831 b 381 886 417 875 391 886 b 308 815 349 886 325 863 l 274 815 b 320 898 285 850 300 878 b 388 928 340 918 363 928 b 474 894 411 928 439 917 "},"Ū":{"ha":992,"x_min":0,"x_max":0,"o":"m 867 371 b 826 221 856 314 843 264 b 755 97 809 177 785 136 b 634 6 725 57 684 27 b 457 -26 584 -16 525 -26 b 211 56 349 -26 267 1 b 128 283 156 110 128 186 b 138 388 128 318 131 352 l 243 983 l 294 983 l 189 382 b 181 290 183 351 181 321 b 248 94 181 210 203 144 b 457 19 293 44 363 19 b 619 51 520 19 574 30 b 726 139 665 72 700 101 b 785 251 752 177 772 214 b 817 378 798 287 808 330 l 924 983 l 975 983 m 457 1132 l 464 1174 l 803 1174 l 796 1132 "},"ū":{"ha":790,"x_min":0,"x_max":0,"o":"m 304 -18 b 151 41 238 -18 187 2 b 99 199 116 80 99 133 b 106 272 99 218 101 243 l 171 642 l 221 642 l 154 268 b 147 203 150 243 147 221 b 187 74 147 150 160 107 b 314 24 213 40 256 24 b 488 106 380 24 438 51 b 592 346 539 161 573 241 l 643 642 l 693 642 l 607 156 b 586 0 596 95 589 44 l 538 0 b 558 150 540 35 547 85 l 556 150 b 448 26 528 96 492 55 b 304 -18 404 -3 356 -18 m 294 854 l 301 896 l 640 896 l 633 854 "},"Ŭ":{"ha":992,"x_min":0,"x_max":0,"o":"m 867 371 b 826 221 856 314 843 264 b 755 97 809 177 785 136 b 634 6 725 57 684 27 b 457 -26 584 -16 525 -26 b 211 56 349 -26 267 1 b 128 283 156 110 128 186 b 138 388 128 318 131 352 l 243 983 l 294 983 l 189 382 b 181 290 183 351 181 321 b 248 94 181 210 203 144 b 457 19 293 44 363 19 b 619 51 520 19 574 30 b 726 139 665 72 700 101 b 785 251 752 177 772 214 b 817 378 798 287 808 330 l 924 983 l 975 983 m 818 1251 b 744 1121 806 1196 781 1152 b 611 1074 707 1089 663 1074 b 494 1120 562 1074 523 1089 b 451 1251 466 1151 451 1195 l 488 1251 b 522 1151 488 1207 499 1173 b 613 1117 544 1128 575 1117 b 785 1251 702 1117 760 1162 l 818 1251 "},"ŭ":{"ha":790,"x_min":0,"x_max":0,"o":"m 304 -18 b 151 41 238 -18 187 2 b 99 199 116 80 99 133 b 106 272 99 218 101 243 l 171 642 l 221 642 l 154 268 b 147 203 150 243 147 221 b 187 74 147 150 160 107 b 314 24 213 40 256 24 b 488 106 380 24 438 51 b 592 346 539 161 573 241 l 643 642 l 693 642 l 607 156 b 586 0 596 95 589 44 l 538 0 b 558 150 540 35 547 85 l 556 150 b 448 26 528 96 492 55 b 304 -18 404 -3 356 -18 m 653 974 b 579 843 641 918 616 875 b 446 796 542 812 498 796 b 329 842 397 796 358 811 b 286 974 300 873 286 917 l 322 974 b 356 873 322 929 334 896 b 447 839 379 850 409 839 b 619 974 537 839 594 884 l 653 974 "},"Ů":{"ha":992,"x_min":0,"x_max":0,"o":"m 867 371 b 826 221 856 314 843 264 b 755 97 809 177 785 136 b 634 6 725 57 684 27 b 457 -26 584 -16 525 -26 b 211 56 349 -26 267 1 b 128 283 156 110 128 186 b 138 388 128 318 131 352 l 243 983 l 294 983 l 189 382 b 181 290 183 351 181 321 b 248 94 181 210 203 144 b 457 19 293 44 363 19 b 619 51 520 19 574 30 b 726 139 665 72 700 101 b 785 251 752 177 772 214 b 817 378 798 287 808 330 l 924 983 l 975 983 m 733 1200 b 711 1260 733 1224 726 1244 b 649 1285 696 1277 675 1285 b 568 1249 615 1285 588 1273 b 538 1161 548 1225 538 1195 b 559 1101 538 1137 545 1117 b 622 1078 573 1086 594 1078 b 702 1114 655 1078 681 1090 b 733 1200 723 1138 733 1167 m 506 1158 b 546 1267 506 1201 519 1237 b 650 1313 573 1297 607 1313 b 735 1282 686 1313 714 1302 b 765 1203 755 1262 765 1235 b 725 1094 765 1160 752 1124 b 621 1049 698 1064 663 1049 b 536 1079 585 1049 556 1059 b 506 1158 516 1100 506 1126 "},"ů":{"ha":790,"x_min":0,"x_max":0,"o":"m 304 -18 b 151 41 238 -18 187 2 b 99 199 116 80 99 133 b 106 272 99 218 101 243 l 171 642 l 221 642 l 154 268 b 147 203 150 243 147 221 b 187 74 147 150 160 107 b 314 24 213 40 256 24 b 488 106 380 24 438 51 b 592 346 539 161 573 241 l 643 642 l 693 642 l 607 156 b 586 0 596 95 589 44 l 538 0 b 558 150 540 35 547 85 l 556 150 b 448 26 528 96 492 55 b 304 -18 404 -3 356 -18 m 569 922 b 547 983 569 946 562 966 b 485 1007 532 999 512 1007 b 404 971 451 1007 425 995 b 374 883 384 947 374 918 b 395 824 374 859 381 839 b 458 800 409 808 431 800 b 538 836 491 800 517 812 b 569 922 559 860 569 889 m 342 881 b 382 990 342 923 355 959 b 486 1035 409 1020 444 1035 b 571 1004 522 1035 550 1025 b 601 925 591 984 601 957 b 561 816 601 882 588 846 b 457 771 534 786 500 771 b 372 801 421 771 393 781 b 342 881 352 822 342 848 "},"Ű":{"ha":992,"x_min":0,"x_max":0,"o":"m 867 371 b 826 221 856 314 843 264 b 755 97 809 177 785 136 b 634 6 725 57 684 27 b 457 -26 584 -16 525 -26 b 211 56 349 -26 267 1 b 128 283 156 110 128 186 b 138 388 128 318 131 352 l 243 983 l 294 983 l 189 382 b 181 290 183 351 181 321 b 248 94 181 210 203 144 b 457 19 293 44 363 19 b 619 51 520 19 574 30 b 726 139 665 72 700 101 b 785 251 752 177 772 214 b 817 378 798 287 808 330 l 924 983 l 975 983 m 665 1261 l 731 1261 l 533 1061 l 489 1061 m 854 1261 l 921 1261 l 722 1061 l 678 1061 "},"ű":{"ha":790,"x_min":0,"x_max":0,"o":"m 304 -18 b 151 41 238 -18 187 2 b 99 199 116 80 99 133 b 106 272 99 218 101 243 l 171 642 l 221 642 l 154 268 b 147 203 150 243 147 221 b 187 74 147 150 160 107 b 314 24 213 40 256 24 b 488 106 380 24 438 51 b 592 346 539 161 573 241 l 643 642 l 693 642 l 607 156 b 586 0 596 95 589 44 l 538 0 b 558 150 540 35 547 85 l 556 150 b 448 26 528 96 492 55 b 304 -18 404 -3 356 -18 m 500 983 l 565 983 l 368 783 l 324 783 m 689 983 l 756 983 l 557 783 l 513 783 "},"Ų":{"ha":992,"x_min":0,"x_max":0,"o":"m 567 -264 b 449 -310 529 -294 489 -310 b 371 -286 417 -310 391 -302 b 340 -219 350 -270 340 -248 b 372 -126 340 -187 351 -156 b 468 -26 392 -97 425 -63 l 456 -26 b 209 56 347 -26 265 1 b 125 274 153 110 125 183 b 136 379 125 300 129 335 l 243 983 l 294 983 l 189 382 b 178 279 181 340 178 306 b 247 91 178 201 201 139 b 457 19 292 43 363 19 b 619 51 520 19 574 30 b 726 139 665 72 700 101 b 785 251 752 177 772 214 b 817 378 798 287 808 330 l 924 983 l 975 983 l 867 371 b 830 232 857 319 845 273 b 768 115 815 191 794 152 b 666 23 742 77 708 47 b 519 -22 624 -1 575 -16 b 417 -128 470 -67 436 -102 b 389 -207 398 -154 389 -180 b 460 -269 389 -249 413 -269 b 554 -232 495 -269 526 -257 "},"ų":{"ha":790,"x_min":0,"x_max":0,"o":"m 481 -310 b 404 -286 450 -310 425 -302 b 374 -219 384 -270 374 -248 b 413 -116 374 -183 387 -149 b 536 0 438 -83 480 -44 l 538 0 b 558 150 540 35 547 85 l 556 150 b 448 26 528 96 492 55 b 304 -18 404 -3 356 -18 b 151 40 238 -18 187 1 b 96 186 114 78 96 127 b 103 257 96 204 98 227 l 171 642 l 221 642 l 154 268 b 147 194 150 242 147 218 b 188 72 147 144 161 103 b 314 24 214 40 256 24 b 487 101 380 24 437 50 b 586 318 536 153 569 225 l 643 642 l 693 642 l 607 156 b 586 0 596 97 589 45 l 579 0 b 455 -120 519 -51 478 -91 b 421 -207 432 -149 421 -178 b 441 -253 421 -227 428 -243 b 493 -269 454 -264 472 -269 b 588 -232 528 -269 560 -257 l 599 -264 b 481 -310 561 -294 521 -310 "},"Ŵ":{"ha":1317,"x_min":0,"x_max":0,"o":"m 919 0 l 850 0 l 771 919 l 768 919 l 304 0 l 235 0 l 147 983 l 201 983 l 279 63 l 283 63 l 744 983 l 814 983 l 894 63 l 899 63 l 1361 983 l 1418 983 m 860 1261 l 965 1061 l 919 1061 l 826 1235 l 668 1061 l 615 1061 l 799 1261 "},"ŵ":{"ha":979,"x_min":0,"x_max":0,"o":"m 668 0 l 610 0 l 531 581 l 528 581 l 213 0 l 154 0 l 96 642 l 147 642 l 193 58 l 196 58 l 513 642 l 569 642 l 647 58 l 650 58 l 940 642 l 994 642 m 636 983 l 742 783 l 696 783 l 603 957 l 444 783 l 392 783 l 575 983 "},"Ŷ":{"ha":732,"x_min":0,"x_max":0,"o":"m 392 428 l 317 0 l 265 0 l 340 428 l 108 983 l 167 983 l 374 475 l 788 983 l 851 983 m 561 1261 l 667 1061 l 621 1061 l 528 1235 l 369 1061 l 317 1061 l 500 1261 "},"ŷ":{"ha":618,"x_min":0,"x_max":0,"o":"m -18 -335 b -81 -326 -43 -335 -64 -332 l -72 -281 b -19 -290 -57 -287 -40 -290 b 67 -259 16 -290 44 -280 b 132 -169 89 -238 111 -208 l 219 -12 l 85 642 l 136 642 l 254 43 l 585 642 l 642 642 l 167 -197 b 85 -301 141 -244 114 -278 b -18 -335 57 -323 23 -335 m 454 983 l 560 783 l 514 783 l 421 957 l 263 783 l 210 783 l 393 983 "},"Ź":{"ha":815,"x_min":0,"x_max":0,"o":"m 3 0 l 11 51 l 793 938 l 188 938 l 196 983 l 861 983 l 851 929 l 71 46 l 708 46 l 700 0 m 519 1061 l 476 1061 l 653 1261 l 717 1261 "},"ź":{"ha":603,"x_min":0,"x_max":0,"o":"m -6 0 l 0 40 l 510 600 l 122 600 l 129 642 l 581 642 l 572 600 l 65 43 l 489 43 l 482 0 m 357 783 l 314 783 l 490 983 l 554 983 "},"Ż":{"ha":815,"x_min":0,"x_max":0,"o":"m 3 0 l 11 51 l 793 938 l 188 938 l 196 983 l 861 983 l 851 929 l 71 46 l 708 46 l 700 0 m 553 1143 b 513 1185 526 1143 513 1157 b 526 1218 513 1198 517 1209 b 557 1232 534 1227 545 1232 b 585 1221 568 1232 577 1228 b 596 1192 592 1213 596 1204 b 583 1158 596 1179 592 1167 b 553 1143 575 1148 565 1143 "},"ż":{"ha":603,"x_min":0,"x_max":0,"o":"m -6 0 l 0 40 l 510 600 l 122 600 l 129 642 l 581 642 l 572 600 l 65 43 l 489 43 l 482 0 m 389 865 b 349 907 362 865 349 879 b 362 940 349 920 353 931 b 393 954 371 950 381 954 b 421 943 404 954 413 950 b 432 914 428 936 432 926 b 419 880 432 901 428 890 b 389 865 411 870 401 865 "},"ƒ":{"ha":786,"x_min":0,"x_max":0,"o":"m 763 932 b 692 956 744 948 720 956 b 525 799 619 956 563 903 l 443 571 l 603 571 l 596 531 l 428 531 l 232 -14 b 153 -149 212 -72 185 -117 b 24 -197 122 -181 78 -197 b -64 -175 -15 -197 -44 -190 l -37 -136 b 28 -153 -17 -147 5 -153 b 129 -110 71 -153 105 -138 b 194 17 153 -81 175 -39 l 376 531 l 224 531 l 231 571 l 392 571 l 472 799 b 693 1000 519 933 592 1000 b 793 969 735 1000 768 990 "},"Ș":{"ha":789,"x_min":0,"x_max":0,"o":"m 724 860 b 493 964 671 929 594 964 b 298 901 421 964 356 943 b 211 732 240 860 211 803 b 260 608 211 676 227 635 b 415 531 292 580 344 555 b 608 431 500 503 564 470 b 674 271 652 393 674 339 b 582 58 674 185 643 114 b 329 -26 521 2 437 -26 b 40 108 198 -26 101 19 l 81 139 b 336 19 140 59 225 19 b 542 88 420 19 489 42 b 621 265 594 134 621 193 b 560 403 621 325 601 372 b 379 490 520 435 460 464 b 210 582 301 515 245 546 b 157 726 175 618 157 666 b 256 933 157 813 190 882 b 497 1010 322 984 403 1010 b 660 977 560 1010 615 999 b 763 892 706 955 740 927 m 235 -321 l 194 -321 l 322 -61 l 375 -61 "},"ș":{"ha":575,"x_min":0,"x_max":0,"o":"m 58 111 b 238 26 104 55 163 26 b 368 68 290 26 334 40 b 419 175 402 96 419 131 b 383 260 419 210 407 239 b 258 317 358 282 317 301 b 104 472 156 344 104 396 b 172 611 104 531 127 578 b 333 661 218 644 271 661 b 451 638 378 661 417 653 b 526 575 486 622 511 601 l 490 549 b 333 618 455 595 403 618 b 206 581 282 618 240 606 b 154 476 171 557 154 522 b 186 401 154 443 165 418 b 289 356 207 384 242 369 b 427 287 353 338 399 315 b 469 179 455 259 469 223 b 403 37 469 120 447 72 b 239 -17 359 1 305 -17 b 21 81 143 -17 70 16 m 133 -322 l 93 -322 l 221 -62 l 274 -62 "},"Ț":{"ha":729,"x_min":0,"x_max":0,"o":"m 492 938 l 326 0 l 275 0 l 439 938 l 103 938 l 111 983 l 829 983 l 821 938 m 208 -322 l 168 -322 l 296 -62 l 350 -62 "},"ț":{"ha":413,"x_min":0,"x_max":0,"o":"m 236 -14 b 144 15 197 -14 166 -4 b 110 100 121 34 110 62 b 115 156 110 117 112 135 l 194 600 l 51 600 l 58 642 l 200 642 l 233 829 l 283 829 l 250 642 l 426 642 l 419 600 l 243 600 l 165 161 b 161 110 163 146 161 129 b 253 29 161 56 192 29 b 325 43 278 29 302 34 l 322 3 b 236 -14 295 -8 267 -14 m 200 -62 l 253 -62 l 113 -322 l 72 -322 "},"ȷ":{"ha":325,"x_min":0,"x_max":0,"o":"m 103 -133 b 44 -281 91 -196 71 -246 b -87 -335 16 -317 -27 -335 b -139 -328 -105 -335 -122 -332 l -131 -286 b -89 -292 -112 -290 -98 -292 b 12 -249 -42 -292 -8 -278 b 54 -131 32 -221 46 -181 l 189 642 l 239 642 l 103 -133 "},"ˆ":{"ha":333,"x_min":0,"x_max":0,"o":"m 310 983 l 415 783 l 369 783 l 276 957 l 118 783 l 65 783 l 249 983 "},"ˇ":{"ha":333,"x_min":0,"x_max":0,"o":"m 206 783 l 100 983 l 147 983 l 239 810 l 399 983 l 451 983 l 268 783 "},"ˉ":{"ha":333,"x_min":0,"x_max":0,"o":"m 86 1132 l 93 1174 l 432 1174 l 425 1132 "},"˘":{"ha":333,"x_min":0,"x_max":0,"o":"m 461 974 b 388 843 449 918 425 875 b 254 796 350 812 306 796 b 138 842 205 796 166 811 b 94 974 109 873 94 917 l 131 974 b 165 873 131 929 142 896 b 256 839 187 850 218 839 b 428 974 345 839 403 884 l 461 974 "},"˙":{"ha":333,"x_min":0,"x_max":0,"o":"m 264 865 b 224 907 237 865 224 879 b 237 940 224 920 228 931 b 268 954 246 950 256 954 b 296 943 279 954 288 950 b 307 914 303 936 307 926 b 294 880 307 901 303 890 b 264 865 286 870 276 865 "},"˚":{"ha":333,"x_min":0,"x_max":0,"o":"m 365 922 b 343 983 365 946 358 966 b 281 1007 328 999 307 1007 b 200 971 247 1007 220 995 b 169 883 180 947 169 918 b 191 824 169 859 177 839 b 254 800 205 808 226 800 b 334 836 287 800 313 812 b 365 922 355 860 365 889 m 138 881 b 178 990 138 923 151 959 b 282 1035 205 1020 239 1035 b 367 1004 318 1035 346 1025 b 397 925 387 984 397 957 b 357 816 397 882 384 846 b 253 771 330 786 295 771 b 168 801 217 771 188 781 b 138 881 148 822 138 848 "},"˛":{"ha":333,"x_min":0,"x_max":0,"o":"m 181 -264 b 61 -310 143 -294 103 -310 b -15 -286 31 -310 5 -302 b -46 -219 -36 -270 -46 -248 b -7 -116 -46 -183 -33 -149 b 117 0 19 -83 60 -44 l 160 0 b 37 -121 100 -52 59 -92 b 3 -207 14 -150 3 -178 b 74 -269 3 -249 26 -269 b 168 -232 109 -269 140 -257 "},"˜":{"ha":333,"x_min":0,"x_max":0,"o":"m 265 894 b 346 861 300 872 326 861 b 418 929 378 861 402 884 l 453 929 b 408 849 443 895 428 868 b 339 819 388 829 365 819 b 250 853 321 819 292 831 b 172 886 208 875 182 886 b 100 815 141 886 117 863 l 65 815 b 112 898 76 850 92 878 b 179 928 132 918 154 928 b 265 894 202 928 231 917 "},"˝":{"ha":333,"x_min":0,"x_max":0,"o":"m 263 983 l 328 983 l 131 783 l 86 783 m 451 983 l 518 983 l 319 783 l 275 783 "},"Δ":{"ha":918,"x_min":0,"x_max":0,"o":"m 44 0 l 426 989 l 488 989 l 876 0 m 457 942 l 110 46 l 807 46 "},"Ω":{"ha":1028,"x_min":0,"x_max":0,"o":"m 507 956 b 242 848 402 956 314 920 b 133 581 169 776 133 687 b 201 351 133 492 156 415 b 393 231 246 286 310 246 l 393 0 l 83 0 l 83 44 l 353 44 l 353 196 b 156 338 269 220 204 267 b 83 581 107 409 83 490 b 208 881 83 700 125 800 b 507 1001 291 961 390 1001 b 807 881 625 1001 725 961 b 931 581 889 800 931 700 b 859 338 931 490 907 409 b 661 196 811 267 745 220 l 661 44 l 931 44 l 931 0 l 621 0 l 621 231 b 813 351 704 246 768 286 b 881 581 858 415 881 492 b 772 848 881 687 844 776 b 507 956 700 920 612 956 "},"μ":{"ha":772,"x_min":0,"x_max":0,"o":"m 171 642 l 171 267 b 364 25 171 106 235 25 b 533 104 431 25 488 51 b 600 318 578 157 600 228 l 600 642 l 649 642 l 649 156 l 654 0 l 601 0 l 601 149 l 599 149 b 501 27 579 98 547 57 b 356 -18 456 -3 407 -18 b 171 76 270 -18 209 13 l 171 -317 l 121 -317 l 121 642 "},"π":{"ha":775,"x_min":0,"x_max":0,"o":"m 713 10 b 639 -7 689 -1 665 -7 b 597 1 622 -7 608 -4 b 571 19 585 6 576 12 b 558 51 565 26 561 36 b 552 89 554 65 553 78 b 551 139 552 100 551 117 l 551 597 l 201 597 l 201 0 l 153 0 l 153 597 l 56 597 l 56 642 l 706 642 l 706 597 l 600 597 l 600 124 b 613 55 600 92 604 69 b 664 33 621 41 638 33 b 713 42 681 33 698 36 l 713 10 "},"Ѐ":{"ha":815,"x_min":0,"x_max":0,"o":"m 81 0 l 254 983 l 814 983 l 806 938 l 296 938 l 225 533 l 714 533 l 706 488 l 217 488 l 140 46 l 689 46 l 681 0 m 454 1261 l 599 1061 l 556 1061 l 390 1261 "},"Ё":{"ha":815,"x_min":0,"x_max":0,"o":"m 493 1192 b 480 1157 493 1179 489 1167 b 449 1142 471 1147 461 1142 b 419 1153 437 1142 427 1145 b 407 1185 411 1160 407 1171 b 421 1219 407 1198 412 1209 b 453 1233 430 1228 441 1233 b 493 1192 480 1233 493 1219 m 722 1192 b 708 1157 722 1179 718 1167 b 676 1142 699 1147 688 1142 b 647 1153 664 1142 655 1145 b 636 1185 640 1160 636 1171 b 650 1219 636 1198 641 1209 b 682 1233 659 1228 670 1233 b 710 1222 693 1233 703 1230 b 722 1192 718 1215 722 1205 m 254 983 l 814 983 l 806 938 l 296 938 l 225 533 l 714 533 l 706 488 l 217 488 l 140 46 l 689 46 l 681 0 l 81 0 "},"Ђ":{"ha":1058,"x_min":0,"x_max":0,"o":"m 586 -12 b 479 -3 544 -12 508 -9 l 489 44 b 588 33 521 37 554 33 b 831 107 690 33 772 58 b 921 314 891 156 921 225 b 852 472 921 381 898 434 b 656 529 806 510 741 529 b 413 493 570 529 489 517 l 326 0 l 275 0 l 439 938 l 103 938 l 111 983 l 829 983 l 821 938 l 490 938 l 421 540 b 665 574 503 563 585 574 b 892 503 762 574 837 550 b 974 317 946 457 974 394 b 871 73 974 211 939 130 b 586 -12 802 16 707 -12 "},"Ѓ":{"ha":672,"x_min":0,"x_max":0,"o":"m 489 1061 l 446 1061 l 621 1261 l 686 1261 m 254 983 l 772 983 l 764 938 l 296 938 l 132 0 l 81 0 "},"Є":{"ha":1004,"x_min":0,"x_max":0,"o":"m 550 -26 b 226 95 411 -26 303 14 b 111 411 150 176 111 281 b 272 834 111 576 165 717 b 675 1010 378 951 513 1010 b 869 974 744 1010 808 998 b 1007 875 931 951 976 918 l 965 842 b 844 931 938 879 898 908 b 674 964 791 953 734 964 b 350 840 548 964 440 923 b 178 533 260 758 203 656 l 724 533 l 717 488 l 169 488 b 165 421 167 465 165 443 b 264 133 165 304 198 208 b 551 19 330 57 425 19 b 869 150 675 19 781 63 l 901 117 b 550 -26 804 21 687 -26 "},"Ѕ":{"ha":789,"x_min":0,"x_max":0,"o":"m 724 860 b 493 964 671 929 594 964 b 298 901 421 964 356 943 b 211 732 240 860 211 803 b 260 608 211 676 227 635 b 415 531 292 580 344 555 b 608 431 500 503 564 470 b 674 271 652 393 674 339 b 582 58 674 185 643 114 b 329 -26 521 2 437 -26 b 40 108 198 -26 101 19 l 81 139 b 336 19 140 59 225 19 b 542 88 420 19 489 42 b 621 265 594 134 621 193 b 560 403 621 325 601 372 b 379 490 520 435 460 464 b 210 582 301 515 245 546 b 157 726 175 618 157 666 b 256 933 157 813 190 882 b 497 1010 322 984 403 1010 b 660 977 560 1010 615 999 b 763 892 706 955 740 927 "},"І":{"ha":336,"x_min":0,"x_max":0,"o":"m 254 983 l 306 983 l 132 0 l 81 0 "},"Ї":{"ha":336,"x_min":0,"x_max":0,"o":"m 236 1192 b 223 1157 236 1179 232 1167 b 192 1142 214 1147 204 1142 b 163 1153 181 1142 171 1145 b 151 1185 155 1160 151 1171 b 165 1219 151 1198 156 1209 b 197 1233 175 1228 185 1233 b 225 1222 208 1233 218 1230 b 236 1192 232 1215 236 1205 m 465 1192 b 452 1157 465 1179 461 1167 b 421 1142 443 1147 433 1142 b 381 1185 394 1142 381 1156 b 394 1219 381 1198 385 1209 b 425 1233 403 1228 413 1233 b 465 1192 452 1233 465 1219 m 254 983 l 306 983 l 132 0 l 81 0 "},"Ј":{"ha":668,"x_min":0,"x_max":0,"o":"m 226 -25 b 76 22 166 -25 116 -9 b 1 140 37 54 12 93 l 47 158 b 111 58 58 117 80 83 b 226 21 143 33 181 21 b 390 89 298 21 352 44 b 468 278 427 134 453 197 l 592 983 l 643 983 l 518 272 b 226 -25 483 74 386 -25 "},"Љ":{"ha":1506,"x_min":0,"x_max":0,"o":"m 40 -10 b -28 -1 17 -10 -6 -7 l -15 46 b 38 38 4 40 22 38 b 266 212 133 38 209 96 b 417 763 323 328 373 512 l 456 983 l 1003 983 l 925 540 l 1126 540 b 1338 481 1212 540 1282 521 b 1421 303 1393 442 1421 382 b 1324 84 1421 213 1389 140 b 1050 0 1260 28 1169 0 l 778 0 l 943 938 l 499 938 l 465 747 b 302 172 420 485 366 294 b 40 -10 239 51 151 -10 m 1061 46 b 1286 115 1157 46 1232 69 b 1367 300 1340 160 1367 222 b 1299 447 1367 367 1344 416 b 1131 494 1254 479 1198 494 l 917 494 l 838 46 "},"Њ":{"ha":1468,"x_min":0,"x_max":0,"o":"m 254 983 l 306 983 l 226 540 l 833 540 l 913 983 l 964 983 l 886 540 l 1089 540 b 1299 481 1173 540 1243 521 b 1382 303 1354 442 1382 382 b 1286 84 1382 213 1350 140 b 1013 0 1222 28 1131 0 l 740 0 l 826 494 l 219 494 l 132 0 l 81 0 m 1022 46 b 1249 115 1119 46 1195 69 b 1329 300 1302 160 1329 222 b 1262 447 1329 367 1307 416 b 1093 494 1217 479 1161 494 l 879 494 l 800 46 "},"Ћ":{"ha":1060,"x_min":0,"x_max":0,"o":"m 439 938 l 103 938 l 111 983 l 829 983 l 821 938 l 492 938 l 421 542 b 672 574 499 563 582 574 b 869 521 761 574 827 556 b 933 376 912 486 933 438 b 929 321 933 357 932 338 l 871 0 l 819 0 l 876 325 b 881 369 879 340 881 355 b 828 485 881 418 863 456 b 667 528 794 513 740 528 b 414 496 569 528 485 517 l 326 0 l 275 0 "},"Ќ":{"ha":758,"x_min":0,"x_max":0,"o":"m 513 1061 l 469 1061 l 646 1261 l 710 1261 m 254 983 l 304 983 l 226 538 l 761 983 l 836 983 l 286 529 l 710 0 l 643 0 l 225 528 l 132 0 l 81 0 "},"Ѝ":{"ha":1019,"x_min":0,"x_max":0,"o":"m 471 1261 l 536 1261 l 681 1061 l 638 1061 m 254 983 l 304 983 l 144 78 l 149 78 l 924 983 l 989 983 l 815 0 l 764 0 l 924 908 l 921 908 l 144 0 l 81 0 "},"Ў":{"ha":822,"x_min":0,"x_max":0,"o":"m 128 983 l 185 983 l 424 356 l 876 983 l 938 983 l 318 126 b 217 24 285 80 251 46 b 101 -10 184 1 145 -10 b 38 -1 81 -10 60 -7 l 46 49 b 106 38 63 41 82 38 b 192 64 138 38 167 46 b 274 149 218 81 245 110 l 388 306 m 550 1074 b 435 1118 502 1074 463 1088 b 390 1243 406 1148 391 1189 l 426 1250 b 462 1151 427 1207 439 1175 b 551 1117 484 1128 514 1117 b 721 1250 635 1117 691 1161 l 754 1243 b 680 1117 740 1188 716 1147 b 550 1074 644 1088 601 1074 "},"Џ":{"ha":986,"x_min":0,"x_max":0,"o":"m 407 0 l 81 0 l 254 983 l 306 983 l 140 46 l 739 46 l 904 983 l 956 983 l 783 0 l 457 0 l 413 -253 l 363 -253 "},"А":{"ha":906,"x_min":0,"x_max":0,"o":"m 575 983 l 636 983 l 821 0 l 768 0 l 717 275 l 178 275 l 4 0 l -57 0 m 708 321 l 597 935 l 207 321 "},"Б":{"ha":838,"x_min":0,"x_max":0,"o":"m 254 983 l 794 983 l 786 936 l 297 936 l 226 540 l 447 540 b 658 481 532 540 603 521 b 742 303 714 442 742 382 b 645 84 742 213 709 140 b 372 0 581 28 490 0 l 81 0 m 382 46 b 607 115 478 46 553 69 b 688 300 661 160 688 222 b 620 447 688 367 665 416 b 451 494 575 479 519 494 l 218 494 l 140 46 "},"В":{"ha":847,"x_min":0,"x_max":0,"o":"m 254 983 l 515 983 b 711 930 592 983 657 966 b 792 771 765 894 792 841 b 731 606 792 704 771 649 b 557 518 690 562 632 533 l 557 515 b 695 447 610 508 656 485 b 754 296 734 408 754 358 b 648 75 754 199 719 125 b 372 0 577 25 485 0 l 81 0 m 368 46 b 613 110 471 46 552 67 b 703 294 673 152 703 214 b 633 442 703 357 680 406 b 464 494 587 477 531 494 l 219 494 l 140 46 m 444 539 b 656 596 530 539 600 558 b 739 763 711 634 739 689 b 672 893 739 820 717 863 b 503 938 628 923 571 938 l 297 938 l 226 539 "},"Г":{"ha":672,"x_min":0,"x_max":0,"o":"m 254 983 l 772 983 l 764 938 l 296 938 l 132 0 l 81 0 "},"Д":{"ha":1007,"x_min":0,"x_max":0,"o":"m -25 46 l 51 46 b 354 708 197 168 298 389 l 403 983 l 958 983 l 793 46 l 906 46 l 854 -253 l 804 -253 l 849 0 l 17 0 l -28 -253 l -76 -253 m 742 46 l 899 938 l 446 938 l 406 708 b 119 46 350 397 255 176 "},"Е":{"ha":801,"x_min":0,"x_max":0,"o":"m 254 983 l 814 983 l 806 938 l 296 938 l 225 533 l 714 533 l 706 488 l 217 488 l 140 46 l 689 46 l 681 0 l 81 0 "},"Ж":{"ha":1169,"x_min":0,"x_max":0,"o":"m 538 536 l 171 983 l 238 983 l 599 538 l 679 983 l 729 983 l 650 538 l 1172 983 l 1247 983 l 711 529 l 1121 0 l 1054 0 l 650 528 l 557 0 l 506 0 l 597 528 l -8 0 l -83 0 "},"З":{"ha":788,"x_min":0,"x_max":0,"o":"m 317 -26 b 137 16 250 -25 190 -10 b 19 118 84 42 44 76 l 64 147 b 168 55 85 109 120 78 b 326 19 216 31 269 19 b 535 92 408 19 477 44 b 621 290 592 140 621 206 b 551 435 621 348 597 396 b 374 494 504 475 445 494 l 300 494 l 308 540 l 382 540 b 583 601 461 540 528 560 b 665 778 638 641 665 700 b 607 910 665 831 646 875 b 450 963 568 945 516 963 b 218 860 353 963 275 928 l 182 893 b 451 1008 252 970 342 1008 b 644 945 532 1008 596 987 b 717 778 693 903 717 847 b 649 603 717 709 694 651 b 486 515 604 556 550 526 l 486 513 b 619 436 540 502 584 477 b 672 293 655 395 672 348 b 570 58 672 193 638 115 b 317 -26 502 2 418 -26 "},"И":{"ha":1019,"x_min":0,"x_max":0,"o":"m 254 983 l 304 983 l 144 78 l 149 78 l 924 983 l 989 983 l 815 0 l 764 0 l 924 908 l 921 908 l 144 0 l 81 0 "},"Й":{"ha":1019,"x_min":0,"x_max":0,"o":"m 254 983 l 304 983 l 144 78 l 149 78 l 924 983 l 989 983 l 815 0 l 764 0 l 924 908 l 921 908 l 144 0 l 81 0 m 624 1074 b 508 1118 575 1074 537 1088 b 464 1243 480 1148 465 1189 l 500 1250 b 535 1151 501 1207 513 1175 b 625 1117 558 1128 588 1117 b 794 1250 708 1117 765 1161 l 828 1243 b 753 1117 814 1188 789 1147 b 624 1074 718 1088 675 1074 "},"К":{"ha":758,"x_min":0,"x_max":0,"o":"m 254 983 l 304 983 l 226 538 l 761 983 l 836 983 l 286 529 l 710 0 l 643 0 l 225 528 l 132 0 l 81 0 "},"Л":{"ha":1032,"x_min":0,"x_max":0,"o":"m 40 -10 b -28 -1 17 -10 -6 -7 l -15 46 b 38 38 4 40 22 38 b 266 212 133 38 209 96 b 417 763 323 328 373 512 l 456 983 l 1003 983 l 831 0 l 778 0 l 943 938 l 499 938 l 465 747 b 302 172 420 485 366 294 b 40 -10 239 51 151 -10 "},"М":{"ha":1244,"x_min":0,"x_max":0,"o":"m 254 983 l 333 983 l 574 83 l 1128 983 l 1214 983 l 1040 0 l 989 0 l 1150 918 l 1146 918 l 576 0 l 543 0 l 297 918 l 293 918 l 132 0 l 81 0 "},"Н":{"ha":994,"x_min":0,"x_max":0,"o":"m 254 983 l 306 983 l 225 532 l 832 532 l 913 983 l 964 983 l 790 0 l 739 0 l 825 486 l 218 486 l 132 0 l 81 0 "},"О":{"ha":1194,"x_min":0,"x_max":0,"o":"m 553 -26 b 228 93 414 -26 306 13 b 111 406 150 173 111 277 b 272 832 111 571 165 713 b 678 1010 378 950 514 1010 b 1001 890 816 1010 924 970 b 1118 576 1079 809 1118 705 b 1048 278 1118 469 1095 369 b 847 57 1001 186 934 113 b 553 -26 760 1 662 -26 m 554 19 b 821 98 653 19 742 46 b 1001 302 900 150 960 218 b 1064 574 1043 386 1064 476 b 964 854 1064 687 1031 781 b 676 964 897 927 801 964 b 409 884 577 964 488 937 b 228 678 330 831 269 762 b 165 408 186 595 165 505 b 265 128 165 294 199 201 b 554 19 332 56 428 19 "},"П":{"ha":986,"x_min":0,"x_max":0,"o":"m 254 983 l 956 983 l 782 0 l 731 0 l 896 938 l 296 938 l 132 0 l 81 0 "},"Р":{"ha":786,"x_min":0,"x_max":0,"o":"m 254 983 l 507 983 b 706 928 588 983 654 965 b 783 760 757 891 783 835 b 693 553 783 675 753 607 b 436 474 633 500 547 474 l 215 474 l 132 0 l 81 0 m 443 518 b 656 582 535 518 606 539 b 732 757 707 625 732 683 b 669 894 732 819 711 865 b 510 938 627 923 574 938 l 297 938 l 224 518 "},"С":{"ha":1004,"x_min":0,"x_max":0,"o":"m 901 117 b 550 -26 804 21 687 -26 b 226 91 410 -26 302 13 b 111 399 149 169 111 272 b 186 701 111 507 136 608 b 396 925 236 794 306 869 b 692 1010 486 981 584 1010 b 874 974 757 1010 818 998 b 1004 872 930 950 974 916 l 964 840 b 689 964 900 923 808 964 b 317 796 542 964 418 908 b 165 406 216 684 165 554 b 264 128 165 293 198 200 b 551 19 330 56 425 19 b 869 150 675 19 781 63 "},"Т":{"ha":729,"x_min":0,"x_max":0,"o":"m 439 938 l 103 938 l 111 983 l 829 983 l 821 938 l 492 938 l 326 0 l 275 0 "},"У":{"ha":822,"x_min":0,"x_max":0,"o":"m 124 983 l 181 983 l 419 356 l 872 983 l 933 983 l 314 126 b 213 24 281 80 247 46 b 97 -10 179 1 141 -10 b 33 -1 77 -10 56 -7 l 42 49 b 101 38 58 41 78 38 b 188 64 134 38 163 46 b 269 149 214 81 241 110 l 383 306 "},"Ф":{"ha":1104,"x_min":0,"x_max":0,"o":"m 479 94 b 208 201 369 102 278 137 b 101 456 137 264 101 349 b 244 794 101 599 149 712 b 614 919 339 876 462 918 l 625 919 l 640 1010 l 692 1010 l 675 918 b 947 811 786 911 877 875 b 1053 558 1018 747 1053 663 b 910 219 1053 415 1005 302 b 539 93 814 137 691 95 l 529 93 l 508 -26 l 458 -26 m 617 875 l 610 875 b 282 761 475 873 366 835 b 156 457 198 687 156 586 b 248 237 156 367 186 294 b 488 140 309 180 389 148 m 540 139 b 869 252 674 141 783 178 b 999 557 956 326 999 427 b 906 777 999 646 968 719 b 667 875 844 835 764 868 l 540 139 "},"Х":{"ha":813,"x_min":0,"x_max":0,"o":"m 401 515 l 169 983 l 229 983 l 438 554 l 804 983 l 871 983 l 464 513 l 719 0 l 658 0 l 428 474 l 24 0 l -46 0 "},"Ц":{"ha":1004,"x_min":0,"x_max":0,"o":"m 846 0 l 81 0 l 254 983 l 304 983 l 140 46 l 739 46 l 904 983 l 956 983 l 790 46 l 903 46 l 850 -253 l 800 -253 "},"Ч":{"ha":843,"x_min":0,"x_max":0,"o":"m 664 432 b 414 400 586 411 503 400 b 167 597 249 400 167 466 b 172 660 167 619 169 640 l 229 983 l 281 983 l 222 649 b 218 606 219 633 218 619 b 269 488 218 555 235 515 b 414 446 304 460 352 446 b 672 479 516 446 602 457 l 761 983 l 813 983 l 639 0 l 588 0 "},"Ш":{"ha":1468,"x_min":0,"x_max":0,"o":"m 254 983 l 304 983 l 140 46 l 656 46 l 821 983 l 871 983 l 707 46 l 1222 46 l 1386 983 l 1438 983 l 1264 0 l 81 0 "},"Щ":{"ha":1486,"x_min":0,"x_max":0,"o":"m 1328 0 l 81 0 l 254 983 l 304 983 l 140 46 l 656 46 l 821 983 l 871 983 l 706 46 l 1221 46 l 1386 983 l 1438 983 l 1274 46 l 1386 46 l 1333 -253 l 1283 -253 "},"Ъ":{"ha":933,"x_min":0,"x_max":0,"o":"m 371 938 l 103 938 l 110 983 l 431 983 l 353 540 l 554 540 b 765 481 639 540 710 521 b 849 303 821 442 849 382 b 752 84 849 213 816 140 b 478 0 688 28 596 0 l 206 0 m 489 46 b 714 115 585 46 660 69 b 794 300 768 160 794 222 b 727 447 794 367 772 416 b 558 494 682 479 626 494 l 371 494 l 265 46 "},"Ы":{"ha":1086,"x_min":0,"x_max":0,"o":"m 254 983 l 304 983 l 226 540 l 429 540 b 640 481 514 540 584 521 b 722 303 695 442 722 382 b 626 84 722 213 690 140 b 353 0 563 28 471 0 l 81 0 m 363 46 b 589 115 460 46 535 69 b 669 300 643 160 669 222 b 602 447 669 367 647 416 b 433 494 557 479 501 494 l 219 494 l 140 46 m 1003 983 l 1056 983 l 882 0 l 831 0 "},"Ь":{"ha":808,"x_min":0,"x_max":0,"o":"m 254 983 l 304 983 l 226 540 l 429 540 b 640 481 514 540 584 521 b 722 303 695 442 722 382 b 626 84 722 213 690 140 b 353 0 563 28 471 0 l 81 0 m 363 46 b 589 115 460 46 535 69 b 669 300 643 160 669 222 b 602 447 669 367 647 416 b 433 494 557 479 501 494 l 219 494 l 140 46 "},"Э":{"ha":1004,"x_min":0,"x_max":0,"o":"m 368 -26 b 170 9 298 -26 232 -15 b 32 108 109 33 62 66 l 72 142 b 194 52 99 104 140 74 b 368 19 248 30 306 19 b 703 157 499 19 610 65 b 865 488 795 249 850 359 l 324 488 l 331 533 l 872 533 l 872 581 b 770 857 870 694 836 786 b 488 964 704 928 610 964 b 168 833 364 964 258 920 l 136 867 b 488 1010 233 962 350 1010 b 812 888 627 1010 735 969 b 926 567 888 807 926 700 b 767 149 926 405 873 265 b 368 -26 660 32 527 -26 "},"Ю":{"ha":1443,"x_min":0,"x_max":0,"o":"m 838 -25 b 546 88 712 -25 614 13 b 443 382 477 164 443 262 b 450 486 443 413 445 447 l 217 486 l 131 0 l 81 0 l 254 983 l 304 983 l 225 532 l 458 532 b 638 872 486 667 546 780 b 971 1008 729 963 840 1008 b 1263 894 1097 1008 1194 970 b 1365 600 1331 819 1365 720 b 1328 369 1365 520 1353 443 b 1225 169 1304 294 1269 228 b 1058 28 1181 110 1125 63 b 838 -25 991 -7 917 -25 m 839 21 b 1087 103 931 21 1013 48 b 1255 317 1160 159 1216 230 b 1313 596 1293 404 1313 497 b 1225 859 1313 702 1283 790 b 969 963 1167 928 1081 963 b 722 878 878 963 795 934 b 553 664 648 822 592 751 b 496 386 515 577 496 484 b 583 124 496 281 525 193 b 839 21 642 55 727 21 "},"Я":{"ha":824,"x_min":0,"x_max":0,"o":"m 386 447 b 215 518 316 456 259 480 b 150 681 172 556 150 610 b 246 899 150 770 182 843 b 519 983 310 955 401 983 l 793 983 l 619 0 l 568 0 l 646 443 l 443 443 l 82 0 l 18 0 m 654 489 l 733 938 l 508 938 b 283 869 412 938 337 915 b 203 683 230 823 203 761 b 270 536 203 617 225 568 b 439 489 315 505 371 489 "},"а":{"ha":721,"x_min":0,"x_max":0,"o":"m 557 144 b 543 0 548 91 543 43 l 497 0 b 513 138 497 37 502 83 l 508 138 b 256 -17 452 35 368 -17 b 116 23 204 -17 157 -3 b 54 149 75 49 54 91 b 93 268 54 196 67 236 b 207 340 119 300 157 325 b 363 373 257 356 309 367 b 553 382 416 379 480 382 b 563 463 559 414 563 441 b 390 618 563 566 505 618 b 190 546 325 618 258 594 l 165 578 b 394 661 234 633 310 661 b 553 612 461 661 514 645 b 611 471 592 579 611 532 b 604 401 611 455 609 432 m 546 342 l 511 342 b 104 156 240 342 104 280 b 151 56 104 109 120 76 b 265 25 183 35 221 25 b 444 103 338 25 398 51 b 536 293 491 156 521 219 "},"б":{"ha":839,"x_min":0,"x_max":0,"o":"m 379 -18 b 158 63 282 -18 208 9 b 83 274 108 117 83 188 b 90 358 83 306 86 334 b 124 542 102 431 114 493 b 170 700 135 591 150 644 b 238 836 190 756 213 802 b 334 926 263 870 295 900 b 471 974 373 951 419 967 l 700 1001 b 817 1063 763 1009 802 1029 l 854 1050 b 803 988 842 1022 825 1002 b 706 960 782 975 749 965 l 483 932 b 271 801 391 920 320 876 b 164 492 222 725 186 622 l 168 492 b 289 614 197 542 237 582 b 463 661 341 645 399 661 b 673 581 552 661 622 634 b 749 372 723 527 749 457 b 645 98 749 267 714 175 b 379 -18 576 21 488 -18 m 379 24 b 608 128 472 24 548 58 b 697 375 667 197 697 280 b 633 549 697 445 676 503 b 454 618 590 595 530 618 b 230 512 368 618 293 583 b 135 263 166 441 135 358 b 198 93 135 196 156 139 b 379 24 240 47 300 24 "},"в":{"ha":728,"x_min":0,"x_max":0,"o":"m 188 642 l 454 642 b 582 608 504 642 547 630 b 635 504 617 585 635 550 b 482 339 635 414 584 359 l 482 338 b 572 292 516 332 546 317 b 611 193 598 267 611 234 b 541 49 611 130 588 82 b 360 0 494 16 434 0 l 75 0 m 358 44 b 506 83 420 44 469 57 b 560 194 542 108 560 145 b 518 283 560 232 546 262 b 417 315 490 305 456 315 l 188 315 l 132 44 m 407 358 b 534 392 458 358 500 370 b 585 493 568 415 585 449 b 544 572 585 527 571 553 b 442 599 516 590 482 599 l 231 599 l 188 358 "},"г":{"ha":569,"x_min":0,"x_max":0,"o":"m 188 642 l 579 642 l 571 599 l 229 599 l 125 0 l 75 0 "},"д":{"ha":821,"x_min":0,"x_max":0,"o":"m -21 44 l 57 44 b 168 216 97 85 134 142 b 244 464 202 290 228 372 l 276 642 l 704 642 l 599 44 l 706 44 l 660 -215 l 613 -215 l 650 0 l 19 0 l -18 -215 l -65 -215 m 549 44 l 647 599 l 317 599 l 292 456 b 115 44 259 270 200 133 "},"е":{"ha":774,"x_min":0,"x_max":0,"o":"m 124 318 b 121 275 122 298 121 283 b 188 92 121 197 143 136 b 368 25 232 47 292 25 b 604 138 462 25 540 63 l 636 111 b 365 -18 566 25 475 -18 b 150 60 275 -18 203 8 b 71 271 97 113 71 183 b 176 545 71 376 106 468 b 439 661 246 622 333 661 b 631 591 523 661 587 638 b 696 408 674 544 696 483 b 686 318 696 378 693 348 m 643 358 b 647 413 646 377 647 395 b 592 562 647 475 629 524 b 438 618 555 599 503 618 b 232 538 355 618 287 591 b 131 358 177 485 144 425 l 643 358 "},"ж":{"ha":926,"x_min":0,"x_max":0,"o":"m 372 343 l 96 642 l 164 642 l 432 347 l 435 347 l 486 642 l 536 642 l 485 346 l 488 346 l 851 642 l 924 642 l 544 340 l 854 0 l 786 0 l 486 336 l 483 336 l 424 0 l 374 0 l 433 336 l 429 336 l 18 0 l -54 0 "},"з":{"ha":597,"x_min":0,"x_max":0,"o":"m 226 -18 b -4 88 121 -18 44 17 l 36 119 b 226 25 76 56 139 25 b 363 66 279 25 325 39 b 421 185 402 93 421 133 b 374 278 421 223 405 254 b 249 315 343 303 301 315 l 199 315 l 207 358 l 256 358 b 397 394 312 358 359 370 b 453 503 434 419 453 455 b 412 585 453 537 439 565 b 301 617 384 606 348 617 b 128 539 237 617 179 591 l 96 568 b 304 658 148 628 217 658 b 448 617 363 658 411 645 b 503 504 484 590 503 552 b 458 394 503 462 488 425 b 344 338 429 364 391 345 l 344 336 b 438 283 383 329 414 311 b 472 186 461 254 472 222 b 403 38 472 124 449 75 b 226 -18 358 0 299 -18 "},"и":{"ha":813,"x_min":0,"x_max":0,"o":"m 188 642 l 238 642 l 138 74 l 658 642 l 714 642 l 601 0 l 551 0 l 653 574 l 650 574 l 131 0 l 75 0 "},"й":{"ha":813,"x_min":0,"x_max":0,"o":"m 475 796 b 360 840 427 796 388 811 b 315 965 331 870 316 912 l 351 972 b 386 874 352 930 364 897 b 476 839 408 850 438 839 b 646 972 560 839 616 883 l 679 965 b 605 840 665 911 641 869 b 475 796 569 810 526 796 m 188 642 l 238 642 l 138 74 l 658 642 l 714 642 l 601 0 l 551 0 l 653 574 l 650 574 l 131 0 l 75 0 "},"к":{"ha":640,"x_min":0,"x_max":0,"o":"m 188 642 l 238 642 l 186 346 l 189 346 l 567 642 l 639 642 l 249 340 l 568 0 l 501 0 l 188 336 l 185 336 l 125 0 l 75 0 "},"л":{"ha":810,"x_min":0,"x_max":0,"o":"m 22 -7 b -33 0 -1 -7 -19 -5 l -24 44 b 22 38 -10 40 6 38 b 167 134 83 38 131 70 b 251 413 202 198 230 291 l 292 642 l 708 642 l 596 0 l 546 0 l 651 599 l 333 599 l 299 401 b 261 238 288 338 275 284 b 208 111 247 192 230 150 b 130 23 187 72 161 43 b 22 -7 99 3 63 -7 "},"м":{"ha":992,"x_min":0,"x_max":0,"o":"m 188 642 l 264 642 l 439 74 l 814 642 l 894 642 l 782 0 l 732 0 l 835 589 l 832 589 l 443 0 l 413 0 l 231 588 l 228 588 l 125 0 l 75 0 "},"н":{"ha":804,"x_min":0,"x_max":0,"o":"m 188 642 l 238 642 l 186 356 l 606 356 l 656 642 l 706 642 l 593 0 l 543 0 l 599 313 l 179 313 l 125 0 l 75 0 "},"о":{"ha":829,"x_min":0,"x_max":0,"o":"m 368 -18 b 149 61 275 -18 202 8 b 71 267 97 114 71 182 b 176 544 71 374 106 467 b 444 661 246 622 335 661 b 663 581 537 661 610 634 b 742 376 715 528 742 460 b 638 97 742 267 707 174 b 368 -18 568 20 478 -18 m 369 24 b 600 127 463 24 540 58 b 690 374 660 196 690 278 b 626 549 690 444 669 502 b 442 618 583 595 521 618 b 212 515 348 618 272 584 b 122 269 152 447 122 365 b 186 93 122 198 144 139 b 369 24 229 47 290 24 "},"п":{"ha":794,"x_min":0,"x_max":0,"o":"m 188 642 l 697 642 l 585 0 l 535 0 l 639 599 l 229 599 l 125 0 l 75 0 "},"р":{"ha":868,"x_min":0,"x_max":0,"o":"m 67 -333 l 18 -333 l 190 642 l 239 642 l 213 496 l 217 496 b 328 615 242 544 279 584 b 493 661 378 646 433 661 b 704 583 584 661 654 635 b 779 378 754 530 779 462 b 677 98 779 269 745 175 b 414 -18 609 21 521 -18 b 251 30 352 -18 297 -2 b 157 157 204 62 173 104 l 153 157 m 485 618 b 267 512 400 618 327 583 b 176 264 206 441 176 358 b 241 92 176 195 198 138 b 410 24 284 47 340 24 b 639 127 503 24 580 58 b 728 375 698 196 728 279 b 665 550 728 446 707 505 b 485 618 622 595 563 618 "},"с":{"ha":674,"x_min":0,"x_max":0,"o":"m 597 74 b 360 -22 531 10 451 -22 b 147 56 267 -22 196 4 b 72 258 97 107 72 175 b 181 542 72 368 108 462 b 451 661 253 621 343 661 b 665 569 550 661 622 631 l 628 539 b 555 597 611 564 587 583 b 453 618 523 611 489 618 b 218 512 359 618 281 583 b 124 263 155 441 124 358 b 186 90 124 192 144 134 b 364 22 228 45 287 22 b 568 104 447 22 515 50 l 597 74 "},"т":{"ha":592,"x_min":0,"x_max":0,"o":"m 307 599 l 71 599 l 78 642 l 601 642 l 594 599 l 357 599 l 253 0 l 203 0 "},"у":{"ha":618,"x_min":0,"x_max":0,"o":"m -18 -335 b -81 -326 -43 -335 -64 -332 l -72 -281 b -19 -290 -57 -287 -40 -290 b 67 -259 16 -290 44 -280 b 132 -169 89 -238 111 -208 l 219 -12 l 85 642 l 136 642 l 254 43 l 585 642 l 642 642 l 167 -197 b 85 -301 141 -244 114 -278 b -18 -335 57 -323 23 -335 "},"ф":{"ha":958,"x_min":0,"x_max":0,"o":"m 385 -15 b 155 72 288 -10 211 19 b 71 275 99 124 71 192 b 189 556 71 394 110 488 b 504 660 268 624 373 659 l 576 1065 l 626 1065 l 554 658 b 785 572 651 654 728 625 b 869 368 841 519 869 451 b 751 86 869 248 830 154 b 435 -15 673 19 567 -15 l 379 -333 l 329 -333 m 496 615 b 224 524 384 613 293 583 b 121 276 155 464 121 382 b 194 102 121 205 145 147 b 393 28 244 57 310 32 m 443 29 b 714 119 554 30 644 60 b 818 367 783 179 818 261 b 744 541 818 438 794 496 b 546 614 695 586 629 610 l 443 29 "},"х":{"ha":621,"x_min":0,"x_max":0,"o":"m 271 340 l 106 642 l 161 642 l 306 369 l 553 642 l 617 642 l 331 335 l 522 0 l 464 0 l 294 304 l 15 0 l -49 0 "},"ц":{"ha":814,"x_min":0,"x_max":0,"o":"m 643 0 l 75 0 l 188 642 l 238 642 l 132 44 l 542 44 l 647 642 l 697 642 l 592 44 l 699 44 l 653 -215 l 606 -215 "},"ч":{"ha":721,"x_min":0,"x_max":0,"o":"m 510 283 b 307 256 440 265 373 256 b 119 397 182 256 119 303 b 125 449 119 414 121 431 l 160 642 l 210 642 l 175 450 b 171 406 172 433 171 419 b 208 323 171 366 183 338 b 317 300 232 308 269 300 b 518 328 362 300 429 309 l 574 642 l 624 642 l 510 0 l 460 0 "},"ш":{"ha":1169,"x_min":0,"x_max":0,"o":"m 188 642 l 238 642 l 132 44 l 499 44 l 606 642 l 654 642 l 549 44 l 917 44 l 1022 642 l 1072 642 l 958 0 l 75 0 "},"щ":{"ha":1188,"x_min":0,"x_max":0,"o":"m 1018 0 l 75 0 l 188 642 l 238 642 l 132 44 l 499 44 l 606 642 l 654 642 l 549 44 l 917 44 l 1022 642 l 1072 642 l 967 44 l 1074 44 l 1028 -215 l 979 -215 "},"ъ":{"ha":778,"x_min":0,"x_max":0,"o":"m 274 599 l 71 599 l 78 642 l 332 642 l 285 376 l 479 376 b 626 335 538 376 588 363 b 685 211 665 308 685 267 b 617 58 685 148 662 97 b 425 0 571 19 507 0 l 169 0 m 435 44 b 581 88 498 44 546 59 b 632 208 615 117 632 157 b 588 303 632 251 617 282 b 479 333 559 323 523 333 l 274 333 l 226 44 "},"ы":{"ha":936,"x_min":0,"x_max":0,"o":"m 188 642 l 238 642 l 190 376 l 379 376 b 526 335 438 376 488 363 b 585 211 565 308 585 267 b 517 58 585 148 562 97 b 325 0 471 19 407 0 l 75 0 m 335 44 b 481 88 398 44 446 59 b 532 208 515 117 532 157 b 488 303 532 251 517 282 b 379 333 459 323 423 333 l 188 333 l 132 44 m 789 642 l 839 642 l 725 0 l 675 0 "},"ь":{"ha":683,"x_min":0,"x_max":0,"o":"m 340 44 b 486 88 403 44 452 59 b 538 208 520 117 538 157 b 494 303 538 251 523 282 b 386 333 466 323 430 333 l 183 333 l 132 44 m 188 642 l 238 642 l 190 376 l 385 376 b 532 335 444 376 493 363 b 590 211 571 308 590 267 b 522 58 590 148 568 97 b 331 0 477 19 413 0 l 75 0 "},"э":{"ha":675,"x_min":0,"x_max":0,"o":"m 213 -18 b -12 74 107 -18 32 13 l 24 104 b 102 46 41 80 67 61 b 213 24 137 31 174 24 b 423 106 295 24 365 51 b 529 313 481 161 516 230 l 200 313 l 207 356 l 535 356 l 535 379 b 469 549 535 447 513 503 b 296 618 426 595 368 618 b 99 542 218 618 152 593 l 68 572 b 299 661 130 631 207 661 b 510 581 388 661 459 634 b 586 376 561 528 586 460 b 481 97 586 267 551 174 b 213 -18 411 20 322 -18 "},"ю":{"ha":1074,"x_min":0,"x_max":0,"o":"m 622 -19 b 412 64 532 -19 462 8 b 336 282 361 119 336 192 b 339 313 336 288 337 298 l 179 313 l 125 0 l 75 0 l 188 642 l 238 642 l 186 356 l 344 356 b 468 574 361 443 402 515 b 697 661 534 632 610 661 b 910 579 789 661 860 634 b 986 369 961 525 986 455 b 881 94 986 262 951 170 b 622 -19 811 19 725 -19 m 624 25 b 845 125 712 25 785 58 b 935 365 905 192 935 272 b 872 547 935 439 914 500 b 699 618 831 594 773 618 b 478 517 612 618 538 584 b 389 276 419 450 389 370 b 452 96 389 203 410 143 b 624 25 494 49 551 25 "},"я":{"ha":728,"x_min":0,"x_max":0,"o":"m 268 271 b 117 432 167 289 117 343 b 183 583 117 494 139 544 b 374 642 228 622 291 642 l 631 642 l 518 0 l 468 0 l 515 267 l 324 267 l 97 0 l 33 0 m 524 311 l 574 599 l 364 599 b 219 555 302 599 254 584 b 168 436 185 526 168 486 b 211 342 168 394 182 362 b 318 311 240 321 275 311 "},"ѐ":{"ha":774,"x_min":0,"x_max":0,"o":"m 124 318 b 121 275 122 298 121 283 b 188 92 121 197 143 136 b 368 25 232 47 292 25 b 604 138 462 25 540 63 l 636 111 b 365 -18 566 25 475 -18 b 150 60 275 -18 203 8 b 71 271 97 113 71 183 b 176 545 71 376 106 468 b 439 661 246 622 333 661 b 631 591 523 661 587 638 b 696 408 674 544 696 483 b 686 318 696 378 693 348 m 643 358 b 647 413 646 377 647 395 b 592 562 647 475 629 524 b 438 618 555 599 503 618 b 232 538 355 618 287 591 b 131 358 177 485 144 425 l 643 358 m 374 983 l 518 783 l 475 783 l 310 983 "},"ё":{"ha":774,"x_min":0,"x_max":0,"o":"m 421 914 b 408 879 421 901 416 889 b 376 864 399 869 388 864 b 347 875 364 864 355 868 b 336 907 340 882 336 893 b 349 941 336 920 341 931 b 381 956 358 951 369 956 b 421 914 407 956 421 942 m 650 914 b 636 879 650 901 645 889 b 604 864 627 869 616 864 b 575 875 592 864 582 868 b 564 907 568 882 564 893 b 578 941 564 920 569 931 b 610 956 587 951 598 956 b 638 944 621 956 630 952 b 650 914 646 937 650 927 "},"ђ":{"ha":790,"x_min":0,"x_max":0,"o":"m 371 -335 b 304 -325 345 -335 323 -331 l 315 -283 b 374 -292 332 -289 351 -292 b 525 -121 455 -292 506 -235 l 614 374 b 621 447 619 400 621 424 b 581 570 621 497 607 538 b 454 618 554 602 512 618 b 281 540 388 618 331 592 b 182 324 232 488 199 416 l 125 0 l 75 0 l 215 801 l 88 801 l 96 842 l 222 842 l 260 1050 l 310 1050 l 272 842 l 500 842 l 493 801 l 265 801 l 213 493 l 215 493 b 320 617 241 547 276 588 b 464 661 364 647 412 661 b 617 603 530 661 581 642 b 672 457 654 565 672 516 b 665 385 672 439 670 415 l 575 -124 b 502 -283 562 -195 538 -248 b 371 -335 466 -317 423 -335 "},"ѓ":{"ha":569,"x_min":0,"x_max":0,"o":"m 379 783 l 336 783 l 513 983 l 576 983 m 188 642 l 579 642 l 571 599 l 229 599 l 125 0 l 75 0 "},"є":{"ha":675,"x_min":0,"x_max":0,"o":"m 360 -22 b 147 56 267 -22 196 4 b 72 258 97 107 72 175 b 179 542 72 368 108 462 b 449 661 250 621 340 661 b 668 571 550 661 624 631 l 633 539 b 557 596 616 562 590 581 b 451 618 524 611 488 618 b 250 544 375 618 307 593 b 135 356 193 494 154 431 l 471 356 l 464 313 l 126 313 b 124 260 125 300 124 283 b 187 88 125 189 146 132 b 364 21 228 43 287 21 b 568 104 446 21 514 49 l 599 72 b 360 -22 534 9 454 -22 "},"ѕ":{"ha":575,"x_min":0,"x_max":0,"o":"m 58 111 b 238 26 104 55 163 26 b 368 68 290 26 334 40 b 419 175 402 96 419 131 b 383 260 419 210 407 239 b 258 317 358 282 317 301 b 104 472 156 344 104 396 b 172 611 104 531 127 578 b 333 661 218 644 271 661 b 451 638 378 661 417 653 b 526 575 486 622 511 601 l 490 549 b 333 618 455 595 403 618 b 206 581 282 618 240 606 b 154 476 171 557 154 522 b 186 401 154 443 165 418 b 289 356 207 384 242 369 b 427 287 353 338 399 315 b 469 179 455 259 469 223 b 403 37 469 120 447 72 b 239 -17 359 1 305 -17 b 21 81 143 -17 70 16 "},"і":{"ha":324,"x_min":0,"x_max":0,"o":"m 189 642 l 239 642 l 125 0 l 75 0 m 251 865 b 211 907 225 865 211 879 b 224 940 211 920 216 931 b 256 954 233 950 244 954 b 283 943 267 954 276 950 b 294 914 291 936 294 926 b 282 880 294 901 290 890 b 251 865 274 870 263 865 "},"ї":{"ha":324,"x_min":0,"x_max":0,"o":"m 189 642 l 239 642 l 125 0 l 75 0 m 182 914 b 169 879 182 901 178 889 b 138 864 160 869 150 864 b 108 875 125 864 116 868 b 97 907 101 882 97 893 b 111 941 97 920 102 931 b 143 956 120 951 131 956 b 171 944 154 956 163 952 b 182 914 178 937 182 927 m 411 914 b 398 879 411 901 407 889 b 367 864 389 869 379 864 b 326 907 340 864 326 878 b 340 941 326 920 331 931 b 371 956 348 951 359 956 b 411 914 398 956 411 942 "},"ј":{"ha":325,"x_min":0,"x_max":0,"o":"m -87 -335 b -139 -328 -105 -335 -122 -332 l -131 -286 b -89 -292 -112 -290 -98 -292 b 10 -247 -44 -292 -10 -277 b 54 -126 31 -218 46 -177 l 189 642 l 239 642 l 103 -133 b 45 -281 92 -195 72 -244 b -87 -335 18 -317 -26 -335 m 251 865 b 211 907 225 865 211 879 b 224 940 211 920 216 931 b 256 954 233 950 244 954 b 283 943 267 954 276 950 b 294 914 291 936 294 926 b 282 880 294 901 290 890 b 251 865 274 870 263 865 "},"љ":{"ha":1154,"x_min":0,"x_max":0,"o":"m 22 -7 b -33 0 -1 -7 -19 -5 l -24 44 b 22 38 -10 40 6 38 b 167 134 83 38 131 70 b 251 413 202 198 230 291 l 292 642 l 708 642 l 661 376 l 856 376 b 1003 335 915 376 964 363 b 1061 211 1042 308 1061 267 b 993 58 1061 148 1038 97 b 801 0 948 19 884 0 l 546 0 l 651 599 l 333 599 l 299 401 b 261 238 288 338 275 284 b 208 111 247 192 230 150 b 130 23 187 72 161 43 b 22 -7 99 3 63 -7 m 811 44 b 957 88 874 44 923 59 b 1008 208 991 117 1008 157 b 965 303 1008 251 994 282 b 857 333 937 323 900 333 l 654 333 l 603 44 "},"њ":{"ha":1151,"x_min":0,"x_max":0,"o":"m 188 642 l 238 642 l 189 365 l 607 365 l 656 642 l 706 642 l 657 365 l 858 365 b 1001 326 916 365 963 352 b 1058 206 1039 299 1058 259 b 993 57 1058 144 1037 95 b 807 0 950 19 888 0 l 543 0 l 600 322 l 182 322 l 125 0 l 75 0 m 817 44 b 957 86 877 44 924 58 b 1007 203 990 114 1007 153 b 965 293 1007 244 993 274 b 860 322 938 313 902 322 l 650 322 l 601 44 "},"ћ":{"ha":790,"x_min":0,"x_max":0,"o":"m 215 801 l 88 801 l 96 842 l 222 842 l 260 1050 l 310 1050 l 272 842 l 500 842 l 493 801 l 265 801 l 213 493 l 215 493 b 320 617 241 547 276 588 b 464 661 364 647 412 661 b 617 603 530 661 581 642 b 672 457 654 565 672 516 b 665 385 672 439 670 415 l 597 0 l 547 0 l 614 374 b 621 447 619 400 621 424 b 581 570 621 497 607 538 b 454 618 554 602 512 618 b 281 540 388 618 331 592 b 182 324 232 488 199 416 l 125 0 l 75 0 "},"ќ":{"ha":640,"x_min":0,"x_max":0,"o":"m 399 783 l 356 783 l 532 983 l 596 983 m 188 642 l 238 642 l 186 346 l 189 346 l 567 642 l 639 642 l 249 340 l 568 0 l 501 0 l 188 336 l 185 336 l 125 0 l 75 0 "},"ѝ":{"ha":813,"x_min":0,"x_max":0,"o":"m 296 983 l 361 983 l 506 783 l 463 783 m 188 642 l 238 642 l 138 74 l 658 642 l 714 642 l 601 0 l 551 0 l 653 574 l 650 574 l 131 0 l 75 0 "},"ў":{"ha":618,"x_min":0,"x_max":0,"o":"m 390 796 b 275 840 342 796 304 811 b 231 965 246 870 231 912 l 267 972 b 301 874 268 930 279 897 b 392 839 324 850 354 839 b 561 972 475 839 531 883 l 594 965 b 520 840 581 911 556 869 b 390 796 484 810 441 796 m -18 -335 b -81 -326 -43 -335 -64 -332 l -72 -281 b -19 -290 -57 -287 -40 -290 b 67 -259 16 -290 44 -280 b 132 -169 89 -238 111 -208 l 219 -12 l 85 642 l 136 642 l 254 43 l 585 642 l 642 642 l 167 -197 b 85 -301 141 -244 114 -278 b -18 -335 57 -323 23 -335 "},"џ":{"ha":794,"x_min":0,"x_max":0,"o":"m 306 0 l 75 0 l 188 642 l 238 642 l 132 44 l 542 44 l 647 642 l 697 642 l 585 0 l 353 0 l 314 -215 l 267 -215 "},"Ґ":{"ha":672,"x_min":0,"x_max":0,"o":"m 254 983 l 721 983 l 758 1189 l 808 1189 l 764 938 l 297 938 l 131 0 l 81 0 "},"ґ":{"ha":569,"x_min":0,"x_max":0,"o":"m 189 642 l 532 642 l 563 817 l 610 817 l 571 599 l 231 599 l 125 0 l 75 0 "},"Ẁ":{"ha":1317,"x_min":0,"x_max":0,"o":"m 919 0 l 850 0 l 771 919 l 768 919 l 304 0 l 235 0 l 147 983 l 201 983 l 279 63 l 283 63 l 744 983 l 814 983 l 894 63 l 899 63 l 1361 983 l 1418 983 m 671 1261 l 815 1061 l 772 1061 l 607 1261 "},"ẁ":{"ha":979,"x_min":0,"x_max":0,"o":"m 668 0 l 610 0 l 531 581 l 528 581 l 213 0 l 154 0 l 96 642 l 147 642 l 193 58 l 196 58 l 513 642 l 569 642 l 647 58 l 650 58 l 940 642 l 994 642 m 438 983 l 582 783 l 539 783 l 374 983 "},"Ẃ":{"ha":1317,"x_min":0,"x_max":0,"o":"m 919 0 l 850 0 l 771 919 l 768 919 l 304 0 l 235 0 l 147 983 l 201 983 l 279 63 l 283 63 l 744 983 l 814 983 l 894 63 l 899 63 l 1361 983 l 1418 983 m 813 1061 l 769 1061 l 946 1261 l 1010 1261 "},"ẃ":{"ha":979,"x_min":0,"x_max":0,"o":"m 668 0 l 610 0 l 531 581 l 528 581 l 213 0 l 154 0 l 96 642 l 147 642 l 193 58 l 196 58 l 513 642 l 569 642 l 647 58 l 650 58 l 940 642 l 994 642 m 590 783 l 547 783 l 724 983 l 788 983 "},"Ẅ":{"ha":1317,"x_min":0,"x_max":0,"o":"m 919 0 l 850 0 l 771 919 l 768 919 l 304 0 l 235 0 l 147 983 l 201 983 l 279 63 l 283 63 l 744 983 l 814 983 l 894 63 l 899 63 l 1361 983 l 1418 983 m 700 1142 b 672 1153 689 1142 679 1145 b 660 1185 664 1160 660 1171 b 674 1219 660 1198 664 1209 b 706 1233 683 1228 694 1233 b 733 1222 717 1233 726 1230 b 744 1192 741 1215 744 1205 b 731 1157 744 1179 740 1167 b 700 1142 722 1147 712 1142 m 929 1142 b 889 1185 902 1142 889 1156 b 902 1219 889 1198 893 1209 b 933 1233 911 1228 921 1233 b 962 1222 944 1233 954 1230 b 974 1192 970 1215 974 1205 b 960 1157 974 1179 969 1167 b 929 1142 952 1147 941 1142 "},"ẅ":{"ha":979,"x_min":0,"x_max":0,"o":"m 668 0 l 610 0 l 531 581 l 528 581 l 213 0 l 154 0 l 96 642 l 147 642 l 193 58 l 196 58 l 513 642 l 569 642 l 647 58 l 650 58 l 940 642 l 994 642 m 469 864 b 441 875 458 864 449 868 b 429 907 433 882 429 893 b 443 941 429 920 434 931 b 475 956 452 951 463 956 b 503 944 486 956 495 952 b 514 914 510 937 514 927 b 501 879 514 901 509 889 b 469 864 492 869 481 864 m 699 864 b 658 907 672 864 658 878 b 672 941 658 920 663 931 b 703 956 680 951 691 956 b 731 944 714 956 723 952 b 743 914 739 937 743 927 b 730 879 743 901 739 889 b 699 864 721 869 711 864 "},"Ỳ":{"ha":732,"x_min":0,"x_max":0,"o":"m 392 428 l 317 0 l 265 0 l 340 428 l 108 983 l 167 983 l 374 475 l 788 983 l 851 983 m 379 1261 l 524 1061 l 481 1061 l 315 1261 "},"ỳ":{"ha":618,"x_min":0,"x_max":0,"o":"m -18 -335 b -81 -326 -43 -335 -64 -332 l -72 -281 b -19 -290 -57 -287 -40 -290 b 67 -259 16 -290 44 -280 b 132 -169 89 -238 111 -208 l 219 -12 l 85 642 l 136 642 l 254 43 l 585 642 l 642 642 l 167 -197 b 85 -301 141 -244 114 -278 b -18 -335 57 -323 23 -335 m 281 983 l 425 783 l 382 783 l 217 983 "},"‐":{"ha":425,"x_min":0,"x_max":0,"o":"m 343 326 l 74 326 l 82 369 l 351 369 "},"–":{"ha":556,"x_min":0,"x_max":0,"o":"m 40 326 l 49 369 l 521 369 l 513 326 "},"—":{"ha":833,"x_min":0,"x_max":0,"o":"m 40 326 l 49 369 l 799 369 l 790 326 "},"‘":{"ha":307,"x_min":0,"x_max":0,"o":"m 293 983 l 333 983 l 194 664 l 140 664 "},"’":{"ha":307,"x_min":0,"x_max":0,"o":"m 182 664 l 140 664 l 279 983 l 333 983 "},"‚":{"ha":307,"x_min":0,"x_max":0,"o":"m 25 -193 l -15 -193 l 124 128 l 176 128 "},"“":{"ha":501,"x_min":0,"x_max":0,"o":"m 488 983 l 529 983 l 390 664 l 336 664 m 294 983 l 335 983 l 194 664 l 140 664 "},"”":{"ha":501,"x_min":0,"x_max":0,"o":"m 182 664 l 140 664 l 279 983 l 333 983 m 375 664 l 335 664 l 475 983 l 529 983 "},"„":{"ha":501,"x_min":0,"x_max":0,"o":"m 25 -193 l -15 -193 l 124 128 l 176 128 m 218 -193 l 178 -193 l 318 128 l 372 128 "},"†":{"ha":738,"x_min":0,"x_max":0,"o":"m 449 653 l 303 -175 l 253 -175 l 399 653 l 122 653 l 131 697 l 406 697 l 457 983 l 507 983 l 456 697 l 729 697 l 722 653 "},"‡":{"ha":738,"x_min":0,"x_max":0,"o":"m 128 657 l 135 703 l 407 703 l 457 983 l 507 983 l 457 703 l 726 703 l 718 657 l 449 657 l 360 151 l 629 151 l 621 106 l 351 106 l 303 -175 l 253 -175 l 303 106 l 31 106 l 39 151 l 310 151 l 400 657 "},"•":{"ha":694,"x_min":0,"x_max":0,"o":"m 101 492 b 173 666 101 560 125 618 b 347 738 221 714 279 738 b 522 666 416 738 474 714 b 593 492 569 618 593 560 b 522 317 593 423 569 365 b 347 246 474 270 416 246 b 173 317 279 246 221 270 b 101 492 125 365 101 423 "},"…":{"ha":1389,"x_min":0,"x_max":0,"o":"m 171 -8 b 142 3 160 -8 150 -5 b 131 33 134 10 131 20 b 145 72 131 48 135 61 b 181 88 155 82 167 88 b 209 75 192 88 201 83 b 221 43 217 67 221 56 b 205 7 221 29 216 17 b 171 -8 194 -3 183 -8 m 635 -8 b 607 3 624 -8 614 -5 b 596 33 600 10 596 20 b 610 72 596 48 601 61 b 644 88 620 82 631 88 b 674 76 656 88 666 84 b 685 46 681 68 685 58 b 669 8 685 31 680 18 b 635 -8 659 -3 648 -8 m 1100 -8 b 1072 3 1089 -8 1079 -5 b 1060 33 1064 10 1060 20 b 1075 72 1060 48 1065 61 b 1110 88 1085 82 1097 88 b 1138 76 1121 88 1130 84 b 1150 46 1146 68 1150 58 b 1135 8 1150 31 1145 18 b 1100 -8 1125 -3 1113 -8 "},"‰":{"ha":1389,"x_min":0,"x_max":0,"o":"m 136 757 b 200 925 136 823 157 879 b 365 994 243 971 298 994 b 499 946 422 994 466 978 b 547 821 531 913 547 872 b 483 652 547 754 526 698 b 318 583 441 606 386 583 b 185 632 262 583 217 600 b 136 757 152 664 136 706 m 181 761 b 217 661 181 720 193 687 b 321 622 241 635 275 622 b 452 679 375 622 418 641 b 503 817 486 717 503 763 b 467 917 503 857 491 891 b 361 956 443 943 407 956 b 231 899 308 956 265 937 b 181 761 197 861 181 815 m 617 -11 b 483 38 560 -11 516 5 b 435 163 451 70 435 112 b 499 331 435 229 456 285 b 664 400 541 377 596 400 b 797 351 720 400 765 384 b 844 226 828 319 844 277 b 781 58 844 160 823 103 b 617 -11 739 12 684 -11 m 618 28 b 750 85 672 28 716 47 b 801 222 784 123 801 169 b 765 322 801 262 789 295 b 660 361 740 348 705 361 b 529 304 606 361 563 342 b 479 167 496 266 479 220 b 515 67 479 126 491 93 b 618 28 539 41 574 28 m 1089 -11 b 956 38 1032 -11 988 5 b 908 163 924 70 908 112 b 972 331 908 229 929 285 b 1136 400 1014 377 1069 400 b 1269 351 1193 400 1237 384 b 1318 226 1302 319 1318 277 b 1254 58 1318 160 1297 103 b 1089 -11 1212 12 1156 -11 m 1092 28 b 1223 85 1145 28 1189 47 b 1274 222 1257 123 1274 169 b 1237 322 1274 262 1261 295 b 1132 361 1212 348 1177 361 b 1002 304 1079 361 1036 342 b 951 167 968 266 951 220 b 988 67 951 126 963 93 b 1092 28 1012 41 1046 28 m 104 -39 l 69 -17 l 869 1024 l 904 1001 "},"‹":{"ha":438,"x_min":0,"x_max":0,"o":"m 326 610 l 357 583 l 153 328 l 268 78 l 229 54 l 100 332 "},"›":{"ha":438,"x_min":0,"x_max":0,"o":"m 106 53 l 74 79 l 278 335 l 164 586 l 201 610 l 332 331 "},"‽":{"ha":660,"x_min":0,"x_max":0,"o":"m 374 767 l 425 767 l 372 481 l 374 481 b 438 544 393 505 414 526 l 486 582 b 613 792 569 646 612 716 b 563 916 613 845 596 887 b 436 960 530 945 488 960 b 284 909 375 960 324 943 b 197 775 244 875 215 831 l 151 786 b 259 947 173 855 209 908 b 436 1006 309 986 369 1006 b 599 951 502 1006 556 987 b 663 793 641 914 663 862 b 619 653 663 738 648 692 b 499 539 591 614 550 576 b 390 442 446 501 410 469 b 350 342 371 416 357 382 l 338 275 l 288 275 m 331 43 b 317 7 331 29 326 17 b 283 -8 307 -3 296 -8 b 253 3 271 -8 261 -4 b 240 36 244 11 240 22 b 255 72 240 50 245 62 b 289 88 265 82 276 88 b 319 76 301 88 311 84 b 331 43 327 68 331 57 "},"⁄":{"ha":139,"x_min":0,"x_max":0,"o":"m -307 -39 l -339 -17 l 461 1024 l 493 1001 "},"⁰":{"ha":494,"x_min":0,"x_max":0,"o":"m 394 1226 b 508 1171 446 1226 484 1208 b 544 1029 532 1134 544 1087 b 530 891 544 984 540 938 b 488 758 520 844 506 800 b 411 655 469 716 444 681 b 301 615 379 628 342 615 b 186 670 249 615 210 634 b 150 811 162 707 150 754 b 174 998 150 875 158 937 b 256 1158 189 1059 217 1112 b 394 1226 294 1203 341 1226 m 392 1186 b 288 1130 353 1186 318 1167 b 219 990 257 1092 234 1046 b 197 815 205 935 197 876 b 304 656 197 709 233 656 b 408 711 343 656 378 674 b 475 850 438 748 460 794 b 497 1025 490 906 497 964 b 392 1186 497 1132 462 1186 "},"⁴":{"ha":494,"x_min":0,"x_max":0,"o":"m 425 774 l 399 629 l 356 629 l 382 774 l 113 774 l 121 817 l 443 1213 l 501 1213 l 431 814 l 524 814 l 517 774 m 449 1156 l 444 1156 l 165 814 l 389 814 "},"⁵":{"ha":494,"x_min":0,"x_max":0,"o":"m 506 833 b 449 678 506 771 487 719 b 294 615 411 636 359 615 b 129 710 218 615 163 647 l 168 732 b 294 656 194 681 236 656 b 414 706 344 656 383 672 b 460 829 444 739 460 780 b 424 922 460 867 448 898 b 329 958 401 946 369 958 b 206 921 289 958 248 946 l 263 1213 l 536 1213 l 528 1172 l 299 1172 l 261 982 b 335 996 285 991 310 996 b 459 951 387 996 428 981 b 506 833 490 921 506 881 "},"⁶":{"ha":494,"x_min":0,"x_max":0,"o":"m 514 825 b 456 676 514 766 495 716 b 307 615 418 635 368 615 b 190 660 259 615 220 630 b 144 776 159 691 144 729 b 224 956 144 826 171 886 l 422 1213 l 478 1213 l 279 961 l 281 960 b 357 981 305 974 330 981 b 470 938 403 981 441 966 b 514 825 499 910 514 872 m 469 822 b 437 908 469 856 459 885 b 351 942 415 930 387 942 b 235 892 305 942 266 925 b 189 776 204 859 189 821 b 222 691 189 743 200 715 b 308 656 243 667 272 656 b 424 704 356 656 394 672 b 469 822 454 737 469 776 "},"⁷":{"ha":494,"x_min":0,"x_max":0,"o":"m 172 629 l 513 1172 l 229 1172 l 236 1213 l 568 1213 l 561 1172 l 225 629 "},"⁸":{"ha":494,"x_min":0,"x_max":0,"o":"m 535 1086 b 502 995 535 1051 524 1021 b 419 940 480 970 453 951 l 419 939 b 483 890 444 930 466 913 b 508 810 500 867 508 840 b 447 667 508 749 488 701 b 303 615 405 632 357 615 b 187 654 257 615 219 628 b 139 764 155 680 139 717 b 178 876 139 806 152 844 b 283 944 205 909 240 931 l 283 946 b 230 991 260 955 242 970 b 211 1057 217 1012 211 1034 b 262 1177 211 1104 228 1144 b 385 1226 296 1210 337 1226 b 493 1190 429 1226 465 1214 b 535 1086 521 1166 535 1131 m 353 960 b 451 997 393 960 425 972 b 490 1082 477 1021 490 1050 b 460 1159 490 1114 480 1140 b 383 1188 441 1178 415 1188 b 291 1149 346 1188 316 1175 b 254 1057 266 1124 254 1093 b 281 988 254 1029 263 1006 b 353 960 299 969 323 960 m 304 656 b 419 699 351 656 390 670 b 464 810 449 728 464 765 b 431 890 464 842 453 869 b 346 922 408 912 380 922 b 231 877 300 922 262 907 b 183 767 199 847 183 810 b 218 687 183 734 195 708 b 304 656 241 666 270 656 "},"⁹":{"ha":494,"x_min":0,"x_max":0,"o":"m 221 629 l 421 883 l 419 885 b 342 863 394 870 369 863 b 230 906 296 863 259 877 b 186 1019 201 934 186 972 b 244 1167 186 1078 205 1127 b 392 1226 282 1206 331 1226 b 509 1182 440 1226 479 1212 b 554 1065 539 1152 554 1113 b 476 888 554 1013 528 954 l 276 629 m 510 1067 b 477 1151 510 1100 499 1128 b 390 1186 455 1175 426 1186 b 275 1139 343 1186 305 1170 b 231 1022 245 1107 231 1069 b 263 937 231 988 241 959 b 349 903 285 914 313 903 b 464 951 395 903 433 919 b 510 1067 494 984 510 1022 "},"₀":{"ha":494,"x_min":0,"x_max":0,"o":"m 250 407 b 364 351 302 407 340 388 b 400 210 388 314 400 267 b 385 72 400 164 395 118 b 343 -62 376 25 362 -20 b 267 -165 325 -104 299 -138 b 157 -204 234 -191 198 -204 b 42 -149 104 -204 66 -186 b 6 -8 18 -113 6 -66 b 29 178 6 56 13 118 b 111 338 45 239 72 292 b 250 407 150 384 196 407 m 247 367 b 143 310 208 367 174 348 b 75 171 113 273 90 226 b 53 -4 60 115 53 57 b 160 -164 53 -111 88 -164 b 263 -108 199 -164 233 -145 b 331 31 293 -71 316 -25 b 353 206 345 86 353 144 b 247 367 353 313 318 367 "},"₁":{"ha":494,"x_min":0,"x_max":0,"o":"m 135 -190 l 228 340 l 93 254 l 71 288 l 242 393 l 283 393 l 181 -190 "},"₂":{"ha":494,"x_min":0,"x_max":0,"o":"m -26 -190 l -19 -146 l 233 82 b 328 184 280 124 311 158 b 354 264 346 210 354 237 b 324 340 354 297 344 323 b 244 367 304 358 278 367 b 101 265 178 367 130 333 l 58 278 b 135 374 76 320 101 353 b 246 407 168 396 205 407 b 359 369 295 407 333 394 b 399 267 385 344 399 310 b 369 168 399 230 389 197 b 254 49 349 139 311 100 l 33 -150 l 343 -150 l 336 -190 "},"₃":{"ha":494,"x_min":0,"x_max":0,"o":"m 153 -204 b 43 -176 110 -204 74 -195 b -24 -97 13 -157 -10 -131 l 19 -83 b 151 -164 41 -137 85 -164 b 256 -126 194 -164 229 -151 b 297 -28 284 -101 297 -69 b 259 65 297 13 284 44 b 160 96 234 85 200 96 l 135 96 l 143 135 l 167 135 b 284 172 216 135 255 147 b 328 265 313 196 328 227 b 299 342 328 300 318 325 b 225 368 279 359 255 368 b 107 306 177 368 138 347 l 74 331 b 229 407 113 381 165 407 b 333 371 272 407 306 395 b 374 271 360 347 374 313 b 333 165 374 227 360 192 b 232 115 305 138 272 122 l 232 114 b 313 67 266 106 293 91 b 343 -25 333 43 343 12 b 288 -156 343 -81 325 -124 b 153 -204 252 -188 206 -204 "},"₄":{"ha":494,"x_min":0,"x_max":0,"o":"m 281 -46 l 254 -190 l 211 -190 l 238 -46 l -32 -46 l -24 -3 l 299 393 l 357 393 l 286 -6 l 379 -6 l 372 -46 m 304 336 l 300 336 l 21 -6 l 244 -6 "},"₅":{"ha":494,"x_min":0,"x_max":0,"o":"m 361 14 b 304 -142 361 -48 342 -100 b 150 -204 266 -183 215 -204 b -15 -110 73 -204 18 -173 l 24 -87 b 150 -164 50 -138 92 -164 b 269 -114 199 -164 239 -147 b 315 10 300 -81 315 -39 b 280 103 315 48 303 79 b 185 139 256 127 225 139 b 61 101 145 139 104 126 l 118 393 l 392 393 l 383 353 l 154 353 l 117 163 b 190 176 141 172 165 176 b 315 131 242 176 284 161 b 361 14 346 101 361 62 "},"₆":{"ha":494,"x_min":0,"x_max":0,"o":"m 369 6 b 312 -144 369 -54 350 -103 b 163 -204 273 -184 224 -204 b 45 -159 114 -204 75 -189 b 0 -43 15 -129 0 -90 b 79 136 0 7 26 67 l 278 393 l 333 393 l 135 142 l 136 140 b 213 161 160 154 186 161 b 326 119 259 161 297 147 b 369 6 355 91 369 53 m 325 3 b 292 88 325 37 314 66 b 207 122 271 111 242 122 b 91 73 161 122 122 106 b 44 -43 60 40 44 1 b 77 -128 44 -76 55 -105 b 164 -164 99 -152 128 -164 b 280 -115 211 -164 250 -148 b 325 3 310 -83 325 -44 "},"₇":{"ha":494,"x_min":0,"x_max":0,"o":"m 28 -190 l 368 353 l 85 353 l 92 393 l 424 393 l 417 353 l 81 -190 "},"₈":{"ha":494,"x_min":0,"x_max":0,"o":"m 390 267 b 358 176 390 231 379 201 b 275 121 336 150 308 132 l 275 119 b 338 71 300 110 321 94 b 364 -10 355 48 364 21 b 302 -153 364 -71 343 -119 b 158 -204 261 -187 213 -204 b 42 -165 113 -204 74 -191 b -6 -56 10 -139 -6 -103 b 34 57 -6 -13 8 25 b 139 125 60 89 95 112 l 139 126 b 85 172 116 136 98 151 b 67 238 73 192 67 214 b 117 358 67 285 84 325 b 240 407 151 391 192 407 b 349 371 285 407 321 395 b 390 267 376 347 390 312 m 208 140 b 307 177 248 140 281 153 b 346 263 333 202 346 230 b 316 340 346 295 336 321 b 239 368 296 359 270 368 b 147 330 202 368 171 355 b 110 238 122 304 110 274 b 137 168 110 210 119 187 b 208 140 155 150 179 140 m 160 -164 b 275 -120 207 -164 245 -149 b 319 -10 305 -91 319 -54 b 286 71 319 23 308 50 b 201 103 264 92 236 103 b 86 58 156 103 118 88 b 39 -53 55 28 39 -9 b 74 -133 39 -85 50 -112 b 160 -164 97 -153 125 -164 "},"₉":{"ha":494,"x_min":0,"x_max":0,"o":"m 76 -190 l 276 64 l 275 65 b 197 43 250 50 224 43 b 85 86 152 43 115 57 b 42 200 56 115 42 153 b 99 347 42 258 61 307 b 247 407 138 387 187 407 b 365 363 295 407 334 392 b 410 246 395 333 410 294 b 332 68 410 194 384 135 l 132 -190 m 365 247 b 333 332 365 281 354 309 b 246 367 311 355 282 367 b 131 319 199 367 160 351 b 86 203 101 288 86 249 b 119 117 86 169 97 140 b 204 83 141 95 169 83 b 319 132 250 83 289 100 b 365 247 350 164 365 203 "},"℅":{"ha":1122,"x_min":0,"x_max":0,"o":"m 322 546 b 178 597 260 546 212 563 b 128 732 145 631 128 676 b 201 922 128 805 152 868 b 383 1001 249 975 310 1001 b 532 933 450 1001 500 979 l 499 906 b 382 961 472 943 433 961 b 235 894 324 961 275 939 b 176 736 196 849 176 796 b 215 628 176 692 189 656 b 325 588 240 601 277 588 b 460 643 376 588 421 606 l 489 615 b 322 546 441 569 385 546 m 165 -17 l 964 1024 l 999 1001 l 200 -39 m 1042 246 b 972 60 1042 173 1018 111 b 790 -17 925 9 864 -17 b 642 36 726 -17 677 1 b 589 174 606 71 589 117 b 659 360 589 247 612 309 b 840 438 706 412 766 438 b 988 384 903 438 953 420 b 1042 246 1024 348 1042 302 m 994 244 b 954 354 994 289 981 325 b 838 397 927 383 888 397 b 692 332 778 397 730 375 b 636 176 655 288 636 237 b 676 67 636 132 649 95 b 792 24 702 38 741 24 b 938 88 851 24 900 45 b 994 244 975 131 994 183 "},"ℓ":{"ha":694,"x_min":0,"x_max":0,"o":"m 365 -19 b 273 9 327 -19 297 -10 b 238 96 249 28 238 57 b 239 113 238 103 238 109 b 288 350 245 153 262 232 l 185 257 l 182 257 l 175 271 b 165 288 171 278 168 284 l 299 403 l 383 796 b 458 950 400 864 425 916 b 567 1001 491 984 527 1001 b 640 967 596 1001 621 990 b 668 876 659 944 668 913 b 343 388 668 747 560 584 b 318 278 338 363 329 326 b 294 170 307 231 299 195 b 288 103 290 146 288 123 b 375 19 288 47 317 19 b 511 75 419 19 465 38 l 514 75 b 521 60 515 71 517 66 b 529 46 525 53 527 49 b 365 -19 476 2 422 -19 m 353 439 b 625 876 534 613 625 759 b 608 939 625 902 619 923 b 563 963 596 955 581 963 b 483 918 535 963 508 948 b 426 781 457 888 438 843 l 422 760 b 353 439 407 688 384 581 "},"№":{"ha":1421,"x_min":0,"x_max":0,"o":"m 254 983 l 328 983 l 721 67 l 885 983 l 936 983 l 763 0 l 689 0 l 294 922 l 132 0 l 81 0 m 1019 493 l 1394 493 l 1388 449 l 1011 449 m 1235 581 b 1102 629 1178 581 1134 597 b 1054 754 1070 662 1054 703 b 1119 922 1054 819 1076 875 b 1283 993 1162 969 1217 993 b 1417 944 1340 993 1384 977 b 1465 821 1449 912 1465 871 b 1401 651 1465 755 1444 699 b 1235 581 1359 604 1303 581 m 1238 617 b 1369 676 1291 617 1335 636 b 1421 818 1404 715 1421 763 b 1385 917 1421 858 1409 891 b 1281 957 1361 944 1326 957 b 1149 898 1227 957 1183 937 b 1099 756 1116 859 1099 811 b 1134 656 1099 716 1110 683 b 1238 617 1158 630 1192 617 "},"℗":{"ha":1111,"x_min":0,"x_max":0,"o":"m 28 490 b 183 861 28 636 79 759 b 557 1014 286 963 411 1014 b 929 861 702 1014 826 963 b 1083 490 1032 759 1083 636 b 929 122 1083 346 1032 223 b 557 -31 826 20 702 -31 b 183 122 411 -31 286 20 b 28 490 79 223 28 346 m 75 490 b 216 154 75 359 122 247 b 557 15 310 62 424 15 b 896 154 689 15 802 62 b 1036 490 989 247 1036 359 b 896 828 1036 623 989 735 b 557 968 802 922 689 968 b 216 828 424 968 310 922 b 75 490 122 735 75 623 m 406 788 l 611 788 b 763 742 673 788 724 772 b 822 606 803 711 822 666 b 766 468 822 548 803 502 b 618 417 728 434 679 417 l 454 417 l 454 178 l 406 178 m 618 461 b 730 499 664 461 702 474 b 772 606 758 525 772 560 b 727 709 772 651 757 685 b 614 744 697 733 659 744 l 454 744 l 454 461 "},"™":{"ha":1389,"x_min":0,"x_max":0,"o":"m 1279 411 l 1279 935 l 1276 935 l 1054 411 l 1025 411 l 807 935 l 804 935 l 804 411 l 757 411 l 757 983 l 832 983 l 1042 486 l 1251 983 l 1326 983 l 1326 411 m 432 942 l 432 411 l 386 411 l 386 942 l 200 942 l 200 983 l 618 983 l 618 942 "},"Ω":{"ha":1028,"x_min":0,"x_max":0,"o":"m 507 956 b 242 848 402 956 314 920 b 133 581 169 776 133 687 b 201 351 133 492 156 415 b 393 231 246 286 310 246 l 393 0 l 83 0 l 83 44 l 353 44 l 353 196 b 156 338 269 220 204 267 b 83 581 107 409 83 490 b 208 881 83 700 125 800 b 507 1001 291 961 390 1001 b 807 881 625 1001 725 961 b 931 581 889 800 931 700 b 859 338 931 490 907 409 b 661 196 811 267 745 220 l 661 44 l 931 44 l 931 0 l 621 0 l 621 231 b 813 351 704 246 768 286 b 881 581 858 415 881 492 b 772 848 881 687 844 776 b 507 956 700 920 612 956 "},"℮":{"ha":840,"x_min":0,"x_max":0,"o":"m 218 360 l 218 108 b 419 26 273 54 340 26 b 688 193 532 26 622 82 l 736 164 b 600 20 694 97 648 49 b 419 -24 552 -9 492 -24 b 160 86 313 -24 227 13 b 61 360 94 159 61 250 b 160 634 61 470 94 561 b 419 743 225 707 312 743 b 678 636 526 743 612 707 b 779 360 745 565 778 473 m 622 410 l 622 611 b 418 694 564 667 496 694 b 218 611 340 694 274 667 l 218 410 "},"∂":{"ha":668,"x_min":0,"x_max":0,"o":"m 308 -21 b 124 68 233 -21 172 9 b 51 286 75 127 51 200 b 122 500 51 376 75 447 b 304 579 169 553 230 579 b 447 539 355 579 403 566 b 553 432 491 512 526 476 b 556 533 555 480 556 514 b 484 843 556 660 532 763 b 286 963 436 923 370 963 b 132 904 233 963 182 943 l 107 938 b 283 1006 161 983 219 1006 b 469 935 358 1006 420 982 b 572 756 519 888 553 828 b 601 507 592 684 601 601 b 522 111 601 331 575 199 b 308 -21 469 23 398 -21 m 310 22 b 419 58 351 22 388 34 b 492 154 451 82 475 114 b 531 270 509 194 522 233 b 547 385 539 308 544 346 b 441 494 518 430 482 466 b 310 535 400 521 356 535 b 156 461 244 535 193 510 b 101 286 120 412 101 354 b 157 104 101 219 120 159 b 310 22 194 50 245 22 "},"∆":{"ha":918,"x_min":0,"x_max":0,"o":"m 44 0 l 426 989 l 488 989 l 876 0 m 457 942 l 110 46 l 807 46 "},"∏":{"ha":981,"x_min":0,"x_max":0,"o":"m 813 -297 l 813 1046 l 168 1046 l 168 -297 l 119 -297 l 119 1092 l 863 1092 l 863 -297 "},"∑":{"ha":828,"x_min":0,"x_max":0,"o":"m 54 -297 l 54 -253 l 521 401 l 74 1046 l 74 1092 l 758 1092 l 758 1046 l 135 1046 l 585 401 l 115 -251 l 774 -251 l 774 -297 "},"−":{"ha":925,"x_min":0,"x_max":0,"o":"m 129 403 l 129 446 l 796 446 l 796 403 "},"∕":{"ha":139,"x_min":0,"x_max":0,"o":"m -307 -39 l -339 -17 l 461 1024 l 493 1001 "},"∙":{"ha":342,"x_min":0,"x_max":0,"o":"m 179 332 b 136 376 150 332 136 347 b 150 411 136 389 141 401 b 183 426 159 421 170 426 b 214 415 195 426 206 422 b 226 383 222 407 226 396 b 213 347 226 369 222 357 b 179 332 203 337 192 332 "},"√":{"ha":668,"x_min":0,"x_max":0,"o":"m 318 -299 l 86 201 l 7 163 l -11 203 l 110 260 l 340 -242 l 618 1092 l 667 1092 l 376 -299 "},"∞":{"ha":1011,"x_min":0,"x_max":0,"o":"m 514 315 b 368 188 448 250 400 207 b 263 154 331 164 296 153 b 137 208 212 154 170 172 b 88 344 104 243 88 289 b 136 482 88 400 104 446 b 261 536 169 518 210 536 b 514 372 329 536 413 481 b 765 536 615 481 699 536 b 891 483 816 536 858 518 b 940 346 924 447 940 401 b 892 208 940 289 924 243 b 767 154 859 172 818 154 b 514 315 697 154 613 208 m 542 343 b 669 231 594 291 636 254 b 768 196 702 207 735 196 b 863 239 808 196 839 210 b 897 343 886 268 897 302 b 863 451 897 386 886 422 b 767 494 839 480 807 494 b 668 458 735 494 702 482 b 542 343 634 433 592 395 m 486 343 b 360 458 436 395 394 433 b 261 494 325 482 293 494 b 167 451 221 494 190 480 b 132 343 144 422 132 386 b 167 239 132 302 144 268 b 263 196 190 210 222 196 b 363 232 294 196 327 208 b 486 343 398 256 439 293 "},"∫":{"ha":746,"x_min":0,"x_max":0,"o":"m 225 -287 b 176 -275 206 -287 189 -283 b 157 -239 163 -267 157 -255 b 167 -215 157 -229 160 -221 b 190 -206 173 -209 181 -206 b 222 -228 200 -206 211 -213 b 251 -251 233 -244 243 -251 b 302 -182 274 -251 291 -228 b 319 -15 314 -136 319 -80 b 325 861 321 553 323 845 b 336 939 328 892 331 918 b 357 1007 341 960 348 983 b 398 1062 366 1031 380 1049 b 463 1081 416 1074 438 1081 b 513 1068 482 1081 499 1076 b 535 1031 528 1060 535 1047 b 524 1006 535 1020 531 1012 b 500 996 517 999 509 996 b 467 1019 490 996 479 1004 b 438 1043 456 1035 446 1043 b 385 971 413 1043 396 1019 b 369 796 375 923 369 864 b 364 -78 368 229 366 -62 b 225 -287 350 -218 304 -287 "},"≈":{"ha":925,"x_min":0,"x_max":0,"o":"m 69 388 b 117 505 75 435 91 474 b 235 551 144 536 183 551 b 435 503 276 551 343 535 b 622 454 526 470 589 454 b 754 572 696 454 740 494 l 790 572 b 742 456 786 526 769 487 b 621 408 714 424 674 408 b 425 457 581 408 516 425 b 242 506 334 489 273 506 b 106 388 164 506 119 466 l 69 388 m 69 133 b 117 251 75 181 91 220 b 235 299 144 283 183 299 b 435 249 277 299 344 282 b 622 200 527 216 589 200 b 754 319 695 200 739 240 l 790 319 b 741 201 785 272 768 233 b 621 154 714 170 674 154 b 424 203 580 154 515 171 b 242 253 334 236 273 253 b 106 133 164 253 119 213 l 69 133 "},"≠":{"ha":925,"x_min":0,"x_max":0,"o":"m 131 497 l 131 542 l 503 542 l 606 746 l 646 726 l 553 542 l 794 542 l 794 497 l 529 497 l 428 296 l 794 296 l 794 251 l 404 251 l 290 25 l 251 46 l 357 251 l 131 251 l 131 296 l 379 296 l 481 497 "},"≤":{"ha":925,"x_min":0,"x_max":0,"o":"m 131 3 l 131 47 l 794 47 l 794 3 m 131 407 l 131 457 l 794 753 l 794 706 l 178 432 l 794 158 l 794 111 "},"≥":{"ha":925,"x_min":0,"x_max":0,"o":"m 131 47 l 794 47 l 794 3 l 131 3 m 131 158 l 747 432 l 131 706 l 131 753 l 794 457 l 794 407 l 131 111 "},"◊":{"ha":824,"x_min":0,"x_max":0,"o":"m 435 -49 l 385 -49 l 158 494 l 385 1038 l 435 1038 l 665 494 m 410 996 l 207 494 l 410 -7 l 614 494 "},"":{"ha":707,"x_min":0,"x_max":0,"o":"m 425 600 l 258 600 l 151 0 l 103 0 l 208 600 l 72 600 l 81 642 l 214 642 l 251 856 b 324 1015 263 927 288 980 b 456 1067 360 1049 404 1067 b 522 1058 481 1067 503 1064 l 511 1017 b 453 1024 493 1021 473 1024 b 301 853 371 1024 321 967 l 264 642 l 432 642 m 508 0 l 458 0 l 572 642 l 622 642 m 679 914 b 666 880 679 901 675 890 b 635 865 657 870 647 865 b 594 907 608 865 594 879 b 608 940 594 920 599 931 b 639 954 616 950 627 954 b 667 943 650 954 659 950 b 679 914 675 936 679 926 "}}}
